<svg width="360" height="313" viewBox="0 0 360 313" fill="none" xmlns="http://www.w3.org/2000/svg">
<path d="M760.015 576.279C759.69 575.721 759.062 575.605 758.527 575.442C753.716 573.745 748.88 572.071 744.068 570.374C711.919 559.1 679.771 547.872 647.668 536.505C615.566 525.138 583.418 513.818 551.456 502.172C533.278 495.57 515.215 488.666 497.13 481.878C484.089 476.973 470.932 472.371 457.566 468.349C445.595 464.746 433.507 461.678 421.21 459.47C407.332 456.982 393.315 455.564 379.205 455.029C357.54 454.239 335.945 455.61 314.419 458.586C302.053 460.306 289.78 462.678 277.552 465.188C252.005 470.418 226.435 475.486 200.795 480.158C184.128 483.203 167.414 486.062 150.7 488.642C134.545 491.13 118.482 494.175 102.443 497.337C86.3105 500.498 70.1552 503.683 54.0227 506.798C49.3503 507.705 44.6548 508.449 39.9824 509.309C36.3793 509.936 32.729 510.377 29.0795 510.679C24.9417 511.005 20.8042 511.423 16.6665 511.749C15.8993 511.819 15.0863 511.842 14.3192 511.726C13.2034 511.54 12.2959 510.958 11.9472 509.819C11.6682 508.889 11.4125 507.936 11.2033 506.983C8.71601 494.919 6.27548 482.854 3.76495 470.813C2.13776 463.096 0.440773 455.401 -1.23291 447.73C-1.48862 446.591 -1.7668 445.43 -1.90627 444.267C-2.04575 443.198 -2.09271 442.082 -2.02297 441.036C-1.86026 438.641 -0.581297 436.945 1.62704 435.992C2.44063 435.643 3.29988 435.387 4.18321 435.154C4.95032 434.945 5.74162 434.853 6.53196 434.76C22.246 432.714 37.843 429.947 53.4176 426.879C68.1785 423.973 82.9625 420.951 97.7467 418.022C111.183 415.372 124.619 413.048 138.171 411.072C154.141 408.771 170.018 405.679 185.802 402.169C200.702 398.845 215.556 395.382 230.457 391.965C231.619 391.686 232.781 391.452 233.943 391.173C239.847 389.825 239.987 389.779 239.731 389.43C239.662 389.361 239.661 389.221 239.592 389.198C237.848 388.524 236.128 387.873 234.385 387.245C176.526 366.58 118.692 345.892 60.8102 325.203C45.84 319.857 30.8469 314.534 15.8767 309.187C14.8539 308.815 13.8308 308.489 12.8312 308.094C12.0874 307.815 11.3902 307.49 10.6928 307.118C8.67044 305.979 7.50799 304.305 7.39176 301.911C7.34527 300.516 7.50725 299.144 7.71645 297.772C8.27435 294.239 9.01866 290.753 9.92524 287.289C11.2502 282.198 12.8543 277.154 14.6442 272.203C16.6665 266.601 18.7824 260.999 20.8513 255.397C23.0131 249.609 25.0587 243.797 26.7556 237.87C27.1043 236.638 27.5218 235.428 28.2656 234.312C29.1257 232.987 30.3587 232.5 31.8231 232.709C32.5903 232.825 33.3804 233.057 34.0545 233.406C36.7975 234.754 39.7026 235.66 42.5618 236.66C93.6092 254.234 144.425 272.505 195.1 291.055C210.21 296.588 225.342 302.097 240.452 307.629C244.776 309.21 249.146 310.744 253.563 312.046C256.98 313.045 260.397 313.906 263.884 314.557C264.349 314.65 264.837 314.719 265.325 314.789C265.604 314.836 265.976 314.789 266.045 314.486C266.115 314.231 265.999 313.929 265.883 313.673C265.767 313.417 265.581 313.185 265.395 312.953C263.117 310.117 260.932 307.234 258.561 304.491C249.449 293.845 240.289 283.291 231.154 272.668C221.948 261.975 212.766 251.305 203.538 240.635C192.287 227.571 181.013 214.531 169.763 201.513C164.579 195.493 159.395 189.518 154.164 183.544C140.194 167.528 126.2 151.535 112.23 135.565C110.44 133.496 108.65 131.428 106.837 129.336C105.674 127.987 104.698 126.546 103.838 124.988C103.512 124.384 103.21 123.757 102.955 123.129C101.699 120.014 102.35 117.132 104.419 114.505C104.791 114.04 105.279 113.644 105.627 113.156C105.883 112.854 105.999 112.458 106.185 112.133C106.929 111.482 107.696 110.808 108.44 110.157C109.556 109.878 110.369 109.111 111.229 108.437C113.159 106.88 115.089 105.276 117.041 103.742C123.782 98.4419 130.222 92.7469 136.498 86.889C139.729 83.8903 142.914 80.8914 146.168 77.9159C147.26 76.9164 148.399 75.9166 149.678 75.103C153.56 72.5693 156.605 73.0106 159.627 75.0562C160.835 75.893 161.975 76.7999 162.951 77.9157C163.718 78.8222 164.509 79.6598 165.276 80.5664C182.269 100.302 199.214 120.083 216.23 139.796C246.31 174.617 276.46 209.417 306.563 244.215C311.816 250.306 317.07 256.35 322.323 262.44C322.835 263.044 323.346 263.649 323.858 264.206C324.067 264.416 324.276 264.625 324.485 264.834C324.741 265.09 325.299 264.95 325.438 264.578C326.484 262.23 326.74 259.79 326.461 257.326C326.299 255.861 325.927 254.42 325.415 253.026C324.881 251.561 324.369 250.073 323.742 248.609C322.858 246.424 322.23 244.168 321.788 241.82C319.952 232.22 318.116 222.666 316.209 213.089C307.027 166.807 297.845 120.525 288.64 74.2661C285.246 57.0643 281.667 39.9097 277.25 22.9404C276.948 21.8014 276.761 20.6381 276.645 19.4526C276.552 18.5692 276.576 17.6632 276.738 16.8031C277.064 15.0829 277.971 13.6654 279.598 12.8286C280.575 12.3172 281.55 11.8515 282.643 11.5958C283.619 11.3633 284.573 11.1547 285.549 10.9687C294.731 9.36475 303.866 7.52836 312.979 5.62222C320.464 4.04154 327.902 2.46046 335.387 0.879769C337.223 0.484568 339.084 0.159666 340.967 0.0899169C342.338 0.0201784 343.732 0.0661097 345.104 0.368261C347.289 0.833201 349.102 1.90268 350.543 3.62287C351.613 4.92462 352.38 6.38963 352.961 7.94709C353.728 9.96943 354.146 12.1074 354.565 14.246C357.331 28.7745 360.05 43.3027 362.84 57.808C369.721 93.6992 376.88 129.544 384.458 165.296C387.829 181.173 391.27 197.073 394.431 213.019C396.779 224.805 399.267 236.544 401.707 248.33C401.917 249.283 402.102 250.259 402.358 251.212C402.427 251.467 402.684 251.677 402.87 251.91C402.684 252.096 402.777 252.235 402.87 252.096C403.079 251.747 402.963 252.235 402.777 251.91C402.916 251.77 403.172 251.7 403.242 251.538C403.497 251.003 403.73 250.445 403.916 249.887C410.122 232.337 416.375 214.832 422.488 197.282C429.625 176.802 436.366 156.207 442.433 135.402C444.176 129.381 446.036 123.384 448.129 117.48C451.336 108.368 454.567 99.2786 457.938 90.2361C464.354 72.9878 470.165 55.5074 474.861 37.7477C476.07 33.1451 477.488 28.5655 478.859 23.986C479.417 22.0799 480.045 20.1974 480.719 18.3145C481.138 17.1058 481.673 15.9203 482.3 14.7813C483.695 12.2243 485.623 11.317 488.483 11.7587C489.366 11.8982 490.203 12.1306 491.04 12.4095C491.876 12.6884 492.69 13.0371 493.504 13.3392C511.844 20.3362 530.255 27.0779 548.829 33.4239C549.666 33.7029 550.502 33.9817 551.293 34.3537C551.99 34.6791 552.687 35.0974 553.292 35.5623C554.384 36.3759 554.895 37.5378 554.825 38.9093C554.779 39.6996 554.64 40.4904 554.477 41.2575C554.198 42.5128 553.873 43.7683 553.594 45.0236C552.153 51.5324 550.455 57.971 548.549 64.3403C545.806 73.4991 542.692 82.5186 539.414 91.4682C535.602 101.836 531.766 112.18 527.977 122.571C524.258 132.752 520.841 143.05 518.051 153.511C515.262 163.971 512.1 174.339 508.706 184.66C504.662 196.933 500.291 209.114 495.921 221.294C491.388 233.917 486.856 246.587 482.695 259.348C481.835 261.975 480.975 264.648 479.882 267.228C479.44 268.321 479.068 269.483 478.813 270.622C478.255 273.319 478.929 275.713 480.672 277.782C481.137 278.34 481.695 278.432 482.206 278.014C482.973 277.386 483.741 276.759 484.508 276.085C528.535 237.729 572.585 199.397 616.612 161.042C629.49 149.837 642.322 138.587 655.061 127.243C657.292 125.244 659.57 123.291 661.802 121.292C663.011 120.222 664.312 119.293 665.754 118.595C666.381 118.293 667.033 118.015 667.684 117.875C669.636 117.457 671.403 117.735 672.914 119.153C673.378 119.618 673.797 120.222 674.564 120.246L678.795 125.128C679.051 126.221 679.841 127.011 680.538 127.801C684.513 132.473 688.465 137.215 692.486 141.841C697.205 147.304 701.994 152.743 706.759 158.159C707.596 159.089 708.387 160.112 709.549 160.67L714.942 166.9C714.779 167.574 715.221 168.016 715.593 168.481C716.313 169.48 716.522 170.619 716.522 171.828C716.545 173.153 716.15 174.385 715.523 175.524C714.942 176.57 714.291 177.593 713.407 178.43C711.966 179.824 710.571 181.266 709.084 182.567C701.994 188.727 694.857 194.795 687.768 200.955C679.469 208.138 671.17 215.321 662.872 222.55C650.807 233.034 638.789 243.518 626.748 254.025C595.692 281.129 564.612 308.21 533.533 335.338C533.161 335.663 532.789 335.989 532.418 336.315C532.208 336.524 531.975 336.709 531.766 336.918C531.627 337.058 531.487 337.197 531.348 337.337C531.162 337.523 531.302 337.988 531.534 338.081C533.603 338.848 535.765 338.825 537.973 338.616C539.763 338.453 541.506 338.011 543.203 337.522C545.202 336.965 547.247 336.5 549.293 336.174C576.072 331.665 602.758 326.783 629.467 321.832C654.689 317.16 679.957 312.487 705.202 307.885C726.239 304.049 747.37 300.586 768.407 296.565C769.383 296.379 770.359 296.239 771.359 296.169C772.149 296.122 772.963 296.146 773.707 296.286C775.125 296.541 776.287 297.285 776.915 298.61C777.333 299.493 777.705 300.423 777.984 301.353C778.263 302.283 778.402 303.259 778.588 304.235C782.029 322.32 785.747 340.358 789.699 358.351C790.094 360.187 790.56 362.001 790.909 363.837C791.118 364.884 791.258 365.999 791.281 367.045C791.327 369.277 790.165 370.811 788.142 371.671C787.329 372.02 786.468 372.275 785.585 372.508C784.632 372.763 783.633 372.927 782.68 373.136C769.29 375.972 755.878 378.599 742.419 381.039C721.846 384.735 701.25 388.361 680.655 391.988C658.78 395.823 636.929 399.635 615.148 403.982C600.666 406.887 586.184 409.747 571.679 412.444C565.24 413.629 558.847 415 552.501 416.558C551.455 416.813 550.362 417.069 549.339 417.394C549.084 417.464 548.899 417.744 548.69 417.953C548.62 417.884 548.573 417.836 548.526 417.79C548.503 417.767 548.341 417.883 548.364 417.907C548.434 418.116 548.549 418.092 548.712 417.883C548.875 418.278 549.177 418.487 549.549 418.627C551.036 419.185 552.478 419.742 553.966 420.3C566.727 425.112 579.397 430.064 592.228 434.713C652.922 456.633 713.664 478.415 774.498 499.964C775.985 500.475 777.449 501.01 778.937 501.567C780.053 501.986 781.076 502.544 782.029 503.218C783.33 504.148 783.889 505.45 783.912 507.007C783.935 507.588 783.842 508.193 783.726 508.774C783.47 509.82 783.144 510.888 782.772 511.911C781.819 514.631 780.796 517.328 779.843 520.047C773.59 537.877 767.384 555.706 761.131 573.536C760.945 574.093 760.759 574.652 760.62 575.256C760.573 575.535 760.642 575.837 760.689 576.116L760.27 576.534L760.015 576.279Z" fill="#F55000"/>
</svg>
