<svg width="28" height="28" viewBox="0 0 28 28" fill="none" xmlns="http://www.w3.org/2000/svg">
<circle cx="14" cy="14" r="14" fill="#191A1A"/>
<path d="M21.5123 9.23745C20.9411 9.48801 20.3325 9.65409 19.6979 9.73473C20.3507 9.34497 20.849 8.73249 21.0832 7.99425C20.4746 8.35713 19.8026 8.61345 19.0864 8.75649C18.5085 8.14113 17.6848 7.76001 16.7863 7.76001C15.0429 7.76001 13.6394 9.17505 13.6394 10.9098C13.6394 11.1594 13.6605 11.3994 13.7123 11.6278C11.0944 11.5002 8.77794 10.2455 7.22178 8.33409C6.9501 8.80545 6.79074 9.34497 6.79074 9.92577C6.79074 11.0163 7.35234 11.983 8.18946 12.5427C7.68354 12.5331 7.18722 12.3863 6.76674 12.1549C6.76674 12.1645 6.76674 12.177 6.76674 12.1894C6.76674 13.7197 7.85826 14.9907 9.28962 15.2835C9.0333 15.3536 8.75394 15.3872 8.46402 15.3872C8.26242 15.3872 8.0589 15.3757 7.86786 15.3334C8.27586 16.5805 9.43362 17.4973 10.8103 17.5271C9.7389 18.3651 8.37858 18.8701 6.90594 18.8701C6.6477 18.8701 6.40002 18.8586 6.15234 18.8269C7.54722 19.7264 9.20034 20.24 10.9831 20.24C16.7776 20.24 19.9456 15.44 19.9456 11.2794C19.9456 11.1402 19.9408 11.0058 19.9341 10.8723C20.5591 10.4288 21.0842 9.87489 21.5123 9.23745Z" fill="#FFFCF8"/>
</svg>
