<svg width="30" height="30" viewBox="0 0 30 30" fill="none" xmlns="http://www.w3.org/2000/svg">
<g clip-path="url(#clip0_80_1713)">
<path d="M14.995 11.7463C16.7902 11.7463 18.2458 13.2017 18.2458 14.9972C18.2458 16.7924 16.7902 18.248 14.995 18.248C13.1995 18.248 11.7441 16.7924 11.7441 14.9972C11.7441 13.2017 13.1995 11.7463 14.995 11.7463Z" fill="#191A1A"/>
<path fill-rule="evenodd" clip-rule="evenodd" d="M10.4248 5.85718H19.5768C22.0982 5.85718 24.1431 7.90111 24.1431 10.4245V19.5765C24.1431 22.0979 22.0992 24.1429 19.5758 24.1429H10.4248C7.90237 24.1429 5.85742 22.099 5.85742 19.5755V10.4245C5.85742 7.90213 7.90136 5.85718 10.4248 5.85718Z" stroke="#FFFCF8" stroke-width="1.52381" stroke-linecap="round" stroke-linejoin="round"/>
<path d="M20.027 9.62891C19.838 9.63001 19.6846 9.78341 19.6846 9.97231C19.6846 10.1613 19.839 10.3147 20.028 10.3147C20.2169 10.3147 20.3703 10.1613 20.3703 9.97231C20.3713 9.78231 20.2169 9.62891 20.027 9.62891Z" stroke="#FFFCF8" stroke-width="1.52381" stroke-linecap="round" stroke-linejoin="round"/>
<path d="M17.5869 12.4137C19.0151 13.8419 19.0151 16.1575 17.5869 17.5857C16.1587 19.0139 13.8431 19.0139 12.4149 17.5857C10.9867 16.1575 10.9867 13.8419 12.4149 12.4137C13.8431 10.9855 16.1587 10.9855 17.5869 12.4137Z" stroke="#FFFCF8" stroke-width="1.52381" stroke-linecap="round" stroke-linejoin="round"/>
</g>
<defs>
<clipPath id="clip0_80_1713">
<rect width="30" height="30" fill="white"/>
</clipPath>
</defs>
</svg>
