<svg width="600" height="412" viewBox="0 0 600 412" fill="none" xmlns="http://www.w3.org/2000/svg">
<g clip-path="url(#clip0_290_5521)">
<rect width="600" height="412" rx="50" fill="#FFFCF8"/>
<path d="M73.3084 375.423L62.8671 381.451L31.6094 327.311L42.0507 321.283L73.3084 375.423ZM79.3684 371.924L75.5728 365.35C78.2025 363.832 79.8293 361.827 80.4533 359.336C81.1289 356.814 80.6778 354.187 79.1 351.454L56.773 312.783L92.7375 292.019L123.995 346.159L113.167 352.41L86.8214 306.778L72.513 315.039L89.7494 344.893C92.5775 349.792 93.5658 354.481 92.7143 358.96C91.8331 363.387 89.1753 366.881 84.741 369.441C82.5753 370.691 80.7845 371.519 79.3684 371.924ZM130.049 342.664L126.254 336.09C128.883 334.571 130.51 332.566 131.134 330.075C131.81 327.554 131.359 324.927 129.781 322.194L107.454 283.522L143.418 262.758L174.676 316.898L163.848 323.15L137.502 277.518L123.194 285.779L140.43 315.633C143.258 320.531 144.247 325.22 143.395 329.699C142.514 334.127 139.856 337.62 135.422 340.181C133.256 341.431 131.465 342.259 130.049 342.664ZM151.174 258.281L161.615 252.252L174.788 275.069L185.461 268.906C182.23 261.285 181.699 253.994 183.868 247.036C186.008 240.025 190.559 234.51 197.52 230.492C205.306 225.996 213.033 224.972 220.702 227.42C228.445 229.756 234.712 235.074 239.505 243.376C244.268 251.626 245.755 259.739 243.967 267.715C242.222 275.529 237.456 281.683 229.671 286.178C222.761 290.168 215.725 291.377 208.562 289.806C201.399 288.236 195.336 284.105 190.373 277.414L179.7 283.576L192.873 306.392L182.432 312.421L151.174 258.281ZM194.965 251.251C194.175 256.313 195.358 261.577 198.513 267.043C201.669 272.508 205.636 276.164 210.415 278.012C215.245 279.829 219.878 279.458 224.312 276.897C228.746 274.337 231.358 270.526 232.148 265.464C232.99 260.372 231.833 255.093 228.677 249.628C225.521 244.162 221.528 240.52 216.698 238.703C211.919 236.856 207.313 237.213 202.878 239.773C198.444 242.333 195.806 246.159 194.965 251.251ZM284.815 241.966C290.178 238.87 293.556 234.719 294.951 229.514L305.276 232.215C303.097 240.348 297.882 246.796 289.633 251.559C281.383 256.323 273.191 257.614 265.058 255.435C256.925 253.256 250.477 248.041 245.714 239.791C240.951 231.541 239.659 223.35 241.838 215.217C244.017 207.084 249.232 200.636 257.482 195.873C265.732 191.109 273.923 189.818 282.056 191.997L279.278 202.367C274.094 200.89 268.796 201.715 263.382 204.841C258.174 207.848 254.943 212.016 253.689 217.346C252.435 222.676 253.386 228.074 256.542 233.54C259.697 239.005 263.896 242.528 269.139 244.107C274.382 245.686 279.608 244.972 284.815 241.966ZM325.908 168.741L311.986 176.779L338.332 222.412L327.891 228.44L301.545 182.807L287.623 190.845L282.711 182.337L320.996 160.234L325.908 168.741ZM369.321 204.52L358.493 210.772L327.235 156.632L343.863 147.031C349.174 143.965 354.302 142.964 359.248 144.027C364.193 145.091 368.095 148.097 370.952 153.047C373.81 157.997 374.463 162.88 372.912 167.694C371.36 172.509 367.929 176.449 362.618 179.515L356.817 182.864L369.321 204.52ZM348.999 155.926L343.198 159.275L351.682 173.97L357.483 170.621C359.545 169.43 360.808 167.807 361.272 165.752C361.787 163.667 361.404 161.516 360.124 159.299C358.844 157.082 357.173 155.675 355.11 155.079C353.098 154.453 351.061 154.735 348.999 155.926ZM446.862 159.752L434.719 166.762L422.994 158.063L399.404 171.683L401.153 186.142L389.01 193.153L381.806 125.125L391.551 119.499L446.862 159.752ZM413.923 150.926L394.537 135.924L397.758 160.258L413.923 150.926ZM498.773 145.249L492.075 133.648L451.47 157.091L420.212 102.951L430.654 96.9228L457 142.555L480.976 128.712L454.63 83.08L465.071 77.0518L491.417 122.684L496.831 119.558L508.441 139.668L498.773 145.249ZM517.577 118.924L507.136 124.952L475.878 70.8124L486.32 64.7841L517.577 118.924ZM511.019 50.5238L529.195 40.0301L560.453 94.1702L549.625 100.422L537.121 78.7657L532.326 81.5343L534.465 109.174L522.632 116.006L521.679 86.1345C517.716 86.7725 514.088 86.3234 510.795 84.7872C507.472 83.1995 504.769 80.6009 502.685 76.9916C499.827 72.0416 499.174 67.1594 500.725 62.3449C502.277 57.5304 505.708 53.59 511.019 50.5238ZM524.639 74.1134L531.986 69.8713L523.502 55.1761L516.154 59.4182C514.092 60.609 512.803 62.2468 512.288 64.3317C511.825 66.3867 512.233 68.5229 513.513 70.74C514.793 72.9572 516.439 74.3789 518.45 75.005C520.513 75.6014 522.576 75.3042 524.639 74.1134Z" fill="#191A1A" fill-opacity="0.2"/>
</g>
<rect x="0.5" y="0.5" width="599" height="411" rx="49.5" stroke="#FFFCF8"/>
<defs>
<clipPath id="clip0_290_5521">
<rect width="600" height="412" rx="50" fill="white"/>
</clipPath>
</defs>
</svg>
