<svg width="311" height="431" viewBox="0 0 311 431" fill="none" xmlns="http://www.w3.org/2000/svg">
<rect width="310" height="430" transform="translate(0.5 0.931519)" fill="#191A1A"/>
<path d="M101.96 -16.2059L92.2549 -10.8263L83.0972 -17.8715L64.2434 -7.42065L65.427 4.04463L55.7219 9.42422L50.9611 -44.503L58.7499 -48.8204L101.96 -16.2059ZM76.0182 -23.6446L60.8861 -35.7822L63.0988 -16.4832L76.0182 -23.6446ZM127.932 -30.6023L119.587 -25.9765L117.359 -29.9945C111.796 -26.9107 106.402 -26.0486 101.177 -27.4082C95.9287 -28.809 91.8656 -32.1057 88.9874 -37.2982C86.1091 -42.4907 85.4665 -47.6834 87.0595 -52.8762C88.6753 -58.0278 92.2649 -62.1455 97.8283 -65.2294L95.6011 -69.2474L103.946 -73.8732L106.173 -69.8551C111.778 -72.9618 117.172 -73.8239 122.356 -72.4415C127.604 -71.0406 131.667 -67.744 134.545 -62.5515C137.424 -57.3589 138.066 -52.1663 136.473 -46.9735C134.899 -41.8447 131.309 -37.727 125.704 -34.6203L127.932 -30.6023ZM110.285 -62.4373L121.593 -42.0382C124.56 -43.6829 126.436 -45.935 127.221 -48.7946C128.025 -51.7182 127.582 -54.7048 125.891 -57.7544C124.201 -60.8039 121.914 -62.742 119.032 -63.5685C116.168 -64.4591 113.252 -64.082 110.285 -62.4373ZM113.248 -37.4124L101.94 -57.8115C99.0142 -56.1896 97.1494 -53.9169 96.3457 -50.9933C95.5649 -48.0284 95.9968 -45.0624 97.6415 -42.0953C99.2862 -39.1282 101.573 -37.1901 104.501 -36.2812C107.406 -35.4134 110.322 -35.7905 113.248 -37.4124ZM160.47 -48.6387L152.125 -44.013L128.14 -87.2839L136.485 -91.9096L160.47 -48.6387ZM196.777 -125.33L220.762 -82.0591L166.674 -52.0773L142.688 -95.3481L151.033 -99.9739L171.25 -63.5027L185.776 -71.555L165.56 -108.026L173.905 -112.652L194.121 -76.1808L208.648 -84.233L188.432 -120.704L196.777 -125.33ZM270.685 -109.732L260.98 -104.352L251.822 -111.397L232.968 -100.946L234.152 -89.4812L224.447 -84.1016L219.686 -138.029L227.475 -142.346L270.685 -109.732ZM244.743 -117.17L229.611 -129.308L231.824 -110.009L244.743 -117.17Z" fill="#FFFCF8" fill-opacity="0.35"/>
<path d="M101.96 124.217L92.2549 129.596L83.0972 122.551L64.2434 133.002L65.427 144.467L55.7219 149.847L50.9611 95.9196L58.7499 91.6022L101.96 124.217ZM76.0182 116.778L60.8861 104.64L63.0988 123.939L76.0182 116.778ZM127.932 109.82L119.587 114.446L117.359 110.428C111.796 113.512 106.402 114.374 101.177 113.014C95.9287 111.614 91.8656 108.317 88.9874 103.124C86.1091 97.9319 85.4665 92.7392 87.0595 87.5464C88.6753 82.3948 92.2649 78.2771 97.8283 75.1932L95.6011 71.1752L103.946 66.5495L106.173 70.5675C111.778 67.4608 117.172 66.5987 122.356 67.9811C127.604 69.382 131.667 72.6786 134.545 77.8712C137.424 83.0637 138.066 88.2563 136.473 93.4491C134.899 98.5779 131.309 102.696 125.704 105.802L127.932 109.82ZM110.285 77.9853L121.593 98.3845C124.56 96.7397 126.436 94.4876 127.221 91.628C128.025 88.7044 127.582 85.7178 125.891 82.6682C124.201 79.6187 121.914 77.6806 119.032 76.8541C116.168 75.9635 113.252 76.3406 110.285 77.9853ZM113.248 103.01L101.94 82.6111C99.0142 84.233 97.1494 86.5057 96.3457 89.4293C95.5649 92.3942 95.9968 95.3602 97.6415 98.3273C99.2862 101.294 101.573 103.232 104.501 104.141C107.406 105.009 110.322 104.632 113.248 103.01ZM160.47 91.7839L152.125 96.4096L128.14 53.1388L136.485 48.513L160.47 91.7839ZM196.777 15.0927L220.762 58.3635L166.674 88.3453L142.688 45.0745L151.033 40.4487L171.25 76.9199L185.776 68.8676L165.56 32.3964L173.905 27.7707L194.121 64.2418L208.648 56.1896L188.432 19.7184L196.777 15.0927ZM270.685 30.6909L260.98 36.0705L251.822 29.0254L232.968 39.4762L234.152 50.9414L224.447 56.321L219.686 2.39377L227.475 -1.92361L270.685 30.6909ZM244.743 23.2522L229.611 11.1146L231.824 30.4136L244.743 23.2522Z" fill="#FFFCF8" fill-opacity="0.35"/>
<path d="M101.96 264.639L92.2549 270.019L83.0972 262.974L64.2434 273.425L65.427 284.89L55.7219 290.27L50.9611 236.342L58.7499 232.025L101.96 264.639ZM76.0182 257.201L60.8861 245.063L63.0988 264.362L76.0182 257.201ZM127.932 250.243L119.587 254.869L117.359 250.851C111.796 253.935 106.402 254.797 101.177 253.437C95.9287 252.036 91.8656 248.74 88.9874 243.547C86.1091 238.355 85.4665 233.162 87.0595 227.969C88.6753 222.818 92.2649 218.7 97.8283 215.616L95.6011 211.598L103.946 206.972L106.173 210.99C111.778 207.884 117.172 207.021 122.356 208.404C127.604 209.805 131.667 213.101 134.545 218.294C137.424 223.486 138.066 228.679 136.473 233.872C134.899 239.001 131.309 243.118 125.704 246.225L127.932 250.243ZM110.285 218.408L121.593 238.807C124.56 237.162 126.436 234.91 127.221 232.051C128.025 229.127 127.582 226.141 125.891 223.091C124.201 220.041 121.914 218.103 119.032 217.277C116.168 216.386 113.252 216.763 110.285 218.408ZM113.248 243.433L101.94 223.034C99.0142 224.656 97.1494 226.928 96.3457 229.852C95.5649 232.817 95.9968 235.783 97.6415 238.75C99.2862 241.717 101.573 243.655 104.501 244.564C107.406 245.432 110.322 245.055 113.248 243.433ZM160.47 232.207L152.125 236.832L128.14 193.561L136.485 188.936L160.47 232.207ZM196.777 155.515L220.762 198.786L166.674 228.768L142.688 185.497L151.033 180.871L171.25 217.343L185.776 209.29L165.56 172.819L173.905 168.193L194.121 204.665L208.648 196.612L188.432 160.141L196.777 155.515ZM270.685 171.114L260.98 176.493L251.822 169.448L232.968 179.899L234.152 191.364L224.447 196.744L219.686 142.816L227.475 138.499L270.685 171.114ZM244.743 163.675L229.611 151.537L231.824 170.836L244.743 163.675Z" fill="#F55000"/>
<path d="M101.96 405.062L92.2549 410.442L83.0972 403.396L64.2434 413.847L65.427 425.313L55.7219 430.692L50.9611 376.765L58.7499 372.448L101.96 405.062ZM76.0182 397.623L60.8861 385.486L63.0988 404.785L76.0182 397.623ZM127.932 390.666L119.587 395.291L117.359 391.273C111.796 394.357 106.402 395.219 101.177 393.86C95.9287 392.459 91.8656 389.162 88.9874 383.97C86.1091 378.777 85.4665 373.585 87.0595 368.392C88.6753 363.24 92.2649 359.122 97.8283 356.039L95.6011 352.021L103.946 347.395L106.173 351.413C111.778 348.306 117.172 347.444 122.356 348.826C127.604 350.227 131.667 353.524 134.545 358.716C137.424 363.909 138.066 369.102 136.473 374.294C134.899 379.423 131.309 383.541 125.704 386.648L127.932 390.666ZM110.285 358.831L121.593 379.23C124.56 377.585 126.436 375.333 127.221 372.473C128.025 369.55 127.582 366.563 125.891 363.514C124.201 360.464 121.914 358.526 119.032 357.699C116.168 356.809 113.252 357.186 110.285 358.831ZM113.248 383.856L101.94 363.456C99.0142 365.078 97.1494 367.351 96.3457 370.275C95.5649 373.24 95.9968 376.205 97.6415 379.173C99.2862 382.14 101.573 384.078 104.501 384.987C107.406 385.854 110.322 385.477 113.248 383.856ZM160.47 372.629L152.125 377.255L128.14 333.984L136.485 329.358L160.47 372.629ZM196.777 295.938L220.762 339.209L166.674 369.191L142.688 325.92L151.033 321.294L171.25 357.765L185.776 349.713L165.56 313.242L173.905 308.616L194.121 345.087L208.648 337.035L188.432 300.564L196.777 295.938ZM270.685 311.536L260.98 316.916L251.822 309.871L232.968 320.321L234.152 331.787L224.447 337.166L219.686 283.239L227.475 278.922L270.685 311.536ZM244.743 304.098L229.611 291.96L231.824 311.259L244.743 304.098Z" fill="#FFFCF8" fill-opacity="0.35"/>
<path d="M101.96 545.485L92.2549 550.864L83.0972 543.819L64.2434 554.27L65.427 565.735L55.7219 571.115L50.9611 517.188L58.7499 512.87L101.96 545.485ZM76.0182 538.046L60.8861 525.908L63.0988 545.207L76.0182 538.046ZM127.932 531.088L119.587 535.714L117.359 531.696C111.796 534.78 106.402 535.642 101.177 534.282C95.9287 532.882 91.8656 529.585 88.9874 524.392C86.1091 519.2 85.4665 514.007 87.0595 508.814C88.6753 503.663 92.2649 499.545 97.8283 496.461L95.6011 492.443L103.946 487.818L106.173 491.836C111.778 488.729 117.172 487.867 122.356 489.249C127.604 490.65 131.667 493.947 134.545 499.139C137.424 504.332 138.066 509.524 136.473 514.717C134.899 519.846 131.309 523.964 125.704 527.07L127.932 531.088ZM110.285 499.253L121.593 519.653C124.56 518.008 126.436 515.756 127.221 512.896C128.025 509.972 127.582 506.986 125.891 503.936C124.201 500.887 121.914 498.949 119.032 498.122C116.168 497.232 113.252 497.609 110.285 499.253ZM113.248 524.278L101.94 503.879C99.0142 505.501 97.1494 507.774 96.3457 510.697C95.5649 513.662 95.9968 516.628 97.6415 519.595C99.2862 522.563 101.573 524.501 104.501 525.409C107.406 526.277 110.322 525.9 113.248 524.278ZM160.47 513.052L152.125 517.678L128.14 474.407L136.485 469.781L160.47 513.052ZM196.777 436.361L220.762 479.632L166.674 509.613L142.688 466.343L151.033 461.717L171.25 498.188L185.776 490.136L165.56 453.665L173.905 449.039L194.121 485.51L208.648 477.458L188.432 440.986L196.777 436.361ZM270.685 451.959L260.98 457.339L251.822 450.293L232.968 460.744L234.152 472.21L224.447 477.589L219.686 423.662L227.475 419.344L270.685 451.959ZM244.743 444.52L229.611 432.383L231.824 451.682L244.743 444.52Z" fill="#FFFCF8" fill-opacity="0.35"/>
</svg>
