<svg width="320" height="380" viewBox="0 0 320 380" fill="none" xmlns="http://www.w3.org/2000/svg">
<rect y="159.012" width="320" height="220" rx="30" fill="#191A1A"/>
<path d="M42.0764 91.3273L35.6206 94.9058L29.5289 90.2194L16.9873 97.1713L17.7746 104.798L11.3188 108.377L8.15187 72.504L13.333 69.6321L42.0764 91.3273ZM24.8199 86.3791L14.754 78.3051L16.2259 91.1428L24.8199 86.3791ZM59.3529 81.7508L53.8017 84.8279L52.3202 82.1551C48.6194 84.2065 45.0311 84.7799 41.5554 83.8755C38.0644 82.9437 35.3617 80.7507 33.447 77.2967C31.5324 73.8426 31.1049 70.3884 32.1646 66.9341C33.2395 63.5073 35.6273 60.7681 39.3281 58.7168L37.8465 56.044L43.3977 52.9669L44.8793 55.6397C48.6075 53.5731 52.1957 52.9996 55.6441 53.9193C59.135 54.8511 61.8378 57.0441 63.7524 60.4981C65.667 63.9522 66.0945 67.4064 65.0348 70.8607C63.9874 74.2723 61.5995 77.0114 57.8713 79.078L59.3529 81.7508ZM47.6144 60.5741L55.1362 74.1436C57.1099 73.0496 58.358 71.5514 58.8804 69.6492C59.415 67.7044 59.1201 65.7177 57.9956 63.6892C56.8711 61.6606 55.3502 60.3714 53.4328 59.8216C51.5277 59.2292 49.5882 59.48 47.6144 60.5741ZM49.585 77.2207L42.0633 63.6511C40.1169 64.73 38.8764 66.2419 38.3418 68.1867C37.8224 70.1589 38.1098 72.1319 39.2038 74.1056C40.2979 76.0794 41.8188 77.3686 43.7666 77.9732C45.6992 78.5504 47.6386 78.2996 49.585 77.2207ZM80.9977 69.7529L75.4465 72.83L59.4913 44.0461L65.0425 40.969L80.9977 69.7529ZM105.149 18.7377L121.104 47.5216L85.1241 67.4656L69.169 38.6817L74.7201 35.6046L88.1681 59.8653L97.8313 54.5089L84.3833 30.2482L89.9345 27.1711L103.382 51.4319L113.046 46.0755L99.5977 21.8148L105.149 18.7377ZM154.313 29.1137L147.857 32.6922L141.765 28.0058L129.224 34.9577L130.011 42.5844L123.555 46.1629L120.388 10.2903L125.569 7.41841L154.313 29.1137ZM137.056 24.1654L126.99 16.0915L128.462 28.9292L137.056 24.1654Z" fill="#FFFCF8" fill-opacity="0.35"/>
<path d="M42.0764 184.737L35.6206 188.315L29.5289 183.629L16.9873 190.581L17.7746 198.208L11.3188 201.786L8.15187 165.914L13.333 163.042L42.0764 184.737ZM24.8199 179.789L14.754 171.715L16.2259 184.552L24.8199 179.789ZM59.3529 175.16L53.8017 178.237L52.3202 175.565C48.6194 177.616 45.0311 178.189 41.5554 177.285C38.0644 176.353 35.3617 174.16 33.447 170.706C31.5324 167.252 31.1049 163.798 32.1646 160.344C33.2395 156.917 35.6273 154.178 39.3281 152.126L37.8465 149.454L43.3977 146.376L44.8793 149.049C48.6075 146.983 52.1957 146.409 55.6441 147.329C59.135 148.261 61.8378 150.454 63.7524 153.908C65.667 157.362 66.0945 160.816 65.0348 164.27C63.9874 167.682 61.5995 170.421 57.8713 172.488L59.3529 175.16ZM47.6144 153.984L55.1362 167.553C57.1099 166.459 58.358 164.961 58.8804 163.059C59.415 161.114 59.1201 159.127 57.9956 157.099C56.8711 155.07 55.3502 153.781 53.4328 153.231C51.5277 152.639 49.5882 152.89 47.6144 153.984ZM49.585 170.63L42.0633 157.061C40.1169 158.14 38.8764 159.651 38.3418 161.596C37.8224 163.568 38.1098 165.541 39.2038 167.515C40.2979 169.489 41.8188 170.778 43.7666 171.383C45.6992 171.96 47.6386 171.709 49.585 170.63ZM80.9977 163.162L75.4465 166.24L59.4913 137.456L65.0425 134.379L80.9977 163.162ZM105.149 112.147L121.104 140.931L85.1241 160.875L69.169 132.091L74.7201 129.014L88.1681 153.275L97.8313 147.918L84.3833 123.658L89.9345 120.581L103.382 144.841L113.046 139.485L99.5977 115.224L105.149 112.147ZM154.313 122.523L147.857 126.102L141.765 121.415L129.224 128.367L130.011 135.994L123.555 139.572L120.388 103.7L125.569 100.828L154.313 122.523ZM137.056 117.575L126.99 109.501L128.462 122.339L137.056 117.575Z" fill="#FFFCF8" fill-opacity="0.35"/>
<path d="M42.0764 278.146L35.6206 281.725L29.5289 277.039L16.9873 283.99L17.7746 291.617L11.3188 295.196L8.15187 259.323L13.333 256.451L42.0764 278.146ZM24.8199 273.198L14.754 265.124L16.2259 277.962L24.8199 273.198ZM59.3529 268.57L53.8017 271.647L52.3202 268.974C48.6194 271.026 45.0311 271.599 41.5554 270.695C38.0644 269.763 35.3617 267.57 33.447 264.116C31.5324 260.662 31.1049 257.208 32.1646 253.753C33.2395 250.326 35.6273 247.587 39.3281 245.536L37.8465 242.863L43.3977 239.786L44.8793 242.459C48.6075 240.392 52.1957 239.819 55.6441 240.738C59.135 241.67 61.8378 243.863 63.7524 247.317C65.667 250.771 66.0945 254.226 65.0348 257.68C63.9874 261.091 61.5995 263.831 57.8713 265.897L59.3529 268.57ZM47.6144 247.393L55.1362 260.963C57.1099 259.869 58.358 258.371 58.8804 256.468C59.415 254.524 59.1201 252.537 57.9956 250.508C56.8711 248.48 55.3502 247.191 53.4328 246.641C51.5277 246.048 49.5882 246.299 47.6144 247.393ZM49.585 264.04L42.0633 250.47C40.1169 251.549 38.8764 253.061 38.3418 255.006C37.8224 256.978 38.1098 258.951 39.2038 260.925C40.2979 262.899 41.8188 264.188 43.7666 264.792C45.6992 265.37 47.6386 265.119 49.585 264.04ZM80.9977 256.572L75.4465 259.649L59.4913 230.865L65.0425 227.788L80.9977 256.572ZM105.149 205.557L121.104 234.341L85.1241 254.285L69.169 225.501L74.7201 222.424L88.1681 246.684L97.8313 241.328L84.3833 217.067L89.9345 213.99L103.382 238.251L113.046 232.895L99.5977 208.634L105.149 205.557ZM154.313 215.933L147.857 219.511L141.765 214.825L129.224 221.777L130.011 229.404L123.555 232.982L120.388 197.109L125.569 194.238L154.313 215.933ZM137.056 210.985L126.99 202.911L128.462 215.748L137.056 210.985Z" fill="#F55000"/>
<path d="M42.0764 371.556L35.6206 375.135L29.5289 370.448L16.9873 377.4L17.7746 385.027L11.3188 388.605L8.15187 352.733L13.333 349.861L42.0764 371.556ZM24.8199 366.608L14.754 358.534L16.2259 371.372L24.8199 366.608ZM59.3529 361.98L53.8017 365.057L52.3202 362.384C48.6194 364.435 45.0311 365.009 41.5554 364.104C38.0644 363.172 35.3617 360.979 33.447 357.525C31.5324 354.071 31.1049 350.617 32.1646 347.163C33.2395 343.736 35.6273 340.997 39.3281 338.945L37.8465 336.273L43.3977 333.196L44.8793 335.868C48.6075 333.802 52.1957 333.228 55.6441 334.148C59.135 335.08 61.8378 337.273 63.7524 340.727C65.667 344.181 66.0945 347.635 65.0348 351.089C63.9874 354.501 61.5995 357.24 57.8713 359.307L59.3529 361.98ZM47.6144 340.803L55.1362 354.372C57.1099 353.278 58.358 351.78 58.8804 349.878C59.415 347.933 59.1201 345.946 57.9956 343.918C56.8711 341.889 55.3502 340.6 53.4328 340.05C51.5277 339.458 49.5882 339.709 47.6144 340.803ZM49.585 357.449L42.0633 343.88C40.1169 344.959 38.8764 346.471 38.3418 348.415C37.8224 350.388 38.1098 352.361 39.2038 354.334C40.2979 356.308 41.8188 357.597 43.7666 358.202C45.6992 358.779 47.6386 358.528 49.585 357.449ZM80.9977 349.982L75.4465 353.059L59.4913 324.275L65.0425 321.198L80.9977 349.982ZM105.149 298.966L121.104 327.75L85.1241 347.694L69.169 318.91L74.7201 315.833L88.1681 340.094L97.8313 334.738L84.3833 310.477L89.9345 307.4L103.382 331.661L113.046 326.304L99.5977 302.043L105.149 298.966ZM154.313 309.342L147.857 312.921L141.765 308.234L129.224 315.186L130.011 322.813L123.555 326.392L120.388 290.519L125.569 287.647L154.313 309.342ZM137.056 304.394L126.99 296.32L128.462 309.158L137.056 304.394Z" fill="#FFFCF8" fill-opacity="0.35"/>
<path d="M42.0764 464.966L35.6206 468.544L29.5289 463.858L16.9873 470.81L17.7746 478.436L11.3188 482.015L8.15187 446.142L13.333 443.27L42.0764 464.966ZM24.8199 460.017L14.754 451.943L16.2259 464.781L24.8199 460.017ZM59.3529 455.389L53.8017 458.466L52.3202 455.793C48.6194 457.845 45.0311 458.418 41.5554 457.514C38.0644 456.582 35.3617 454.389 33.447 450.935C31.5324 447.481 31.1049 444.027 32.1646 440.572C33.2395 437.146 35.6273 434.407 39.3281 432.355L37.8465 429.682L43.3977 426.605L44.8793 429.278C48.6075 427.211 52.1957 426.638 55.6441 427.558C59.135 428.489 61.8378 430.682 63.7524 434.136C65.667 437.591 66.0945 441.045 65.0348 444.499C63.9874 447.911 61.5995 450.65 57.8713 452.716L59.3529 455.389ZM47.6144 434.212L55.1362 447.782C57.1099 446.688 58.358 445.19 58.8804 443.288C59.415 441.343 59.1201 439.356 57.9956 437.328C56.8711 435.299 55.3502 434.01 53.4328 433.46C51.5277 432.868 49.5882 433.118 47.6144 434.212ZM49.585 450.859L42.0633 437.29C40.1169 438.368 38.8764 439.88 38.3418 441.825C37.8224 443.797 38.1098 445.77 39.2038 447.744C40.2979 449.718 41.8188 451.007 43.7666 451.612C45.6992 452.189 47.6386 451.938 49.585 450.859ZM80.9977 443.391L75.4465 446.468L59.4913 417.684L65.0425 414.607L80.9977 443.391ZM105.149 392.376L121.104 421.16L85.1241 441.104L69.169 412.32L74.7201 409.243L88.1681 433.504L97.8313 428.147L84.3833 403.887L89.9345 400.81L103.382 425.07L113.046 419.714L99.5977 395.453L105.149 392.376ZM154.313 402.752L147.857 406.331L141.765 401.644L129.224 408.596L130.011 416.223L123.555 419.801L120.388 383.929L125.569 381.057L154.313 402.752ZM137.056 397.804L126.99 389.73L128.462 402.568L137.056 397.804Z" fill="#FFFCF8" fill-opacity="0.35"/>
<path d="M213.076 137.327L206.621 140.906L200.529 136.219L187.987 143.171L188.775 150.798L182.319 154.377L179.152 118.504L184.333 115.632L213.076 137.327ZM195.82 132.379L185.754 124.305L187.226 137.143L195.82 132.379ZM230.353 127.751L224.802 130.828L223.32 128.155C219.619 130.206 216.031 130.78 212.555 129.876C209.064 128.944 206.362 126.751 204.447 123.297C202.532 119.843 202.105 116.388 203.165 112.934C204.239 109.507 206.627 106.768 210.328 104.717L208.847 102.044L214.398 98.9669L215.879 101.64C219.607 99.5731 223.196 98.9996 226.644 99.9193C230.135 100.851 232.838 103.044 234.752 106.498C236.667 109.952 237.094 113.406 236.035 116.861C234.987 120.272 232.6 123.011 228.871 125.078L230.353 127.751ZM218.614 106.574L226.136 120.144C228.11 119.05 229.358 117.551 229.88 115.649C230.415 113.704 230.12 111.718 228.996 109.689C227.871 107.661 226.35 106.371 224.433 105.822C222.528 105.229 220.588 105.48 218.614 106.574ZM220.585 123.221L213.063 109.651C211.117 110.73 209.876 112.242 209.342 114.187C208.822 116.159 209.11 118.132 210.204 120.106C211.298 122.079 212.819 123.369 214.767 123.973C216.699 124.55 218.639 124.3 220.585 123.221ZM251.998 115.753L246.447 118.83L230.491 90.0461L236.043 86.969L251.998 115.753ZM276.149 64.7377L292.104 93.5216L256.124 113.466L240.169 84.6817L245.72 81.6046L259.168 105.865L268.831 100.509L255.383 76.2482L260.934 73.1711L274.382 97.4319L284.046 92.0755L270.598 67.8148L276.149 64.7377ZM325.313 75.1137L318.857 78.6922L312.765 74.0058L300.224 80.9577L301.011 88.5844L294.555 92.1629L291.388 56.2903L296.569 53.4184L325.313 75.1137ZM308.056 70.1654L297.99 62.0915L299.462 74.9292L308.056 70.1654Z" fill="#FFFCF8" fill-opacity="0.35"/>
<path d="M213.076 230.737L206.621 234.315L200.529 229.629L187.987 236.581L188.775 244.208L182.319 247.786L179.152 211.914L184.333 209.042L213.076 230.737ZM195.82 225.789L185.754 217.715L187.226 230.552L195.82 225.789ZM230.353 221.16L224.802 224.237L223.32 221.565C219.619 223.616 216.031 224.189 212.555 223.285C209.064 222.353 206.362 220.16 204.447 216.706C202.532 213.252 202.105 209.798 203.165 206.344C204.239 202.917 206.627 200.178 210.328 198.126L208.847 195.454L214.398 192.376L215.879 195.049C219.607 192.983 223.196 192.409 226.644 193.329C230.135 194.261 232.838 196.454 234.752 199.908C236.667 203.362 237.094 206.816 236.035 210.27C234.987 213.682 232.6 216.421 228.871 218.488L230.353 221.16ZM218.614 199.984L226.136 213.553C228.11 212.459 229.358 210.961 229.88 209.059C230.415 207.114 230.12 205.127 228.996 203.099C227.871 201.07 226.35 199.781 224.433 199.231C222.528 198.639 220.588 198.89 218.614 199.984ZM220.585 216.63L213.063 203.061C211.117 204.14 209.876 205.651 209.342 207.596C208.822 209.568 209.11 211.541 210.204 213.515C211.298 215.489 212.819 216.778 214.767 217.383C216.699 217.96 218.639 217.709 220.585 216.63ZM251.998 209.162L246.447 212.24L230.491 183.456L236.043 180.379L251.998 209.162ZM276.149 158.147L292.104 186.931L256.124 206.875L240.169 178.091L245.72 175.014L259.168 199.275L268.831 193.918L255.383 169.658L260.934 166.581L274.382 190.841L284.046 185.485L270.598 161.224L276.149 158.147ZM325.313 168.523L318.857 172.102L312.765 167.415L300.224 174.367L301.011 181.994L294.555 185.572L291.388 149.7L296.569 146.828L325.313 168.523ZM308.056 163.575L297.99 155.501L299.462 168.339L308.056 163.575Z" fill="#FFFCF8" fill-opacity="0.35"/>
<path d="M213.076 324.146L206.621 327.725L200.529 323.039L187.987 329.99L188.775 337.617L182.319 341.196L179.152 305.323L184.333 302.451L213.076 324.146ZM195.82 319.198L185.754 311.124L187.226 323.962L195.82 319.198ZM230.353 314.57L224.802 317.647L223.32 314.974C219.619 317.026 216.031 317.599 212.555 316.695C209.064 315.763 206.362 313.57 204.447 310.116C202.532 306.662 202.105 303.208 203.165 299.753C204.239 296.326 206.627 293.587 210.328 291.536L208.847 288.863L214.398 285.786L215.879 288.459C219.607 286.392 223.196 285.819 226.644 286.738C230.135 287.67 232.838 289.863 234.752 293.317C236.667 296.771 237.094 300.226 236.035 303.68C234.987 307.091 232.6 309.831 228.871 311.897L230.353 314.57ZM218.614 293.393L226.136 306.963C228.11 305.869 229.358 304.371 229.88 302.468C230.415 300.524 230.12 298.537 228.996 296.508C227.871 294.48 226.35 293.191 224.433 292.641C222.528 292.048 220.588 292.299 218.614 293.393ZM220.585 310.04L213.063 296.47C211.117 297.549 209.876 299.061 209.342 301.006C208.822 302.978 209.11 304.951 210.204 306.925C211.298 308.899 212.819 310.188 214.767 310.792C216.699 311.37 218.639 311.119 220.585 310.04ZM251.998 302.572L246.447 305.649L230.491 276.865L236.043 273.788L251.998 302.572ZM276.149 251.557L292.104 280.341L256.124 300.285L240.169 271.501L245.72 268.424L259.168 292.684L268.831 287.328L255.383 263.067L260.934 259.99L274.382 284.251L284.046 278.895L270.598 254.634L276.149 251.557ZM325.313 261.933L318.857 265.511L312.765 260.825L300.224 267.777L301.011 275.404L294.555 278.982L291.388 243.109L296.569 240.238L325.313 261.933ZM308.056 256.985L297.99 248.911L299.462 261.748L308.056 256.985Z" fill="#F55000"/>
<path d="M213.076 417.556L206.621 421.135L200.529 416.448L187.987 423.4L188.775 431.027L182.319 434.605L179.152 398.733L184.333 395.861L213.076 417.556ZM195.82 412.608L185.754 404.534L187.226 417.372L195.82 412.608ZM230.353 407.98L224.802 411.057L223.32 408.384C219.619 410.435 216.031 411.009 212.555 410.104C209.064 409.172 206.362 406.979 204.447 403.525C202.532 400.071 202.105 396.617 203.165 393.163C204.239 389.736 206.627 386.997 210.328 384.945L208.847 382.273L214.398 379.196L215.879 381.868C219.607 379.802 223.196 379.228 226.644 380.148C230.135 381.08 232.838 383.273 234.752 386.727C236.667 390.181 237.094 393.635 236.035 397.089C234.987 400.501 232.6 403.24 228.871 405.307L230.353 407.98ZM218.614 386.803L226.136 400.372C228.11 399.278 229.358 397.78 229.88 395.878C230.415 393.933 230.12 391.946 228.996 389.918C227.871 387.889 226.35 386.6 224.433 386.05C222.528 385.458 220.588 385.709 218.614 386.803ZM220.585 403.449L213.063 389.88C211.117 390.959 209.876 392.471 209.342 394.415C208.822 396.388 209.11 398.361 210.204 400.334C211.298 402.308 212.819 403.597 214.767 404.202C216.699 404.779 218.639 404.528 220.585 403.449ZM251.998 395.982L246.447 399.059L230.491 370.275L236.043 367.198L251.998 395.982ZM276.149 344.966L292.104 373.75L256.124 393.694L240.169 364.91L245.72 361.833L259.168 386.094L268.831 380.738L255.383 356.477L260.934 353.4L274.382 377.661L284.046 372.304L270.598 348.043L276.149 344.966ZM325.313 355.342L318.857 358.921L312.765 354.234L300.224 361.186L301.011 368.813L294.555 372.392L291.388 336.519L296.569 333.647L325.313 355.342ZM308.056 350.394L297.99 342.32L299.462 355.158L308.056 350.394Z" fill="#FFFCF8" fill-opacity="0.35"/>
</svg>
