<svg width="128" height="35" viewBox="0 0 128 35" fill="none" xmlns="http://www.w3.org/2000/svg">
<path d="M127.438 20.267C127.438 16.4428 127.258 12.6099 127.491 8.7975C127.711 5.17029 124.046 1.1786 120.004 1.53133C118.07 1.69887 116.109 1.55778 114.16 1.55778C108.631 1.55778 103.102 1.5813 97.5735 1.54014C96.4007 1.53133 95.898 1.91933 95.9803 3.08332C96.0362 3.8799 95.9862 4.68235 95.9921 5.4848C96.0039 7.20728 96.0685 7.27783 97.8498 7.28077C103.426 7.28665 108.999 7.28077 114.575 7.29253C115.107 7.29253 115.804 7.15732 116.062 7.69229C116.333 8.25077 115.751 8.64465 115.377 9.0209C112.088 12.3277 108.793 15.6257 105.51 18.9355C105.134 19.3146 104.843 19.7791 104.469 20.1582C103.881 20.7549 104.072 21.2047 104.596 21.7396C105.848 23.0212 107.271 24.1411 108.338 25.5961C108.637 26.0047 108.97 26.0106 109.34 25.6137C112.829 21.8866 116.374 18.2124 120.033 14.6469C120.224 14.4588 120.398 14.2501 120.557 14.0355C120.815 13.6828 121.045 13.1272 121.541 13.2889C122.064 13.4564 121.853 14.0619 121.856 14.4735C121.87 19.8085 121.838 25.1464 121.876 30.4814C121.909 34.8082 121.197 34.1233 125.701 34.1762C127.347 34.1968 127.438 34.088 127.441 32.4096C127.449 28.3621 127.441 24.3175 127.441 20.2699L127.438 20.267Z" fill="#191A1A"/>
<path d="M0.726318 0.914062H3.63044C5.32353 0.914062 6.47576 1.82233 6.47576 3.22736C6.47576 4.10918 6.00547 4.78524 5.25004 5.14385C6.34056 5.46424 7.04895 6.28139 7.04895 7.39248C7.04895 8.90039 5.82323 9.85862 4.02432 9.85862H0.726318V0.914062ZM3.55401 1.78119H1.9344V4.80875H3.55401C4.59749 4.80875 5.29414 4.20912 5.29414 3.30085C5.29414 2.39257 4.59749 1.78119 3.55401 1.78119ZM3.97728 5.67881H1.9344V9.00033H3.97728C5.11189 9.00033 5.86731 8.33602 5.86731 7.32487C5.86731 6.31372 5.11189 5.67588 3.97728 5.67588V5.67881Z" fill="#191A1A"/>
<path d="M4.02434 10.0966H0.5V0.675903H3.63046C5.46758 0.675903 6.69918 1.70175 6.69918 3.22729C6.69918 3.99741 6.37291 4.65584 5.78504 5.09381C6.72564 5.53471 7.27531 6.36362 7.27531 7.39241C7.27531 9.00908 5.96728 10.0966 4.02434 10.0966ZM0.949735 9.62046H4.0214C5.72331 9.62046 6.82263 8.74453 6.82263 7.39241C6.82263 6.42829 6.21124 5.67287 5.18833 5.37305L4.5887 5.19669L5.156 4.9292C5.86146 4.59705 6.24946 3.99153 6.24946 3.22729C6.24946 1.96629 5.22067 1.15208 3.63046 1.15208H0.952678V9.62341L0.949735 9.62046ZM3.9773 9.23835H1.7081V5.44065H3.9773C5.24418 5.44065 6.09367 6.19902 6.09367 7.32774C6.09367 8.45647 5.24418 9.23835 3.9773 9.23835ZM2.16076 8.7651H3.9773C4.98845 8.7651 5.64393 8.20074 5.64393 7.32774C5.64393 6.45475 4.99139 5.91683 3.9773 5.91683H2.16076V8.7651ZM3.55403 5.04677H1.71105V1.54303H3.55403C4.72979 1.54303 5.52048 2.24847 5.52048 3.30078C5.52048 4.35308 4.72979 5.04677 3.55403 5.04677ZM2.16076 4.57354H3.55403C4.47406 4.57354 5.06782 4.07384 5.06782 3.30372C5.06782 2.5336 4.47406 2.01921 3.55403 2.01921H2.16076V4.57354Z" fill="#191A1A"/>
<path d="M17.6837 0.914062V9.85862H16.505V2.79234L10.0736 9.85862H9.28589V0.914062H10.4499V7.98036L16.8813 0.914062H17.6837Z" fill="#191A1A"/>
<path d="M17.9101 10.0966H16.2787V3.38308L10.1707 10.0966H9.0625V0.675903H10.6792V7.38947L16.7872 0.675903H17.9101V10.0966ZM16.7284 9.62046H17.4574V1.14914H16.9783L10.2265 8.5711V1.14914H9.51224V9.62046H9.97666L16.7284 2.19851V9.62046Z" fill="#191A1A"/>
<path d="M20.2705 9.85862V0.914062H21.4345V9.02972H26.0494V0.914062H27.2281V9.02972H31.8429V0.914062H33.0069V9.02972H34.0651V12.0338H32.9746V9.86157H20.2646L20.2705 9.85862Z" fill="#191A1A"/>
<path d="M34.2943 12.2689H32.7541V10.0966H20.0442V0.675903H21.6609V8.79155H25.823V0.675903H27.4544V8.79155H31.6166V0.675903H33.2332V8.79155H34.2914V12.2689H34.2943ZM33.2068 11.7927H33.8446V9.2648H32.7864V1.14914H32.0722V9.2648H27.0076V1.14914H26.2786V9.2648H21.2141V1.14914H20.4998V9.62046H33.2097V11.7927H33.2068Z" fill="#191A1A"/>
<path d="M42.8271 7.30136H37.8948L36.6544 9.85862H35.2935L39.8172 0.914062H40.9224L45.4314 9.85862H44.0852L42.83 7.30136H42.8271ZM38.3181 6.40778H42.4038L40.3757 2.178L38.3181 6.40778Z" fill="#191A1A"/>
<path d="M45.805 10.0966H43.9473L42.6922 7.53938H38.0362L36.7957 10.0966H34.9204L39.6852 0.675903H41.0608L45.8079 10.0966H45.805ZM44.2206 9.62046H45.0554L40.7874 1.14914H39.9556L35.6729 9.62046H36.5194L37.7599 7.0632H42.9685L44.2236 9.62046H44.2206ZM42.7715 6.6458H37.9509L40.3789 1.65472L42.7715 6.6458ZM38.6887 6.16962H42.0396L40.3759 2.70115L38.6887 6.16962Z" fill="#191A1A"/>
<path d="M0.726331 21.9042V12.9596H1.89034V21.0752H6.50518V12.9596H7.68386V21.0752H12.2987V12.9596H13.4627V21.9042H0.723389H0.726331Z" fill="#191A1A"/>
<path d="M16.0054 12.9596H17.1841V21.9042H16.0054V12.9596ZM17.3222 17.3158L21.6784 12.9596H23.1452L18.8037 17.3158L23.4949 21.9042H21.9812L17.3222 17.3158Z" fill="#191A1A"/>
<path d="M29.7557 12.8685C32.9038 12.8685 35.0349 14.7203 35.0349 17.4305C35.0349 20.1406 32.9009 22.0042 29.7557 22.0042C26.6106 22.0042 24.4766 20.1523 24.4766 17.4305C24.4766 14.7086 26.6106 12.8685 29.7557 12.8685ZM29.7557 21.1106C32.1778 21.1106 33.8268 19.6144 33.8268 17.4305C33.8268 15.2465 32.1778 13.7621 29.7557 13.7621C27.3337 13.7621 25.6847 15.2583 25.6847 17.4305C25.6847 19.6027 27.3484 21.1106 29.7557 21.1106Z" fill="#191A1A"/>
<path d="M36.158 21.2663C37.3073 21.2663 37.9422 20.5109 37.9422 19.2205V12.9596H44.4029V21.9042H43.1919V13.7885H39.1532V19.1676C39.1532 20.8283 38.2302 21.9659 36.9281 21.9659C36.687 21.9659 36.3226 21.9394 36.158 21.9012V21.2634V21.2663Z" fill="#191A1A"/>
<path d="M53.7646 19.3469H48.8323L47.5919 21.9042H46.231L50.7547 12.9596H51.8599L56.3689 21.9042H55.0227L53.7676 19.3469H53.7646ZM49.2585 18.4533H53.3443L51.3161 14.2235L49.2585 18.4533Z" fill="#191A1A"/>
<path d="M9.50041 27.0481L5.96137 31.904H5.44698L1.89032 27.0481V33.9498H0.726318V25.0052H1.6199L5.70565 30.5137L9.7914 25.0052H10.685V33.9498H9.50627V27.0481H9.50041Z" fill="#191A1A"/>
<path d="M20.0442 31.3925H15.1119L13.8714 33.9498H12.5105L17.0342 25.0052H18.1394L22.6485 33.9498H21.3022L20.0471 31.3925H20.0442ZM15.5351 30.499H19.6209L17.5927 26.2692L15.5351 30.499Z" fill="#191A1A"/>
<path d="M24.4912 25.0052H27.3659C29.2119 25.0052 30.4523 25.9899 30.4523 27.5214C30.4523 29.0528 29.2119 30.0257 27.3659 30.0257H25.7022V33.9498H24.4912V25.0052ZM27.3659 25.8724H25.7022V29.1557H27.3659C28.4858 29.1557 29.2413 28.5031 29.2413 27.5214C29.2413 26.5396 28.4858 25.8724 27.3659 25.8724Z" fill="#191A1A"/>
<path d="M32.616 25.0053H33.7947V33.9498H32.616V25.0053ZM33.9328 29.3614L38.289 25.0023H39.7558L35.4143 29.3614L40.1055 33.9498H38.5918L33.9328 29.3614Z" fill="#191A1A"/>
<path d="M43.174 29.0294H47.1069V29.8612H43.174V33.121H47.683V33.9529H42.01V25.0083H47.6066V25.8401H43.174V29.0353V29.0294Z" fill="#191A1A"/>
<path d="M53.5089 33.9498H52.3449V25.8342H49.3203V25.0023H56.5365V25.8342H53.5119V33.9498H53.5089Z" fill="#191A1A"/>
<path d="M66.9889 25.0052V33.9498H65.8102V26.8835L59.3788 33.9498H58.5911V25.0052H59.7551V32.0715L66.1865 25.0052H66.9889Z" fill="#191A1A"/>
<path d="M70.7397 29.0293H76.5656V25.0023H77.7443V33.9469H76.5656V29.8582H70.7397V33.9469H69.5757V25.0023H70.7397V29.0293Z" fill="#191A1A"/>
<path d="M80.3311 25.0052H85.6249V25.8371H81.4951V33.9528H80.3311V25.0082V25.0052Z" fill="#191A1A"/>
<path d="M90.075 33.9498H88.8052L90.6218 31.1398L86.9446 25.0052H88.1997L91.1802 29.9905L94.1314 25.0052H95.4012L90.075 33.9498Z" fill="#191A1A"/>
</svg>
