<svg width="159" height="36" viewBox="0 0 159 36" fill="none" xmlns="http://www.w3.org/2000/svg">
<rect width="159" height="36" fill="#F5F5F5"/>
<g clip-path="url(#clip0_6_2717)">
<rect width="1920" height="6855" transform="translate(-200 -32)" fill="#FFFCF8"/>
<rect width="1920" height="100" transform="translate(-200 -32)" fill="#191A1A"/>
<path d="M158.931 20.2011C158.931 16.0826 158.722 11.9512 158.989 7.85236C159.243 3.94898 155.008 -0.351904 150.335 0.026052C148.1 0.208514 145.832 0.0586663 143.578 0.0586663C137.185 0.0586663 130.792 0.0847131 124.4 0.0390977C123.044 0.0325812 122.464 0.449668 122.555 1.70083C122.621 2.56101 122.555 3.42117 122.569 4.28786C122.582 6.14506 122.66 6.22324 124.719 6.22324C131.164 6.22975 137.609 6.22325 144.06 6.23628C144.672 6.23628 145.48 6.09286 145.78 6.66631C146.093 7.26583 145.422 7.69588 144.985 8.09338C141.18 11.6514 137.374 15.2095 133.575 18.774C133.138 19.1845 132.806 19.6798 132.369 20.0903C131.692 20.7355 131.913 21.2176 132.519 21.7976C133.966 23.1791 135.608 24.3847 136.846 25.9487C137.191 26.3918 137.576 26.3918 138.006 25.9682C142.04 21.9541 146.139 17.9985 150.374 14.1537C150.596 13.9517 150.798 13.7302 150.98 13.4956C151.28 13.1111 151.541 12.5181 152.121 12.6875C152.727 12.87 152.479 13.5216 152.486 13.9647C152.505 19.7123 152.466 25.4598 152.512 31.2008C152.551 35.8601 151.73 35.1238 156.936 35.1759C158.839 35.1955 158.944 35.0848 158.95 33.2732C158.957 28.9136 158.95 24.5606 158.95 20.2011H158.931Z" fill="#FFFCF8"/>
<path d="M12.642 35.0457H0V0H11.3257C14.5187 0 17.2687 0.91234 19.2758 2.63921C20.2989 3.51893 21.0873 4.58102 21.6282 5.79309C22.1756 7.01818 22.4493 8.37373 22.4493 9.82691C22.4493 12.4205 21.5305 14.6882 19.8622 16.3564C20.8527 16.982 21.7064 17.7573 22.3972 18.6566C23.6809 20.3314 24.3651 22.4103 24.3651 24.6715C24.3651 26.2094 24.0719 27.6429 23.4984 28.9397C22.9315 30.2234 22.0909 31.3443 21.0157 32.2696C18.9043 34.0877 16.0045 35.0457 12.6355 35.0457H12.642ZM3.25824 31.8721H4.04023V3.17997H3.25824V31.8721ZM18.3309 19.178C19.6602 20.4878 20.4357 22.3125 20.4357 24.4433C20.4357 25.5316 20.2467 26.5481 19.8688 27.48C19.4908 28.4183 18.9304 29.2329 18.2071 29.9171C17.3795 30.6926 16.3825 31.2661 15.2486 31.605C16.6822 31.2922 17.9073 30.7188 18.8718 29.8847C20.338 28.6205 21.1199 26.8154 21.1199 24.665C21.1199 23.0749 20.6768 21.6934 19.8036 20.553C19.3996 20.0252 18.9043 19.5624 18.3374 19.1714L18.3309 19.178ZM7.29847 28.8224H12.4856C13.9127 28.8224 15.1052 28.4118 15.9328 27.6364C16.7409 26.8739 17.1709 25.7662 17.1709 24.4499C17.1709 23.1335 16.7474 22.0974 15.9393 21.348C15.1117 20.5725 13.9192 20.1685 12.4856 20.1685H7.29847V28.8289V28.8224ZM12.3357 16.982H12.4921C12.4921 16.982 12.5312 16.982 12.5508 16.982L12.642 16.9363C12.5443 16.9559 12.4465 16.969 12.3422 16.982H12.3357ZM12.9808 3.29086C14.3167 3.57107 15.4766 4.15097 16.4085 5.01766C17.7835 6.29489 18.5133 8.05438 18.5133 10.1071C18.5133 11.9056 17.9073 13.5347 16.7995 14.7598C18.3504 13.652 19.1911 11.9383 19.1911 9.83343C19.1911 7.85894 18.4742 6.19715 17.1188 5.02418C16.0566 4.10536 14.6425 3.51893 12.9808 3.29086ZM11.0715 13.8867C12.3552 13.8867 13.4239 13.5282 14.1603 12.8505C14.8706 12.1923 15.2486 11.2409 15.2486 10.1071C15.2486 8.97321 14.8706 7.98268 14.1538 7.318C13.4239 6.63377 12.3552 6.2753 11.065 6.2753H7.29195V13.8867H11.0715Z" fill="#FFFCF8"/>
<path d="M12.9808 3.29086C14.3167 3.57107 15.4766 4.15097 16.4085 5.01766C17.7835 6.29489 18.5133 8.05438 18.5133 10.1071C18.5133 11.9056 17.9073 13.5347 16.7995 14.7598C18.3504 13.652 19.1911 11.9383 19.1911 9.83343C19.1911 7.85894 18.4742 6.19715 17.1188 5.02418C16.0566 4.10536 14.6425 3.51893 12.9808 3.29086Z" fill="#FFFCF8"/>
<path d="M18.3309 19.178C19.6602 20.4878 20.4357 22.3125 20.4357 24.4433C20.4357 25.5316 20.2467 26.5481 19.8688 27.48C19.4908 28.4183 18.9304 29.2329 18.2071 29.9171C17.3795 30.6926 16.3825 31.2661 15.2486 31.605C16.6822 31.2922 17.9073 30.7188 18.8718 29.8847C20.338 28.6205 21.1199 26.8154 21.1199 24.665C21.1199 23.0749 20.6768 21.6934 19.8036 20.553C19.3996 20.0252 18.9043 19.5624 18.3374 19.1714L18.3309 19.178Z" fill="#FFFCF8"/>
<path d="M3.25824 31.8721H4.04023V3.17997H3.25824V31.8721Z" fill="#FFFCF8"/>
<path fill-rule="evenodd" clip-rule="evenodd" d="M72.0723 35.0457H26.2288L33.0581 0H40.2653L34.609 28.9072H46.6971L52.3534 0H59.6128L53.9565 28.9072H66.0445L71.7009 0H78.9081L72.0788 35.0457H72.0723ZM69.3745 31.8721H68.7815H68.7749L74.3921 3.17997H74.9656L69.3745 31.8721ZM50.0661 31.8721H49.4471L55.0643 3.17997H55.6833L50.0661 31.8721ZM30.7122 31.8721H30.1648L35.7559 3.17997H36.3294L30.7122 31.8721Z" fill="#FFFCF8"/>
<path d="M49.4471 31.8721H50.0661L55.6833 3.17997H55.0643L49.4471 31.8721Z" fill="#FFFCF8"/>
<path d="M68.7815 31.8721H69.3745L74.9656 3.17997H74.3921L68.7749 31.8721H68.7815Z" fill="#FFFCF8"/>
<path d="M30.1648 31.8721H30.7122L36.3294 3.17997H35.7559L30.1648 31.8721Z" fill="#FFFCF8"/>
<path d="M116.247 35.0457H109.047V14.1212L99.7282 27.7603H96.2679L86.8972 14.1016V35.0457H79.7487V0H85.2225L97.9948 18.3765L110.767 0H116.241V35.0457H116.247ZM112.305 31.8721H112.989V3.17997H112.501L98.0013 24.0458L83.5022 3.17997H83.0134V31.8721H83.6455V3.64277L98.0013 24.5671L112.312 3.6232V31.8721H112.305Z" fill="#FFFCF8"/>
<path d="M112.312 31.8721H112.989V3.17997H112.501L98.0013 24.0458L83.5022 3.17997H83.0134V31.8721H83.6455V3.64277L98.0013 24.5671L112.312 3.6232V31.8721Z" fill="#FFFCF8"/>
</g>
<defs>
<clipPath id="clip0_6_2717">
<rect width="1920" height="6855" fill="white" transform="translate(-200 -32)"/>
</clipPath>
</defs>
</svg>
