<svg width="795" height="375" viewBox="0 0 795 375" fill="none" xmlns="http://www.w3.org/2000/svg">
<path d="M763.015 576.279C762.69 575.721 762.062 575.605 761.527 575.442C756.715 573.745 751.88 572.071 747.068 570.374C714.919 559.1 682.771 547.872 650.668 536.505C618.566 525.138 586.418 513.818 554.456 502.172C536.278 495.57 518.215 488.666 500.13 481.878C487.089 476.973 473.932 472.371 460.566 468.349C448.595 464.746 436.507 461.678 424.21 459.47C410.332 456.982 396.315 455.564 382.205 455.029C360.54 454.239 338.945 455.61 317.419 458.586C305.053 460.306 292.78 462.678 280.552 465.188C255.005 470.418 229.435 475.486 203.795 480.158C187.128 483.203 170.414 486.062 153.7 488.642C137.545 491.13 121.482 494.175 105.443 497.337C89.3105 500.498 73.1551 503.683 57.0227 506.798C52.3503 507.705 47.6548 508.449 42.9824 509.309C39.3793 509.936 35.729 510.377 32.0795 510.679C27.9417 511.005 23.8042 511.423 19.6665 511.749C18.8993 511.819 18.0863 511.842 17.3192 511.726C16.2034 511.54 15.2959 510.958 14.9472 509.819C14.6682 508.889 14.4125 507.936 14.2033 506.983C11.716 494.919 9.27548 482.854 6.76495 470.813C5.13776 463.096 3.44077 455.401 1.76709 447.73C1.51139 446.591 1.2332 445.43 1.09373 444.267C0.954254 443.198 0.90729 442.082 0.977027 441.036C1.13975 438.641 2.4187 436.945 4.62704 435.992C5.44063 435.643 6.29988 435.387 7.18321 435.154C7.95032 434.945 8.74161 434.853 9.53196 434.76C25.246 432.714 40.843 429.947 56.4176 426.879C71.1785 423.973 85.9625 420.951 100.747 418.022C114.183 415.372 127.619 413.048 141.171 411.072C157.141 408.771 173.018 405.679 188.802 402.169C203.702 398.845 218.556 395.382 233.457 391.965C234.619 391.686 235.781 391.452 236.943 391.173C242.847 389.825 242.987 389.779 242.731 389.43C242.662 389.361 242.661 389.221 242.592 389.198C240.848 388.524 239.128 387.873 237.385 387.245C179.526 366.58 121.692 345.892 63.8102 325.203C48.84 319.857 33.8469 314.534 18.8767 309.187C17.8539 308.815 16.8308 308.489 15.8312 308.094C15.0874 307.815 14.3902 307.49 13.6928 307.118C11.6704 305.979 10.508 304.305 10.3918 301.911C10.3453 300.516 10.5072 299.144 10.7165 297.772C11.2743 294.239 12.0187 290.753 12.9252 287.289C14.2502 282.198 15.8543 277.154 17.6442 272.203C19.6665 266.601 21.7824 260.999 23.8513 255.397C26.0131 249.609 28.0587 243.797 29.7556 237.87C30.1043 236.638 30.5218 235.428 31.2656 234.312C32.1257 232.987 33.3587 232.5 34.8231 232.709C35.5903 232.825 36.3804 233.057 37.0545 233.406C39.7975 234.754 42.7026 235.66 45.5618 236.66C96.6092 254.234 147.425 272.505 198.1 291.055C213.21 296.588 228.342 302.097 243.452 307.629C247.776 309.21 252.146 310.744 256.563 312.046C259.98 313.045 263.397 313.906 266.884 314.557C267.349 314.65 267.837 314.719 268.325 314.789C268.604 314.836 268.976 314.789 269.045 314.486C269.115 314.231 268.999 313.929 268.883 313.673C268.767 313.417 268.581 313.185 268.395 312.953C266.117 310.117 263.932 307.234 261.561 304.491C252.449 293.845 243.289 283.291 234.154 272.668C224.948 261.975 215.766 251.305 206.538 240.635C195.287 227.571 184.013 214.531 172.763 201.513C167.579 195.493 162.395 189.518 157.164 183.544C143.194 167.528 129.2 151.535 115.23 135.565C113.44 133.496 111.65 131.428 109.837 129.336C108.674 127.987 107.698 126.546 106.838 124.988C106.512 124.384 106.21 123.757 105.955 123.129C104.699 120.014 105.35 117.132 107.419 114.505C107.791 114.04 108.279 113.644 108.627 113.156C108.883 112.854 108.999 112.458 109.185 112.133C109.929 111.482 110.696 110.808 111.44 110.157C112.556 109.878 113.369 109.111 114.229 108.437C116.159 106.88 118.089 105.276 120.041 103.742C126.782 98.4419 133.222 92.7469 139.498 86.889C142.729 83.8903 145.914 80.8914 149.168 77.9159C150.26 76.9164 151.399 75.9166 152.678 75.103C156.56 72.5693 159.605 73.0106 162.627 75.0562C163.835 75.893 164.975 76.7999 165.951 77.9157C166.718 78.8222 167.509 79.6598 168.276 80.5664C185.269 100.302 202.214 120.083 219.23 139.796C249.31 174.617 279.46 209.417 309.563 244.215C314.816 250.306 320.07 256.35 325.323 262.44C325.835 263.044 326.346 263.649 326.858 264.206C327.067 264.416 327.276 264.625 327.485 264.834C327.741 265.09 328.299 264.95 328.438 264.578C329.484 262.23 329.74 259.79 329.461 257.326C329.299 255.861 328.927 254.42 328.415 253.026C327.881 251.561 327.369 250.073 326.742 248.609C325.858 246.424 325.23 244.168 324.788 241.82C322.952 232.22 321.116 222.666 319.209 213.089C310.027 166.807 300.845 120.525 291.64 74.2661C288.246 57.0643 284.667 39.9097 280.25 22.9404C279.948 21.8014 279.761 20.6381 279.645 19.4526C279.552 18.5692 279.576 17.6632 279.738 16.8031C280.064 15.0829 280.971 13.6655 282.598 12.8286C283.575 12.3172 284.55 11.8515 285.643 11.5958C286.619 11.3633 287.573 11.1547 288.549 10.9687C297.731 9.36474 306.866 7.52836 315.979 5.62222C323.464 4.04152 330.902 2.46047 338.387 0.879769C340.223 0.484594 342.084 0.159654 343.967 0.0899169C345.338 0.0201801 346.732 0.0660684 348.104 0.368261C350.289 0.833174 352.102 1.90269 353.543 3.62287C354.613 4.92462 355.38 6.38963 355.961 7.94709C356.728 9.96946 357.146 12.1074 357.565 14.246C360.331 28.7745 363.05 43.3027 365.84 57.808C372.721 93.6992 379.88 129.544 387.458 165.296C390.829 181.173 394.27 197.073 397.431 213.019C399.779 224.805 402.267 236.544 404.707 248.33C404.917 249.283 405.102 250.259 405.358 251.212C405.427 251.467 405.684 251.677 405.87 251.91C405.684 252.096 405.777 252.235 405.87 252.096C406.079 251.747 405.963 252.235 405.777 251.91C405.916 251.77 406.172 251.7 406.242 251.538C406.497 251.003 406.73 250.445 406.916 249.887C413.122 232.337 419.375 214.832 425.488 197.282C432.625 176.802 439.366 156.207 445.433 135.402C447.176 129.381 449.036 123.384 451.129 117.48C454.336 108.368 457.567 99.2786 460.938 90.2361C467.354 72.9878 473.166 55.5073 477.861 37.7477C479.07 33.1451 480.488 28.5654 481.859 23.986C482.417 22.0799 483.045 20.1974 483.719 18.3145C484.138 17.1058 484.673 15.9203 485.3 14.7813C486.695 12.2243 488.624 11.317 491.483 11.7587C492.366 11.8982 493.203 12.1305 494.04 12.4095C494.876 12.6884 495.69 13.037 496.504 13.3392C514.844 20.3362 533.255 27.0779 551.829 33.4239C552.666 33.7029 553.502 33.9817 554.293 34.3537C554.99 34.6791 555.687 35.0974 556.292 35.5623C557.384 36.3759 557.895 37.5378 557.825 38.9093C557.779 39.6996 557.64 40.4904 557.477 41.2575C557.198 42.5128 556.873 43.7683 556.594 45.0236C555.153 51.5324 553.455 57.971 551.549 64.3403C548.806 73.4991 545.692 82.5186 542.414 91.4682C538.602 101.836 534.766 112.18 530.977 122.571C527.258 132.752 523.841 143.05 521.051 153.511C518.262 163.971 515.1 174.339 511.706 184.66C507.662 196.933 503.291 209.114 498.921 221.294C494.388 233.917 489.856 246.587 485.695 259.348C484.835 261.975 483.975 264.648 482.882 267.228C482.44 268.321 482.068 269.483 481.813 270.622C481.255 273.319 481.929 275.713 483.672 277.782C484.137 278.34 484.695 278.432 485.206 278.014C485.973 277.386 486.741 276.759 487.508 276.085C531.535 237.729 575.585 199.397 619.612 161.042C632.49 149.837 645.322 138.587 658.061 127.243C660.292 125.244 662.57 123.291 664.802 121.292C666.011 120.222 667.312 119.293 668.754 118.595C669.381 118.293 670.033 118.015 670.684 117.875C672.636 117.457 674.403 117.736 675.914 119.153C676.378 119.618 676.797 120.222 677.564 120.246L681.795 125.128C682.051 126.221 682.841 127.011 683.538 127.801C687.513 132.473 691.465 137.215 695.486 141.841C700.205 147.304 704.994 152.743 709.759 158.159C710.596 159.089 711.387 160.112 712.549 160.67L717.942 166.9C717.779 167.574 718.221 168.016 718.593 168.481C719.313 169.48 719.522 170.619 719.522 171.828C719.545 173.153 719.15 174.385 718.523 175.524C717.942 176.57 717.291 177.593 716.407 178.43C714.966 179.824 713.571 181.266 712.084 182.567C704.994 188.727 697.857 194.795 690.768 200.955C682.469 208.138 674.17 215.321 665.872 222.55C653.807 233.034 641.789 243.518 629.748 254.025C598.692 281.129 567.612 308.21 536.533 335.338C536.161 335.663 535.789 335.989 535.418 336.315C535.208 336.524 534.975 336.709 534.766 336.918C534.627 337.058 534.487 337.197 534.348 337.337C534.162 337.523 534.302 337.988 534.534 338.081C536.603 338.848 538.765 338.825 540.973 338.616C542.763 338.453 544.506 338.011 546.203 337.522C548.202 336.965 550.247 336.5 552.293 336.174C579.072 331.665 605.758 326.783 632.467 321.832C657.689 317.16 682.957 312.487 708.202 307.885C729.239 304.049 750.37 300.586 771.407 296.565C772.383 296.379 773.359 296.239 774.359 296.169C775.149 296.122 775.963 296.146 776.707 296.286C778.125 296.541 779.287 297.285 779.915 298.61C780.333 299.493 780.705 300.423 780.984 301.353C781.263 302.283 781.402 303.259 781.588 304.235C785.029 322.32 788.747 340.358 792.699 358.351C793.094 360.187 793.56 362.001 793.909 363.837C794.118 364.884 794.258 365.999 794.281 367.045C794.327 369.277 793.165 370.811 791.142 371.671C790.329 372.02 789.468 372.275 788.585 372.508C787.632 372.763 786.633 372.927 785.68 373.136C772.29 375.972 758.878 378.598 745.419 381.039C724.846 384.735 704.25 388.361 683.655 391.988C661.78 395.823 639.929 399.635 618.148 403.982C603.666 406.887 589.184 409.747 574.679 412.444C568.24 413.629 561.847 415 555.501 416.558C554.455 416.813 553.362 417.069 552.339 417.394C552.084 417.464 551.899 417.744 551.69 417.953C551.62 417.884 551.573 417.836 551.526 417.79C551.503 417.767 551.341 417.883 551.364 417.907C551.434 418.116 551.549 418.092 551.712 417.883C551.875 418.278 552.177 418.487 552.549 418.627C554.036 419.184 555.478 419.742 556.966 420.3C569.727 425.112 582.397 430.064 595.228 434.713C655.922 456.633 716.664 478.415 777.498 499.964C778.985 500.475 780.449 501.009 781.937 501.567C783.053 501.986 784.076 502.544 785.029 503.218C786.33 504.148 786.889 505.45 786.912 507.007C786.935 507.588 786.842 508.193 786.726 508.774C786.47 509.82 786.144 510.888 785.772 511.911C784.819 514.631 783.796 517.328 782.843 520.047C776.59 537.877 770.384 555.706 764.131 573.536C763.945 574.093 763.759 574.652 763.62 575.256C763.573 575.535 763.642 575.837 763.689 576.116L763.27 576.534L763.015 576.279Z" fill="#F55000"/>
</svg>
