<svg width="28" height="28" viewBox="0 0 28 28" fill="none" xmlns="http://www.w3.org/2000/svg">
<circle cx="14" cy="14" r="14" fill="#191A1A"/>
<path d="M10.1782 20.9997V11.5535H7.17702V20.9997H10.1784H10.1782ZM8.67811 10.2641C9.72447 10.2641 10.3759 9.53865 10.3759 8.63216C10.3562 7.7051 9.72447 7 8.69804 7C7.67082 7 7 7.7051 7 8.63216C7 9.53865 7.65115 10.2641 8.65844 10.2641H8.67785H8.67811ZM11.8392 20.9997H14.8401V15.7252C14.8401 15.4431 14.8598 15.1605 14.939 14.9592C15.1558 14.3948 15.6497 13.8107 16.4789 13.8107C17.5646 13.8107 17.9991 14.6768 17.9991 15.9469V20.9997H21V15.5836C21 12.6823 19.5196 11.3321 17.5452 11.3321C15.9263 11.3321 15.2154 12.2787 14.8204 12.9234H14.8404V11.5538H11.8395C11.8786 12.44 11.8392 21 11.8392 21V20.9997Z" fill="#FFFCF8"/>
</svg>
