<svg width="28" height="28" viewBox="0 0 28 28" fill="none" xmlns="http://www.w3.org/2000/svg">
<circle cx="14" cy="14" r="14" fill="#191A1A"/>
<path d="M22.8414 8.85718L17.3823 13.9997L22.8414 19.1423C22.94 18.9467 22.9999 18.7305 22.9999 18.4997V9.4998C22.9999 9.26891 22.94 9.05274 22.8414 8.85718Z" fill="#FFFCF8"/>
<path d="M21.4183 8H6.58232C6.33879 8 6.1108 8.05677 5.90454 8.15033L12.8818 14.7323C13.4987 15.3173 14.5019 15.3173 15.1188 14.7323L22.096 8.15033C21.8898 8.05677 21.6618 8 21.4183 8Z" fill="#FFFCF8"/>
<path d="M5.15855 8.8573C5.05987 9.05286 5 9.26903 5 9.49992V18.4998C5 18.7307 5.05987 18.9469 5.15855 19.1424L10.6176 13.9999L5.15855 8.8573Z" fill="#FFFCF8"/>
<path d="M16.637 14.707L15.8645 15.4395C14.8366 16.4141 13.164 16.4141 12.136 15.4395L11.3636 14.707L5.90454 19.8496C6.1108 19.9432 6.33879 19.9999 6.58232 19.9999H21.4183C21.6618 19.9999 21.8898 19.9432 22.096 19.8496L16.637 14.707Z" fill="#FFFCF8"/>
</svg>
