<svg width="47" height="41" viewBox="0 0 47 41" fill="none" xmlns="http://www.w3.org/2000/svg">
<path d="M40.9709 0L46.8238 5.85298C42.6292 10.1452 39.8003 14.3886 38.337 18.5832C40.8733 19.1685 42.9219 20.4367 44.4826 22.3876C46.0434 24.3386 46.8238 26.6311 46.8238 29.2649C46.8238 32.3865 45.7508 35.0203 43.6047 37.1664C41.4586 39.215 38.8735 40.2392 35.8495 40.2392C32.7279 40.2392 30.0941 39.2637 27.948 37.3128C25.8994 35.2642 24.8752 32.1914 24.8752 28.0943C24.8752 19.9001 30.2404 10.5354 40.9709 0ZM16.0957 0L21.9487 5.85298C17.754 10.1452 14.9251 14.3886 13.4619 18.5832C15.9981 19.1685 18.0467 20.4367 19.6075 22.3876C21.1683 24.3386 21.9487 26.6311 21.9487 29.2649C21.9487 32.3865 20.8756 35.0203 18.7295 37.1664C16.5834 39.215 13.9984 40.2392 10.9743 40.2392C7.85275 40.2392 5.21891 39.2637 3.07281 37.3128C1.02427 35.2642 0 32.1914 0 28.0943C0 19.9001 5.36523 10.5354 16.0957 0Z" fill="#191A1A"/>
</svg>
