<svg width="605" height="260" viewBox="0 0 605 260" fill="none" xmlns="http://www.w3.org/2000/svg">
<g clip-path="url(#clip0_290_6462)">
<rect width="605" height="260" fill="#191A1A"/>
<path d="M98.7198 359.398C99.0932 359.396 99.3329 359.116 99.5689 358.895C101.809 356.976 104.045 355.039 106.286 353.121C121.223 340.284 136.137 327.434 151.108 314.647C166.078 301.861 181.038 289.037 196.108 276.401C204.667 269.209 213.345 262.161 221.971 255.069C228.197 249.957 234.304 244.701 240.181 239.171C245.445 234.219 250.475 229.054 255.136 223.536C260.392 217.307 265.154 210.699 269.501 203.789C276.159 193.171 281.714 181.962 286.447 170.325C289.16 163.637 291.52 156.806 293.798 149.959C298.564 135.657 303.418 121.39 308.49 107.202C311.783 97.9777 315.183 88.7832 318.723 79.6695C322.147 70.862 325.265 61.9399 328.319 52.9958C331.399 44.005 334.474 34.996 337.578 26.0188C338.475 23.4174 339.46 20.8515 340.38 18.2636C341.107 16.2783 341.941 14.3232 342.845 12.4087C343.878 10.243 344.864 8.05053 345.897 5.88486C346.084 5.48065 346.307 5.06671 346.587 4.71624C347.003 4.21136 347.557 3.92524 348.228 4.07992C348.774 4.20903 349.325 4.35652 349.863 4.52726C356.622 6.7693 363.367 9.03465 370.122 11.2583C374.456 12.6745 378.799 14.049 383.123 15.4284C383.767 15.6296 384.429 15.8261 385.051 16.0922C385.627 16.3315 386.2 16.6306 386.703 16.9679C387.855 17.7415 388.335 18.8722 388.173 20.2533C388.113 20.7614 387.993 21.2658 387.854 21.7752C387.737 22.2197 387.554 22.6425 387.372 23.0651C383.854 31.5238 380.731 40.1324 377.765 48.817C374.953 57.0471 372.193 65.3225 369.386 73.571C366.829 81.0639 364.109 88.4628 361.181 95.819C357.717 104.48 354.675 113.322 351.87 122.239C349.227 130.66 346.667 139.098 344.071 147.546C343.875 148.208 343.656 148.857 343.46 149.52C342.428 152.866 342.411 152.949 342.659 152.922C342.714 152.907 342.784 152.947 342.816 152.919C343.658 152.241 344.481 151.568 345.299 150.877C372.37 127.883 399.445 104.907 426.534 81.9083C433.538 75.9587 440.537 69.9909 447.541 64.0413C448.022 63.6368 448.481 63.2187 448.968 62.8325C449.323 62.5407 449.687 62.2857 450.075 62.044C451.23 61.3608 452.404 61.2626 453.636 61.8965C454.348 62.2764 454.988 62.7541 455.614 63.2553C457.222 64.556 458.752 65.9363 460.224 67.3914C462.39 69.5263 464.452 71.7875 466.413 74.1148C468.634 76.7467 470.827 79.4253 473.033 82.0804C475.306 84.8359 477.625 87.5398 480.102 90.1028C480.618 90.6335 481.103 91.1922 481.447 91.8872C481.861 92.7008 481.749 93.4589 481.221 94.1316C480.941 94.4821 480.596 94.8106 480.227 95.0473C478.759 96.0309 477.466 97.2234 476.139 98.366C452.585 118.844 428.748 139.003 404.813 159.013C397.675 164.978 390.543 170.962 383.406 176.928C381.364 178.636 379.333 180.38 377.405 182.215C375.916 183.637 374.498 185.099 373.164 186.657C372.983 186.863 372.807 187.087 372.631 187.311C372.527 187.437 372.443 187.637 372.574 187.759C372.682 187.868 372.867 187.897 373.029 187.913C373.19 187.929 373.36 187.903 373.53 187.877C375.609 187.556 377.683 187.295 379.742 186.901C387.706 185.417 395.638 183.881 403.597 182.378C411.612 180.861 419.608 179.348 427.617 177.811C437.41 175.955 447.197 174.08 456.967 172.21C461.48 171.355 465.969 170.486 470.472 169.595C482.529 167.23 494.581 164.846 506.615 162.468C508.168 162.17 509.721 161.872 511.293 161.569C512.304 161.377 513.308 161.304 514.336 161.324C514.733 161.336 515.134 161.366 515.522 161.419C517.445 161.691 518.7 162.85 519.417 164.645C519.542 164.966 519.599 165.324 519.743 165.64C519.82 165.855 519.985 166.028 520.094 166.215C520.205 166.776 520.32 167.355 520.431 167.915C520.248 168.554 520.397 169.183 520.486 169.809C520.708 171.225 520.953 172.655 521.157 174.076C521.862 178.983 522.852 183.853 523.97 188.689C524.538 191.173 525.119 193.634 525.668 196.124C525.852 196.96 526.024 197.819 526.061 198.694C526.208 201.37 525.107 202.767 523.209 203.689C522.441 204.052 521.657 204.36 520.816 204.526C520.141 204.648 519.493 204.802 518.817 204.924C504.025 207.727 489.223 210.493 474.435 213.314C448.306 218.309 422.169 223.345 396.045 228.357C391.477 229.227 386.932 230.11 382.365 230.98C381.914 231.061 381.464 231.143 381.037 231.237C380.871 231.282 380.706 231.326 380.541 231.37C380.339 231.424 380.248 231.744 380.394 231.921C381.267 233.124 382.415 233.957 383.729 234.53C384.509 234.872 385.338 235.102 386.184 235.249C387.072 235.405 387.965 235.579 388.879 235.688C390.229 235.877 391.54 236.215 392.843 236.672C398.18 238.528 403.494 240.37 408.84 242.184C434.666 250.965 460.492 259.746 486.312 268.509C495.906 271.782 505.529 274.949 515.301 277.643C515.959 277.82 516.595 278.063 517.223 278.348C517.692 278.557 518.139 278.83 518.522 279.16C519.289 279.82 519.737 280.684 519.685 281.741C519.659 282.378 519.61 283.001 519.423 283.622C519.257 284.178 519.086 284.715 518.896 285.258C517.045 290.319 515.324 295.423 513.644 300.536C512.272 304.741 510.914 308.922 509.542 313.126C509.209 314.16 508.833 315.185 508.324 316.148C507.963 316.855 507.537 317.539 506.989 318.139C506.125 319.098 505.065 319.697 503.787 319.921C502.826 320.081 501.871 320.041 500.923 319.882C499.689 319.682 498.498 319.273 497.306 318.864C489.233 316.049 481.173 313.212 473.104 310.415C453.146 303.486 433.13 296.709 413.04 290.169C404.117 287.267 395.162 284.393 386.264 281.367C379.685 279.136 373.089 276.988 366.482 274.803C365.945 274.632 365.403 274.443 364.852 274.296C364.703 274.257 364.524 274.324 364.354 274.35C364.315 274.203 364.218 274.21 364.261 274.296C364.375 274.502 364.164 274.303 364.381 274.304C364.411 274.414 364.372 274.562 364.433 274.644C364.627 274.926 364.839 275.204 365.064 275.459C372.057 283.639 379.014 291.829 386.033 299.963C394.224 309.456 402.587 318.784 411.249 327.835C413.759 330.449 416.224 333.113 418.576 335.867C422.211 340.107 425.827 344.352 429.38 348.654C436.161 356.852 443.233 364.814 450.767 372.299C452.722 374.234 454.605 376.268 456.501 378.278C457.295 379.108 458.055 379.967 458.803 380.849C459.288 381.408 459.726 382.018 460.115 382.662C460.992 384.099 460.889 385.327 459.841 386.631C459.516 387.033 459.158 387.384 458.777 387.723C458.395 388.061 457.985 388.368 457.599 388.687C448.794 395.847 440.097 403.116 431.551 410.581C431.17 410.919 430.788 411.258 430.373 411.546C430.009 411.801 429.598 412.029 429.19 412.197C428.467 412.509 427.738 412.429 427.071 411.998C426.689 411.746 426.333 411.448 425.996 411.145C425.449 410.642 424.914 410.116 424.366 409.614C421.524 407.011 418.791 404.3 416.153 401.505C412.361 397.484 408.745 393.317 405.212 389.089C401.123 384.184 397.053 379.273 392.946 374.373C388.924 369.568 384.756 364.88 380.325 360.46C375.894 356.04 371.617 351.46 367.431 346.778C362.455 341.205 357.62 335.496 352.785 329.787C347.776 323.869 342.742 317.938 337.556 312.165C336.489 310.976 335.4 309.772 334.424 308.479C334.005 307.942 333.53 307.42 333.034 306.963C331.845 305.904 330.451 305.55 328.912 305.824C328.498 305.896 328.29 306.148 328.352 306.525C328.445 307.091 328.537 307.656 328.653 308.235C335.129 341.365 341.588 374.499 348.064 407.629C349.952 417.315 351.875 426.991 353.873 436.648C354.228 438.343 354.548 440.048 354.904 441.744C355.089 442.658 355.179 443.578 355.111 444.501C355.081 444.903 355.032 445.31 354.914 445.676C354.559 446.774 353.909 447.578 352.762 447.925C352.395 448.023 351.972 448.058 351.738 448.435L348.071 449.142C347.45 448.955 346.826 449.122 346.229 449.242C342.74 449.882 339.224 450.49 335.746 451.166C331.647 451.95 327.539 452.775 323.45 453.595C322.743 453.745 322.002 453.845 321.387 454.266L316.709 455.165C316.418 454.889 316.069 454.982 315.729 455.034C315.02 455.106 314.39 454.881 313.785 454.532C313.114 454.161 312.612 453.607 312.223 452.963C311.867 452.37 311.543 451.748 311.38 451.064C311.098 449.94 310.78 448.825 310.558 447.703C309.523 442.373 308.548 437.047 307.514 431.716C306.316 425.485 305.119 419.254 303.898 413.01C302.137 403.939 300.362 394.892 298.582 385.826C293.989 362.443 289.414 339.054 284.816 315.653C284.761 315.372 284.705 315.092 284.649 314.812C284.605 314.647 284.58 314.476 284.535 314.311C284.506 314.201 284.476 314.091 284.447 313.981C284.407 313.834 284.134 313.77 284.02 313.859C283.038 314.673 282.425 315.762 281.891 316.928C281.455 317.871 281.173 318.872 280.927 319.862C280.628 321.025 280.27 322.183 279.842 323.301C274.359 338.012 269.089 352.784 263.847 367.587C258.896 381.565 253.931 395.567 248.938 409.536C244.778 421.177 240.404 432.758 236.336 444.453C236.147 444.995 235.935 445.524 235.681 446.045C235.476 446.454 235.229 446.855 234.944 447.187C234.406 447.823 233.698 448.19 232.853 448.121C232.29 448.075 231.717 447.993 231.171 447.863C230.624 447.734 230.095 447.522 229.553 447.333C219.504 443.828 209.398 440.475 199.248 437.253C198.214 436.92 197.171 436.629 196.151 436.273C195.567 436.075 194.968 435.823 194.437 435.532C193.307 434.91 192.875 433.885 193.029 432.623C193.089 432.115 193.21 431.611 193.349 431.101C193.497 430.55 193.704 430.003 193.874 429.465C196.325 421.942 198.887 414.467 201.555 407.023C205.651 395.655 209.789 384.295 213.927 372.936C218.33 360.876 222.738 348.834 226.857 336.672C229.589 328.582 232.343 320.505 235.186 312.463C236.453 308.897 237.615 305.3 238.67 301.672C238.844 301.074 239.032 300.454 239.164 299.847C239.203 299.699 239.117 299.526 239.072 299.361C239.127 299.346 239.165 299.336 239.201 299.326C239.22 299.321 239.208 299.206 239.19 299.211C239.065 299.185 239.043 299.25 239.101 299.392C238.856 299.359 238.664 299.45 238.487 299.596C237.778 300.18 237.082 300.74 236.372 301.324C230.274 306.322 224.133 311.234 218.096 316.314C189.578 340.365 161.115 364.48 132.742 388.708C132.055 389.305 131.365 389.884 130.655 390.467C130.123 390.905 129.548 391.256 128.935 391.538C128.094 391.921 127.28 391.824 126.494 391.386C126.196 391.229 125.921 391.008 125.663 390.782C125.213 390.351 124.773 389.879 124.368 389.397C123.282 388.134 122.227 386.843 121.141 385.579C114.022 377.295 106.89 369.034 99.7708 360.749C99.5453 360.495 99.3192 360.241 99.057 359.996C98.9307 359.892 98.7598 359.84 98.6067 359.782L98.5182 359.452L98.7198 359.398Z" fill="#F8B016"/>
<rect x="50" y="210" width="157" height="32" rx="16" fill="#FFFCF8"/>
<path d="M73.52 231H71.276V221.1H73.586L76.578 226.182L79.592 221.1H81.88V231H79.636V224.818L77.194 229.152H75.962L73.52 224.818V231ZM85.4364 229.768C84.4831 228.815 84.0064 227.575 84.0064 226.05C84.0064 224.525 84.4831 223.285 85.4364 222.332C86.4191 221.379 87.6804 220.902 89.2204 220.902C90.7751 220.902 92.0291 221.379 92.9824 222.332C93.9504 223.285 94.4344 224.525 94.4344 226.05C94.4344 227.59 93.9504 228.829 92.9824 229.768C92.0291 230.721 90.7751 231.198 89.2204 231.198C87.6804 231.198 86.4191 230.721 85.4364 229.768ZM87.2624 223.894C86.7638 224.437 86.5144 225.155 86.5144 226.05C86.5144 226.959 86.7638 227.685 87.2624 228.228C87.7611 228.771 88.4138 229.042 89.2204 229.042C90.0271 229.042 90.6798 228.771 91.1784 228.228C91.6771 227.685 91.9264 226.959 91.9264 226.05C91.9264 225.155 91.6771 224.437 91.1784 223.894C90.6651 223.337 90.0124 223.058 89.2204 223.058C88.4284 223.058 87.7758 223.337 87.2624 223.894ZM96.5631 221.1H98.9831V225.082H103.075V221.1H105.517V231H103.075V226.974H98.9831V231H96.5631V221.1ZM117.121 226.776H110.235C110.352 227.495 110.653 228.052 111.137 228.448C111.635 228.844 112.273 229.042 113.051 229.042C113.975 229.042 114.693 228.763 115.207 228.206L116.659 229.702C115.691 230.699 114.429 231.198 112.875 231.198C111.335 231.198 110.073 230.721 109.091 229.768C108.137 228.815 107.661 227.553 107.661 225.984C107.661 224.488 108.101 223.271 108.981 222.332C109.89 221.379 111.063 220.902 112.501 220.902C113.982 220.902 115.119 221.415 115.911 222.442C116.717 223.469 117.121 224.913 117.121 226.776ZM112.567 222.992C111.951 222.992 111.437 223.183 111.027 223.564C110.616 223.931 110.352 224.444 110.235 225.104H114.701C114.481 223.696 113.769 222.992 112.567 222.992ZM126.133 222.992H123.251V231H120.831V222.992H117.971V221.1H126.133V222.992ZM128.167 221.1H130.587V227.084L135.273 221.1H137.143V231H134.723V225.016L130.059 231H128.167V221.1ZM142.674 220.902C143.73 220.902 144.558 221.151 145.16 221.65C145.776 222.149 146.084 222.809 146.084 223.63C146.084 224.657 145.702 225.397 144.94 225.852C146.054 226.263 146.612 227.106 146.612 228.382C146.612 229.262 146.282 229.951 145.622 230.45C144.962 230.949 144.008 231.198 142.762 231.198C141.266 231.198 140.034 230.699 139.066 229.702L140.386 228.36C140.914 228.932 141.632 229.218 142.542 229.218C143.07 229.218 143.473 229.101 143.752 228.866C144.045 228.631 144.192 228.316 144.192 227.92C144.192 227.568 144.082 227.289 143.862 227.084C143.656 226.879 143.378 226.776 143.026 226.776H141.486V225.17H142.608C142.916 225.17 143.172 225.06 143.378 224.84C143.598 224.62 143.708 224.356 143.708 224.048C143.708 223.74 143.598 223.469 143.378 223.234C143.172 222.999 142.864 222.882 142.454 222.882C141.676 222.882 141.031 223.161 140.518 223.718L139.176 222.376C140.114 221.393 141.28 220.902 142.674 220.902ZM148.77 221.1H151.19V227.084L155.876 221.1H157.746V231H155.326V225.016L150.662 231H148.77V221.1ZM168.051 231H160.307V221.1H162.727V229.108H166.577V221.1H169.019V229.108H170.295V233.64H168.051V231ZM174.565 231H172.145V221.1H174.565V231ZM173.355 219.582C172.944 219.582 172.6 219.443 172.321 219.164C172.042 218.885 171.903 218.541 171.903 218.13C171.903 217.719 172.042 217.375 172.321 217.096C172.6 216.817 172.944 216.678 173.355 216.678C173.766 216.678 174.11 216.817 174.389 217.096C174.668 217.375 174.807 217.719 174.807 218.13C174.807 218.541 174.668 218.885 174.389 219.164C174.11 219.443 173.766 219.582 173.355 219.582ZM180.562 221.1H184.874V231H182.454V227.216H181.178L179.264 231H176.756L179.044 226.996C177.68 226.541 176.998 225.595 176.998 224.158C176.998 223.234 177.313 222.493 177.944 221.936C178.575 221.379 179.447 221.1 180.562 221.1ZM180.65 225.412H182.454V222.904H180.65C180.313 222.904 180.027 223.021 179.792 223.256C179.557 223.491 179.44 223.791 179.44 224.158C179.44 224.525 179.557 224.825 179.792 225.06C180.027 225.295 180.313 225.412 180.65 225.412Z" fill="#191A1A"/>
</g>
<defs>
<clipPath id="clip0_290_6462">
<rect width="605" height="260" fill="white"/>
</clipPath>
</defs>
</svg>
