<svg width="605" height="260" viewBox="0 0 605 260" fill="none" xmlns="http://www.w3.org/2000/svg">
<g clip-path="url(#clip0_290_6472)">
<rect width="605" height="260" fill="#191A1A"/>
<path d="M238.184 0.385644C238.089 0.746759 238.298 1.05084 238.45 1.3359C239.724 3.99661 241.016 6.65768 242.289 9.31841C250.823 27.0691 259.375 44.8009 267.851 62.5706C276.327 80.3404 284.842 98.1094 293.147 115.936C297.879 126.066 302.44 136.272 307.059 146.44C310.385 153.776 313.882 161.036 317.702 168.143C321.122 174.51 324.809 180.706 328.934 186.635C333.59 193.325 338.74 199.635 344.29 205.622C352.823 214.801 362.211 223.068 372.227 230.651C377.986 235.004 383.972 239.051 389.997 243.023C402.578 251.328 415.103 259.71 427.494 268.281C435.552 273.85 443.553 279.513 451.44 285.291C459.061 290.878 466.872 296.199 474.721 301.464C482.609 306.766 490.515 312.068 498.383 317.39C500.663 318.929 502.887 320.545 505.149 322.103C506.878 323.319 508.551 324.631 510.166 326C511.99 327.558 513.853 329.078 515.677 330.637C516.019 330.922 516.362 331.245 516.628 331.606C517.008 332.138 517.141 332.747 516.818 333.355C516.552 333.849 516.267 334.343 515.962 334.818C512.047 340.767 508.113 346.696 504.217 352.645C501.728 356.465 499.276 360.304 496.824 364.124C496.463 364.694 496.102 365.283 495.684 365.815C495.304 366.309 494.867 366.784 494.411 367.184C493.365 368.096 492.149 368.266 490.857 367.753C490.382 367.563 489.926 367.317 489.469 367.051C489.07 366.823 488.709 366.537 488.348 366.252C481.088 360.664 473.581 355.42 465.96 350.307C458.738 345.461 451.459 340.653 444.218 335.807C437.643 331.397 431.2 326.855 424.852 322.123C417.383 316.535 409.629 311.309 401.742 306.291C394.292 301.559 386.804 296.902 379.316 292.208C378.727 291.847 378.157 291.468 377.568 291.107C374.603 289.244 374.527 289.206 374.489 289.453C374.489 289.51 374.432 289.567 374.451 289.605C374.888 290.593 375.325 291.563 375.781 292.532C390.985 324.632 406.17 356.731 421.374 388.849C425.308 397.154 429.261 405.459 433.195 413.765C433.461 414.335 433.747 414.886 433.994 415.456C434.184 415.874 434.336 416.292 434.469 416.729C434.83 418.022 434.621 419.181 433.689 420.207C433.138 420.797 432.511 421.291 431.865 421.766C430.193 422.983 428.463 424.104 426.677 425.149C424.054 426.688 421.336 428.095 418.58 429.387C415.464 430.85 412.309 432.275 409.173 433.72C405.923 435.202 402.711 436.742 399.594 438.471C398.948 438.832 398.283 439.156 397.523 439.308C396.63 439.498 395.926 439.193 395.413 438.509C395.147 438.148 394.919 437.73 394.786 437.312C394.216 435.64 393.399 434.082 392.639 432.504C378.955 404.453 365.651 376.211 352.519 347.912C348.604 339.474 344.67 331.036 340.755 322.598C339.633 320.184 338.474 317.77 337.201 315.433C336.212 313.627 335.167 311.878 334.008 310.187C333.856 309.959 333.685 309.731 333.514 309.503C333.419 309.37 333.248 309.237 333.096 309.332C332.963 309.408 332.887 309.579 332.83 309.731C332.773 309.883 332.754 310.054 332.735 310.225C332.506 312.315 332.221 314.387 332.069 316.478C331.442 324.555 330.872 332.613 330.264 340.691C329.656 348.825 329.048 356.94 328.458 365.074C327.717 375.014 326.995 384.953 326.273 394.874C325.931 399.454 325.608 404.015 325.304 408.596C324.467 420.854 323.65 433.112 322.833 445.351C322.719 446.929 322.605 448.506 322.491 450.102C322.415 451.129 322.225 452.117 321.94 453.105C321.826 453.485 321.693 453.865 321.541 454.226C320.78 456.013 319.336 456.925 317.416 457.153C317.074 457.191 316.713 457.154 316.371 457.211C316.143 457.23 315.934 457.344 315.725 457.401C315.155 457.363 314.566 457.325 313.996 457.287C313.425 456.945 312.779 456.926 312.152 456.85C310.727 456.698 309.282 456.564 307.857 456.393C302.935 455.804 297.974 455.5 293.014 455.329C290.467 455.234 287.94 455.158 285.393 455.044C284.538 455.006 283.663 454.949 282.808 454.759C280.186 454.208 279.121 452.783 278.722 450.711C278.57 449.875 278.475 449.039 278.532 448.183C278.589 447.499 278.608 446.833 278.665 446.149C279.786 431.135 280.946 416.122 282.048 401.108C283.987 374.577 285.887 348.026 287.807 321.495C288.149 316.858 288.472 312.24 288.814 307.602C288.852 307.146 288.89 306.69 288.909 306.253C288.909 306.082 288.909 305.911 288.909 305.74C288.909 305.531 288.624 305.36 288.415 305.455C287.027 305.987 285.925 306.88 285.032 308.001C284.5 308.667 284.063 309.408 283.701 310.187C283.321 311.004 282.922 311.821 282.58 312.677C282.048 313.931 281.383 315.11 280.604 316.25C277.43 320.926 274.275 325.582 271.139 330.276C255.973 352.949 240.807 375.622 225.66 398.295C220.015 406.714 214.466 415.19 209.335 423.932C208.993 424.522 208.593 425.073 208.156 425.606C207.833 426.005 207.453 426.365 207.035 426.65C206.199 427.221 205.249 427.429 204.241 427.106C203.633 426.916 203.044 426.708 202.493 426.366C201.999 426.062 201.524 425.757 201.048 425.434C196.639 422.336 192.154 419.352 187.65 416.406C183.944 413.993 180.257 411.599 176.551 409.185C175.639 408.596 174.745 407.968 173.947 407.227C173.358 406.695 172.807 406.106 172.37 405.422C171.667 404.339 171.362 403.16 171.476 401.868C171.572 400.899 171.857 399.986 172.256 399.112C172.769 397.971 173.472 396.927 174.175 395.881C178.984 388.811 183.811 381.761 188.6 374.691C200.459 357.206 212.185 339.627 223.703 321.914C228.815 314.046 233.908 306.139 239.135 298.328C242.993 292.551 246.775 286.735 250.595 280.919C250.899 280.444 251.222 279.969 251.507 279.475C251.583 279.342 251.564 279.152 251.583 278.981C251.735 278.981 251.754 278.886 251.659 278.905C251.431 278.962 251.678 278.81 251.621 279.019C251.507 279.019 251.374 278.943 251.279 278.981C250.956 279.095 250.633 279.228 250.329 279.38C240.617 284.017 230.905 288.617 221.232 293.292C209.943 298.747 198.768 304.41 187.783 310.435C184.609 312.183 181.397 313.874 178.128 315.433C173.092 317.846 168.056 320.241 162.981 322.56C153.308 326.988 143.786 331.758 134.607 337.098C132.231 338.486 129.779 339.778 127.347 341.09C126.339 341.641 125.313 342.154 124.268 342.648C123.603 342.971 122.9 343.237 122.177 343.446C120.562 343.921 119.403 343.503 118.414 342.154C118.11 341.736 117.863 341.299 117.635 340.843C117.407 340.387 117.217 339.912 117.008 339.455C112.371 329.098 107.6 318.816 102.602 308.629C102.374 308.173 102.146 307.717 101.975 307.241C101.823 306.823 101.709 306.367 101.652 305.93C101.538 305.151 101.804 304.467 102.393 303.935C102.735 303.631 103.115 303.365 103.495 303.118C104.123 302.718 104.769 302.338 105.396 301.939C108.646 299.867 111.972 297.929 115.355 296.105C120.22 293.482 125.18 291.068 130.179 288.75C135.975 286.07 141.772 283.409 147.568 280.71C153.251 278.069 158.857 275.256 164.274 272.12C169.69 268.984 175.221 266.039 180.827 263.207C187.498 259.843 194.264 256.65 201.029 253.457C208.042 250.151 215.074 246.824 221.992 243.308C223.417 242.586 224.862 241.845 226.363 241.237C226.99 240.971 227.618 240.648 228.188 240.287C229.518 239.412 230.221 238.158 230.354 236.6C230.392 236.182 230.202 235.916 229.822 235.878C229.252 235.821 228.682 235.764 228.093 235.726C194.416 233.407 160.739 231.07 127.062 228.751C117.217 228.067 107.372 227.421 97.5278 226.85C95.7984 226.755 94.0688 226.622 92.3393 226.527C91.4081 226.47 90.4959 226.318 89.6216 226.014C89.2415 225.881 88.8614 225.729 88.5383 225.52C87.5691 224.893 86.9609 224.056 86.9229 222.859C86.9229 222.479 86.999 222.061 86.6949 221.738L86.961 218.012C87.3031 217.461 87.3031 216.816 87.3411 216.207C87.6262 212.672 87.9492 209.119 88.1962 205.584C88.5003 201.422 88.7664 197.24 89.0325 193.078C89.0705 192.356 89.1655 191.615 88.9184 190.912L89.2605 186.16C89.6026 185.951 89.6026 185.59 89.6406 185.248C89.7547 184.545 90.1348 183.994 90.6289 183.5C91.1611 182.949 91.8263 182.606 92.5485 182.397C93.2137 182.207 93.8977 182.055 94.6009 182.074C95.7603 182.093 96.9196 182.074 98.0599 182.15C103.476 182.531 108.874 182.967 114.29 183.348C120.619 183.804 126.948 184.26 133.295 184.697C142.513 185.343 151.711 185.97 160.929 186.597C184.704 188.213 208.479 189.847 232.274 191.463C232.559 191.482 232.844 191.5 233.129 191.519C233.3 191.519 233.471 191.539 233.642 191.539C233.756 191.539 233.87 191.539 233.984 191.539C234.136 191.539 234.269 191.291 234.212 191.158C233.68 189.999 232.787 189.125 231.799 188.308C231 187.642 230.107 187.111 229.214 186.617C228.169 186.028 227.142 185.381 226.173 184.678C213.383 175.575 200.478 166.661 187.536 157.767C175.316 149.367 163.076 140.947 150.875 132.509C140.707 125.477 130.654 118.255 120.41 111.299C119.935 110.976 119.479 110.634 119.042 110.254C118.699 109.95 118.376 109.607 118.129 109.246C117.654 108.562 117.483 107.783 117.768 106.985C117.958 106.453 118.186 105.921 118.452 105.427C118.718 104.933 119.061 104.476 119.384 104.001C125.37 95.202 131.224 86.308 136.963 77.3376C137.552 76.4254 138.104 75.4933 138.712 74.6001C139.054 74.0869 139.453 73.5738 139.871 73.1367C140.764 72.2054 141.867 72.0537 143.045 72.5288C143.52 72.7189 143.976 72.9662 144.432 73.2322C144.926 73.5173 145.402 73.8589 145.877 74.163C152.509 78.4772 159.066 82.8863 165.566 87.3905C175.487 94.2893 185.388 101.226 195.29 108.163C205.8 115.537 216.29 122.912 226.971 130.039C234.079 134.771 241.168 139.522 248.2 144.349C251.317 146.497 254.491 148.55 257.722 150.507C258.254 150.83 258.805 151.172 259.356 151.457C259.489 151.533 259.679 151.495 259.85 151.495C259.85 151.552 259.85 151.59 259.85 151.628C259.85 151.647 259.964 151.666 259.964 151.647C260.021 151.533 259.964 151.495 259.812 151.514C259.907 151.286 259.869 151.077 259.774 150.868C259.394 150.032 259.033 149.215 258.653 148.378C255.403 141.194 252.248 133.991 248.903 126.845C233.053 93.0735 217.127 59.339 201.067 25.662C200.668 24.8448 200.288 24.028 199.908 23.1917C199.623 22.5646 199.433 21.9184 199.319 21.2532C199.167 20.3409 199.471 19.5803 200.098 18.9342C200.326 18.6871 200.611 18.4783 200.896 18.2883C201.429 17.9652 201.999 17.6616 202.569 17.3956C204.07 16.6734 205.591 15.9889 207.092 15.2668C216.937 10.5345 226.762 5.78329 236.607 1.05102C236.911 0.898981 237.215 0.746454 237.519 0.55639C237.652 0.461359 237.747 0.3099 237.842 0.176843L238.184 0.176843L238.184 0.385644Z" fill="#0030F4"/>
<rect x="50" y="210" width="157" height="32" rx="16" fill="#FFFCF8"/>
<path d="M73.52 231H71.276V221.1H73.586L76.578 226.182L79.592 221.1H81.88V231H79.636V224.818L77.194 229.152H75.962L73.52 224.818V231ZM85.4364 229.768C84.4831 228.815 84.0064 227.575 84.0064 226.05C84.0064 224.525 84.4831 223.285 85.4364 222.332C86.4191 221.379 87.6804 220.902 89.2204 220.902C90.7751 220.902 92.0291 221.379 92.9824 222.332C93.9504 223.285 94.4344 224.525 94.4344 226.05C94.4344 227.59 93.9504 228.829 92.9824 229.768C92.0291 230.721 90.7751 231.198 89.2204 231.198C87.6804 231.198 86.4191 230.721 85.4364 229.768ZM87.2624 223.894C86.7638 224.437 86.5144 225.155 86.5144 226.05C86.5144 226.959 86.7638 227.685 87.2624 228.228C87.7611 228.771 88.4138 229.042 89.2204 229.042C90.0271 229.042 90.6798 228.771 91.1784 228.228C91.6771 227.685 91.9264 226.959 91.9264 226.05C91.9264 225.155 91.6771 224.437 91.1784 223.894C90.6651 223.337 90.0124 223.058 89.2204 223.058C88.4284 223.058 87.7758 223.337 87.2624 223.894ZM96.5631 221.1H98.9831V225.082H103.075V221.1H105.517V231H103.075V226.974H98.9831V231H96.5631V221.1ZM117.121 226.776H110.235C110.352 227.495 110.653 228.052 111.137 228.448C111.635 228.844 112.273 229.042 113.051 229.042C113.975 229.042 114.693 228.763 115.207 228.206L116.659 229.702C115.691 230.699 114.429 231.198 112.875 231.198C111.335 231.198 110.073 230.721 109.091 229.768C108.137 228.815 107.661 227.553 107.661 225.984C107.661 224.488 108.101 223.271 108.981 222.332C109.89 221.379 111.063 220.902 112.501 220.902C113.982 220.902 115.119 221.415 115.911 222.442C116.717 223.469 117.121 224.913 117.121 226.776ZM112.567 222.992C111.951 222.992 111.437 223.183 111.027 223.564C110.616 223.931 110.352 224.444 110.235 225.104H114.701C114.481 223.696 113.769 222.992 112.567 222.992ZM126.133 222.992H123.251V231H120.831V222.992H117.971V221.1H126.133V222.992ZM128.167 221.1H130.587V227.084L135.273 221.1H137.143V231H134.723V225.016L130.059 231H128.167V221.1ZM142.674 220.902C143.73 220.902 144.558 221.151 145.16 221.65C145.776 222.149 146.084 222.809 146.084 223.63C146.084 224.657 145.702 225.397 144.94 225.852C146.054 226.263 146.612 227.106 146.612 228.382C146.612 229.262 146.282 229.951 145.622 230.45C144.962 230.949 144.008 231.198 142.762 231.198C141.266 231.198 140.034 230.699 139.066 229.702L140.386 228.36C140.914 228.932 141.632 229.218 142.542 229.218C143.07 229.218 143.473 229.101 143.752 228.866C144.045 228.631 144.192 228.316 144.192 227.92C144.192 227.568 144.082 227.289 143.862 227.084C143.656 226.879 143.378 226.776 143.026 226.776H141.486V225.17H142.608C142.916 225.17 143.172 225.06 143.378 224.84C143.598 224.62 143.708 224.356 143.708 224.048C143.708 223.74 143.598 223.469 143.378 223.234C143.172 222.999 142.864 222.882 142.454 222.882C141.676 222.882 141.031 223.161 140.518 223.718L139.176 222.376C140.114 221.393 141.28 220.902 142.674 220.902ZM148.77 221.1H151.19V227.084L155.876 221.1H157.746V231H155.326V225.016L150.662 231H148.77V221.1ZM168.051 231H160.307V221.1H162.727V229.108H166.577V221.1H169.019V229.108H170.295V233.64H168.051V231ZM174.565 231H172.145V221.1H174.565V231ZM173.355 219.582C172.944 219.582 172.6 219.443 172.321 219.164C172.042 218.885 171.903 218.541 171.903 218.13C171.903 217.719 172.042 217.375 172.321 217.096C172.6 216.817 172.944 216.678 173.355 216.678C173.766 216.678 174.11 216.817 174.389 217.096C174.668 217.375 174.807 217.719 174.807 218.13C174.807 218.541 174.668 218.885 174.389 219.164C174.11 219.443 173.766 219.582 173.355 219.582ZM180.562 221.1H184.874V231H182.454V227.216H181.178L179.264 231H176.756L179.044 226.996C177.68 226.541 176.998 225.595 176.998 224.158C176.998 223.234 177.313 222.493 177.944 221.936C178.575 221.379 179.447 221.1 180.562 221.1ZM180.65 225.412H182.454V222.904H180.65C180.313 222.904 180.027 223.021 179.792 223.256C179.557 223.491 179.44 223.791 179.44 224.158C179.44 224.525 179.557 224.825 179.792 225.06C180.027 225.295 180.313 225.412 180.65 225.412Z" fill="#191A1A"/>
</g>
<defs>
<clipPath id="clip0_290_6472">
<rect width="605" height="260" fill="white"/>
</clipPath>
</defs>
</svg>
