<svg width="605" height="260" viewBox="0 0 605 260" fill="none" xmlns="http://www.w3.org/2000/svg">
<g clip-path="url(#clip0_290_6482)">
<rect width="605" height="260" fill="#191A1A"/>
<path d="M96.6889 62.3C96.8771 62.6226 97.2398 62.6898 97.5489 62.7839C100.331 63.7649 103.126 64.7327 105.908 65.7137C124.494 72.2315 143.079 78.7223 161.638 85.2938C180.197 91.8653 198.782 98.4093 217.26 105.142C227.769 108.959 238.211 112.95 248.666 116.874C256.205 119.71 263.812 122.371 271.539 124.696C278.46 126.779 285.448 128.552 292.557 129.829C300.58 131.267 308.683 132.087 316.841 132.396C329.365 132.853 341.85 132.06 354.294 130.34C361.443 129.346 368.539 127.974 375.607 126.523C390.376 123.499 405.159 120.57 419.982 117.869C429.617 116.108 439.28 114.456 448.942 112.964C458.282 111.526 467.568 109.765 476.84 107.937C486.167 106.11 495.506 104.269 504.833 102.468C507.534 101.944 510.249 101.514 512.95 101.016C515.033 100.654 517.143 100.399 519.253 100.224C521.645 100.036 524.037 99.7938 526.429 99.6057C526.872 99.5654 527.342 99.5516 527.786 99.6188C528.431 99.7263 528.956 100.063 529.157 100.721C529.319 101.259 529.466 101.81 529.587 102.361C531.025 109.335 532.436 116.31 533.887 123.271C534.828 127.733 535.809 132.181 536.777 136.616C536.925 137.274 537.085 137.946 537.166 138.618C537.247 139.236 537.274 139.881 537.234 140.486C537.14 141.87 536.4 142.851 535.123 143.402C534.653 143.603 534.156 143.752 533.646 143.886C533.202 144.007 532.745 144.06 532.288 144.114C523.203 145.297 514.187 146.896 505.183 148.67C496.649 150.35 488.102 152.097 479.555 153.79C471.788 155.322 464.02 156.666 456.185 157.808C446.953 159.139 437.774 160.926 428.649 162.955C420.035 164.877 411.448 166.879 402.834 168.855C402.162 169.016 401.49 169.151 400.818 169.312C397.405 170.091 397.324 170.118 397.472 170.32C397.512 170.36 397.513 170.441 397.553 170.454C398.561 170.844 399.555 171.22 400.563 171.583C434.012 183.53 467.447 195.49 500.909 207.45C509.563 210.541 518.231 213.619 526.886 216.709C527.477 216.924 528.068 217.113 528.646 217.341C529.076 217.502 529.479 217.691 529.882 217.906C531.052 218.564 531.724 219.532 531.791 220.916C531.818 221.722 531.724 222.516 531.603 223.308C531.281 225.351 530.85 227.367 530.326 229.369C529.56 232.312 528.633 235.228 527.598 238.091C526.429 241.329 525.206 244.568 524.01 247.806C522.76 251.153 521.577 254.512 520.596 257.939C520.395 258.651 520.153 259.351 519.723 259.996C519.226 260.762 518.513 261.043 517.667 260.922C517.223 260.855 516.766 260.721 516.377 260.52C514.791 259.74 513.111 259.216 511.458 258.638C481.947 248.479 452.57 237.916 423.274 227.192C414.539 223.993 405.791 220.809 397.055 217.61C394.556 216.696 392.029 215.809 389.476 215.057C387.501 214.479 385.525 213.981 383.509 213.605C383.24 213.551 382.958 213.511 382.676 213.471C382.515 213.444 382.3 213.471 382.26 213.646C382.219 213.794 382.286 213.968 382.354 214.116C382.421 214.264 382.528 214.398 382.635 214.532C383.952 216.172 385.216 217.838 386.586 219.424C391.854 225.579 397.15 231.68 402.431 237.822C407.753 244.004 413.061 250.172 418.396 256.34C424.9 263.893 431.418 271.432 437.922 278.957C440.919 282.438 443.916 285.892 446.94 289.346C455.016 298.605 463.106 307.85 471.183 317.083C472.217 318.279 473.252 319.475 474.3 320.684C474.972 321.464 475.537 322.297 476.034 323.197C476.222 323.547 476.397 323.909 476.545 324.272C477.27 326.073 476.894 327.739 475.698 329.258C475.483 329.527 475.201 329.756 475 330.038C474.852 330.212 474.785 330.441 474.677 330.629C474.247 331.005 473.804 331.395 473.373 331.771C472.728 331.933 472.258 332.376 471.761 332.766C470.645 333.666 469.53 334.593 468.401 335.48C464.504 338.544 460.781 341.837 457.153 345.223C455.285 346.957 453.444 348.69 451.562 350.41C450.931 350.988 450.272 351.566 449.533 352.037C447.289 353.501 445.529 353.246 443.782 352.064C443.083 351.58 442.424 351.056 441.86 350.411C441.416 349.887 440.959 349.402 440.516 348.878C430.692 337.469 420.896 326.033 411.059 314.637C393.669 294.506 376.239 274.388 358.836 254.271C355.799 250.75 352.762 247.256 349.724 243.735C349.429 243.385 349.133 243.036 348.838 242.713C348.717 242.592 348.596 242.471 348.475 242.351C348.327 242.203 348.004 242.283 347.924 242.498C347.319 243.856 347.171 245.267 347.332 246.691C347.426 247.538 347.641 248.371 347.937 249.177C348.246 250.024 348.542 250.884 348.905 251.731C349.415 252.994 349.779 254.298 350.034 255.655C351.096 261.205 352.157 266.728 353.259 272.265C358.567 299.021 363.876 325.778 369.197 352.521C371.159 362.465 373.229 372.382 375.782 382.193C375.957 382.851 376.065 383.524 376.132 384.209C376.185 384.72 376.172 385.243 376.078 385.741C375.89 386.735 375.365 387.555 374.424 388.038C373.86 388.334 373.296 388.603 372.664 388.751C372.1 388.885 371.549 389.006 370.984 389.114C365.676 390.041 360.395 391.103 355.127 392.204C350.8 393.118 346.499 394.032 342.172 394.946C341.111 395.175 340.035 395.362 338.947 395.403C338.154 395.443 337.348 395.417 336.555 395.242C335.292 394.973 334.243 394.355 333.41 393.36C332.792 392.608 332.348 391.761 332.012 390.86C331.569 389.691 331.327 388.455 331.085 387.219C329.486 378.82 327.914 370.421 326.301 362.035C322.323 341.286 318.184 320.564 313.803 299.895C311.855 290.716 309.866 281.524 308.038 272.305C306.681 265.492 305.243 258.705 303.832 251.892C303.711 251.341 303.603 250.777 303.456 250.226C303.415 250.078 303.267 249.957 303.16 249.822C303.267 249.715 303.213 249.634 303.159 249.715C303.039 249.916 303.106 249.634 303.213 249.822C303.133 249.903 302.985 249.943 302.945 250.037C302.797 250.346 302.662 250.669 302.555 250.991C298.967 261.138 295.352 271.257 291.818 281.403C287.692 293.243 283.795 305.149 280.287 317.177C279.28 320.658 278.204 324.125 276.995 327.538C275.14 332.806 273.272 338.06 271.324 343.288C267.615 353.26 264.255 363.365 261.54 373.632C260.842 376.293 260.022 378.941 259.229 381.588C258.906 382.69 258.543 383.778 258.154 384.867C257.912 385.566 257.603 386.251 257.24 386.91C256.433 388.388 255.318 388.912 253.665 388.657C253.155 388.576 252.671 388.442 252.187 388.281C251.704 388.119 251.233 387.918 250.763 387.743C240.16 383.698 229.516 379.801 218.779 376.132C218.295 375.971 217.811 375.809 217.354 375.594C216.951 375.406 216.548 375.164 216.199 374.896C215.567 374.425 215.272 373.754 215.312 372.961C215.339 372.504 215.419 372.047 215.513 371.603C215.674 370.878 215.862 370.152 216.024 369.426C216.857 365.663 217.838 361.941 218.94 358.259C220.526 352.964 222.326 347.75 224.221 342.576C226.425 336.582 228.643 330.602 230.833 324.595C232.983 318.709 234.959 312.755 236.571 306.708C238.184 300.661 240.012 294.667 241.974 288.7C244.312 281.605 246.839 274.563 249.365 267.521C251.986 260.224 254.606 252.9 257.011 245.522C257.509 244.003 258.006 242.458 258.638 240.966C258.893 240.335 259.108 239.663 259.256 239.004C259.578 237.445 259.189 236.061 258.181 234.865C257.912 234.543 257.59 234.489 257.294 234.731C256.851 235.094 256.407 235.457 255.963 235.846C230.511 258.02 205.045 280.181 179.592 302.354C172.147 308.832 164.729 315.336 157.364 321.894C156.074 323.05 154.757 324.179 153.467 325.334C152.769 325.953 152.016 326.49 151.183 326.893C150.82 327.068 150.443 327.229 150.067 327.31C148.938 327.551 147.917 327.39 147.043 326.571C146.775 326.302 146.533 325.953 146.09 325.939L143.643 323.116C143.495 322.485 143.039 322.028 142.636 321.571C140.338 318.87 138.053 316.129 135.728 313.455C133 310.297 130.232 307.152 127.477 304.021C126.993 303.483 126.536 302.892 125.864 302.569L122.746 298.968C122.84 298.578 122.585 298.322 122.37 298.054C121.953 297.476 121.833 296.817 121.833 296.119C121.819 295.353 122.048 294.64 122.41 293.982C122.746 293.377 123.123 292.786 123.633 292.302C124.467 291.496 125.273 290.663 126.133 289.91C130.232 286.349 134.357 282.841 138.456 279.28C143.254 275.127 148.051 270.975 152.849 266.795C159.824 260.735 166.771 254.674 173.732 248.6C191.686 232.93 209.654 217.274 227.621 201.591C227.836 201.403 228.051 201.215 228.266 201.027C228.387 200.906 228.522 200.799 228.643 200.678C228.723 200.597 228.804 200.516 228.885 200.436C228.992 200.328 228.911 200.059 228.777 200.005C227.581 199.562 226.331 199.575 225.054 199.696C224.02 199.79 223.012 200.046 222.031 200.328C220.875 200.651 219.693 200.92 218.51 201.108C203.029 203.715 187.601 206.537 172.16 209.399C157.579 212.1 142.972 214.801 128.377 217.462C116.215 219.68 103.999 221.682 91.8373 224.007C91.2729 224.114 90.7088 224.195 90.1309 224.235C89.674 224.262 89.2033 224.249 88.7732 224.168C87.9535 224.02 87.2816 223.59 86.9188 222.824C86.6769 222.313 86.4622 221.776 86.3009 221.239C86.1396 220.701 86.059 220.137 85.9515 219.572C83.9626 209.117 81.8127 198.689 79.5281 188.287C79.2996 187.226 79.0303 186.177 78.8287 185.115C78.7077 184.511 78.6271 183.866 78.6136 183.261C78.5867 181.971 79.259 181.084 80.4281 180.587C80.8985 180.385 81.3959 180.237 81.9065 180.103C82.4575 179.955 83.035 179.861 83.586 179.74C91.3267 178.1 99.0807 176.582 106.862 175.171C118.755 173.034 130.662 170.938 142.568 168.841C155.214 166.624 167.847 164.42 180.439 161.907C188.811 160.228 197.183 158.574 205.569 157.015C209.291 156.33 212.987 155.538 216.656 154.637C217.26 154.489 217.892 154.341 218.483 154.153C218.631 154.113 218.738 153.951 218.859 153.83C218.899 153.87 218.927 153.898 218.954 153.925C218.967 153.938 219.061 153.871 219.047 153.857C219.007 153.736 218.94 153.75 218.846 153.871C218.752 153.642 218.577 153.522 218.362 153.441C217.502 153.118 216.669 152.796 215.809 152.473C208.431 149.692 201.107 146.829 193.689 144.141C158.601 131.469 123.485 118.876 88.3164 106.419C87.4563 106.123 86.6099 105.814 85.7499 105.492C85.1048 105.25 84.5135 104.927 83.9625 104.538C83.2099 104 82.8871 103.247 82.8737 102.347C82.8602 102.011 82.9142 101.662 82.9814 101.326C83.1293 100.721 83.3177 100.103 83.5327 99.5119C84.0837 97.9396 84.6748 96.3805 85.2258 94.8082C88.8408 84.5008 92.429 74.1934 96.044 63.8859C96.1515 63.5634 96.2586 63.2406 96.3393 62.8912C96.3661 62.7299 96.3263 62.5555 96.2994 62.3943L96.5413 62.1524L96.6889 62.3Z" fill="#F55000"/>
<rect x="50" y="210" width="157" height="32" rx="16" fill="#FFFCF8"/>
<path d="M73.52 231H71.276V221.1H73.586L76.578 226.182L79.592 221.1H81.88V231H79.636V224.818L77.194 229.152H75.962L73.52 224.818V231ZM85.4364 229.768C84.4831 228.815 84.0064 227.575 84.0064 226.05C84.0064 224.525 84.4831 223.285 85.4364 222.332C86.4191 221.379 87.6804 220.902 89.2204 220.902C90.7751 220.902 92.0291 221.379 92.9824 222.332C93.9504 223.285 94.4344 224.525 94.4344 226.05C94.4344 227.59 93.9504 228.829 92.9824 229.768C92.0291 230.721 90.7751 231.198 89.2204 231.198C87.6804 231.198 86.4191 230.721 85.4364 229.768ZM87.2624 223.894C86.7638 224.437 86.5144 225.155 86.5144 226.05C86.5144 226.959 86.7638 227.685 87.2624 228.228C87.7611 228.771 88.4138 229.042 89.2204 229.042C90.0271 229.042 90.6798 228.771 91.1784 228.228C91.6771 227.685 91.9264 226.959 91.9264 226.05C91.9264 225.155 91.6771 224.437 91.1784 223.894C90.6651 223.337 90.0124 223.058 89.2204 223.058C88.4284 223.058 87.7758 223.337 87.2624 223.894ZM96.5631 221.1H98.9831V225.082H103.075V221.1H105.517V231H103.075V226.974H98.9831V231H96.5631V221.1ZM117.121 226.776H110.235C110.352 227.495 110.653 228.052 111.137 228.448C111.635 228.844 112.273 229.042 113.051 229.042C113.975 229.042 114.693 228.763 115.207 228.206L116.659 229.702C115.691 230.699 114.429 231.198 112.875 231.198C111.335 231.198 110.073 230.721 109.091 229.768C108.137 228.815 107.661 227.553 107.661 225.984C107.661 224.488 108.101 223.271 108.981 222.332C109.89 221.379 111.063 220.902 112.501 220.902C113.982 220.902 115.119 221.415 115.911 222.442C116.717 223.469 117.121 224.913 117.121 226.776ZM112.567 222.992C111.951 222.992 111.437 223.183 111.027 223.564C110.616 223.931 110.352 224.444 110.235 225.104H114.701C114.481 223.696 113.769 222.992 112.567 222.992ZM126.133 222.992H123.251V231H120.831V222.992H117.971V221.1H126.133V222.992ZM128.167 221.1H130.587V227.084L135.273 221.1H137.143V231H134.723V225.016L130.059 231H128.167V221.1ZM142.674 220.902C143.73 220.902 144.558 221.151 145.16 221.65C145.776 222.149 146.084 222.809 146.084 223.63C146.084 224.657 145.702 225.397 144.94 225.852C146.054 226.263 146.612 227.106 146.612 228.382C146.612 229.262 146.282 229.951 145.622 230.45C144.962 230.949 144.008 231.198 142.762 231.198C141.266 231.198 140.034 230.699 139.066 229.702L140.386 228.36C140.914 228.932 141.632 229.218 142.542 229.218C143.07 229.218 143.473 229.101 143.752 228.866C144.045 228.631 144.192 228.316 144.192 227.92C144.192 227.568 144.082 227.289 143.862 227.084C143.656 226.879 143.378 226.776 143.026 226.776H141.486V225.17H142.608C142.916 225.17 143.172 225.06 143.378 224.84C143.598 224.62 143.708 224.356 143.708 224.048C143.708 223.74 143.598 223.469 143.378 223.234C143.172 222.999 142.864 222.882 142.454 222.882C141.676 222.882 141.031 223.161 140.518 223.718L139.176 222.376C140.114 221.393 141.28 220.902 142.674 220.902ZM148.77 221.1H151.19V227.084L155.876 221.1H157.746V231H155.326V225.016L150.662 231H148.77V221.1ZM168.051 231H160.307V221.1H162.727V229.108H166.577V221.1H169.019V229.108H170.295V233.64H168.051V231ZM174.565 231H172.145V221.1H174.565V231ZM173.355 219.582C172.944 219.582 172.6 219.443 172.321 219.164C172.042 218.885 171.903 218.541 171.903 218.13C171.903 217.719 172.042 217.375 172.321 217.096C172.6 216.817 172.944 216.678 173.355 216.678C173.766 216.678 174.11 216.817 174.389 217.096C174.668 217.375 174.807 217.719 174.807 218.13C174.807 218.541 174.668 218.885 174.389 219.164C174.11 219.443 173.766 219.582 173.355 219.582ZM180.562 221.1H184.874V231H182.454V227.216H181.178L179.264 231H176.756L179.044 226.996C177.68 226.541 176.998 225.595 176.998 224.158C176.998 223.234 177.313 222.493 177.944 221.936C178.575 221.379 179.447 221.1 180.562 221.1ZM180.65 225.412H182.454V222.904H180.65C180.313 222.904 180.027 223.021 179.792 223.256C179.557 223.491 179.44 223.791 179.44 224.158C179.44 224.525 179.557 224.825 179.792 225.06C180.027 225.295 180.313 225.412 180.65 225.412Z" fill="#191A1A"/>
</g>
<defs>
<clipPath id="clip0_290_6482">
<rect width="605" height="260" fill="white"/>
</clipPath>
</defs>
</svg>
