<svg width="75" height="146" viewBox="0 0 75 146" fill="none" xmlns="http://www.w3.org/2000/svg">
<mask id="path-1-inside-1_436_5563" fill="white">
<path d="M97.0399 145.311C97.07 145.196 97.0038 145.1 96.9557 145.01C96.5525 144.167 96.1434 143.325 95.7402 142.483C93.0387 136.863 90.3311 131.249 87.6476 125.623C84.9641 119.998 82.2685 114.372 79.6391 108.728C78.1409 105.521 76.6969 102.29 75.2348 99.071C74.1818 96.7485 73.0747 94.4501 71.8654 92.1998C70.7823 90.1842 69.6151 88.2227 68.3094 86.3454C66.8353 84.2275 65.2047 82.2298 63.4478 80.3345C60.7462 77.4283 57.7739 74.811 54.603 72.4103C52.7799 71.0324 50.8846 69.751 48.9772 68.4935C44.9941 65.8641 41.029 63.2107 37.106 60.4971C34.5548 58.7341 32.0217 56.941 29.5247 55.1119C27.112 53.3429 24.639 51.6583 22.1541 49.9916C19.6571 48.3129 17.1541 46.6343 14.6631 44.9496C13.9411 44.4622 13.2371 43.9508 12.5211 43.4574C11.9736 43.0723 11.4441 42.657 10.9327 42.2238C10.355 41.7304 9.76538 41.2491 9.18777 40.7557C9.07946 40.6655 8.97116 40.5633 8.88692 40.449C8.76659 40.2805 8.72447 40.0877 8.82675 39.8952C8.91099 39.7388 9.00125 39.5823 9.09752 39.4319C10.337 37.5486 11.5825 35.6714 12.8159 33.7881C13.6041 32.5788 14.3803 31.3633 15.1565 30.1539C15.2708 29.9734 15.3851 29.7871 15.5175 29.6187C15.6378 29.4622 15.7762 29.3117 15.9206 29.1853C16.2516 28.8965 16.6366 28.8425 17.0458 29.0049C17.1962 29.0651 17.3406 29.1431 17.485 29.2273C17.6114 29.2995 17.7257 29.39 17.84 29.4803C20.1384 31.2492 22.5151 32.9097 24.9279 34.5282C27.2143 36.0625 29.5187 37.5847 31.8111 39.119C33.893 40.5149 35.9327 41.9531 37.9423 43.4513C40.307 45.2202 42.7618 46.8749 45.2588 48.4633C47.6174 49.9615 49.9881 51.4358 52.3587 52.9219C52.5452 53.0362 52.7257 53.1563 52.9123 53.2707C53.8509 53.8603 53.875 53.8724 53.887 53.7942C53.887 53.7761 53.905 53.758 53.899 53.746C53.7606 53.4331 53.6223 53.1263 53.4779 52.8194C48.6644 42.6569 43.8569 32.4946 39.0434 22.3262C37.7979 19.6968 36.5464 17.0675 35.3009 14.4381C35.2167 14.2576 35.1264 14.0831 35.0482 13.9026C34.9881 13.7702 34.9399 13.6379 34.8978 13.4995C34.7835 13.0903 34.8497 12.7233 35.1445 12.3983C35.319 12.2118 35.5175 12.0552 35.7221 11.9048C36.2516 11.5197 36.7991 11.1648 37.3647 10.8339C38.195 10.3465 39.0554 9.9013 39.9279 9.49216C40.9146 9.02886 41.9135 8.57772 42.9062 8.12044C43.9351 7.65113 44.952 7.16376 45.9387 6.61623C46.1433 6.50191 46.3539 6.39936 46.5946 6.35123C46.8774 6.29106 47.1 6.38758 47.2624 6.60418C47.3467 6.7185 47.4189 6.8508 47.461 6.98317C47.6415 7.51266 47.9002 8.00591 48.1409 8.50531C52.473 17.3862 56.6848 26.3274 60.8425 35.2865C62.0819 37.958 63.3274 40.6293 64.5669 43.3008C64.9219 44.065 65.2889 44.8291 65.6921 45.5692C66.0049 46.1408 66.3359 46.6945 66.7029 47.23C66.751 47.3022 66.8052 47.3743 66.8593 47.4465C66.8894 47.4886 66.9436 47.5307 66.9917 47.5006C67.0338 47.4765 67.0579 47.4224 67.0759 47.3743C67.094 47.3261 67.1 47.2721 67.106 47.218C67.1782 46.5561 67.2685 45.9002 67.3166 45.2384C67.5152 42.6812 67.6957 40.1299 67.8882 37.5728C68.0807 34.9976 68.2733 32.4283 68.4598 29.8531C68.6945 26.7063 68.9231 23.5597 69.1518 20.4189C69.2601 18.9688 69.3623 17.5246 69.4586 16.0746C69.7234 12.1937 69.9821 8.31291 70.2408 4.43806C70.2769 3.93866 70.313 3.43926 70.3491 2.93384C70.3732 2.60893 70.4333 2.29601 70.5236 1.98313C70.5597 1.86279 70.6018 1.74255 70.6499 1.62823C70.8906 1.06265 71.3479 0.773814 71.9556 0.701611C72.0639 0.689578 72.1782 0.701447 72.2865 0.683396C72.3587 0.677379 72.4249 0.64122 72.4911 0.623169C72.6716 0.635203 72.8581 0.647272 73.0386 0.659305C73.2191 0.767609 73.4237 0.773614 73.6223 0.797681C74.0735 0.845816 74.5308 0.888075 74.9821 0.942227C76.5405 1.12875 78.1108 1.22505 79.6813 1.27921C80.4875 1.30929 81.2878 1.3333 82.094 1.3694C82.3648 1.38143 82.6415 1.39943 82.9123 1.45959C83.7426 1.63408 84.0796 2.08528 84.2059 2.74111C84.2541 3.00586 84.2841 3.27064 84.2661 3.5414C84.248 3.75801 84.242 3.96879 84.224 4.18539C83.869 8.93871 83.502 13.6919 83.153 18.4452C82.5393 26.8447 81.9376 35.2503 81.3299 43.6499C81.2216 45.118 81.1193 46.5801 81.011 48.0482C80.9989 48.1926 80.9869 48.337 80.9809 48.4754C80.9809 48.5295 80.9809 48.5837 80.9809 48.6379C80.9809 48.704 81.0711 48.7581 81.1373 48.7281C81.5766 48.5596 81.9255 48.2769 82.2083 47.9219C82.3768 47.7113 82.5152 47.4767 82.6295 47.23C82.7498 46.9713 82.8762 46.7125 82.9845 46.4418C83.153 46.0446 83.3635 45.6714 83.6102 45.3104C84.6151 43.8302 85.6139 42.3562 86.6067 40.87C91.4081 33.6919 96.2096 26.5138 101.005 19.3356C102.792 16.6702 104.549 13.9868 106.173 11.2191C106.282 11.0325 106.408 10.8578 106.547 10.6894C106.649 10.563 106.769 10.4488 106.902 10.3585C107.166 10.178 107.467 10.112 107.786 10.2143C107.979 10.2745 108.165 10.3404 108.34 10.4487C108.496 10.545 108.646 10.6414 108.797 10.7437C110.193 11.7245 111.613 12.6691 113.039 13.6017C114.212 14.3659 115.379 15.1239 116.553 15.888C116.841 16.0745 117.124 16.2732 117.377 16.5079C117.563 16.6764 117.738 16.8627 117.876 17.0793C118.099 17.4223 118.195 17.7954 118.159 18.2046C118.129 18.5114 118.039 18.8003 117.912 19.0771C117.75 19.4381 117.527 19.7689 117.305 20.0998C115.782 22.3381 114.254 24.5703 112.738 26.8085C108.983 32.344 105.271 37.9096 101.625 43.5174C100.006 46.0083 98.3937 48.5114 96.739 50.9844C95.5176 52.8135 94.3203 54.6547 93.1109 56.4959C93.0146 56.6463 92.9123 56.7966 92.8221 56.953C92.798 56.9952 92.804 57.0555 92.798 57.1096C92.7499 57.1096 92.7439 57.1397 92.7739 57.1337C92.8461 57.1157 92.7679 57.1638 92.7859 57.0976C92.8221 57.0976 92.8642 57.1217 92.8943 57.1096C92.9966 57.0735 93.0989 57.0314 93.1951 56.9833C96.2697 55.5152 99.3444 54.0589 102.407 52.5788C105.981 50.8519 109.519 49.0589 112.997 47.1516C114.001 46.598 115.018 46.0626 116.053 45.5692C117.648 44.8051 119.242 44.0469 120.849 43.3129C123.911 41.9109 126.926 40.4008 129.832 38.71C130.584 38.2708 131.36 37.8616 132.13 37.4464C132.449 37.272 132.774 37.1096 133.105 36.9532C133.315 36.8509 133.538 36.7667 133.767 36.7005C134.278 36.5501 134.645 36.6823 134.958 37.1095C135.054 37.2418 135.133 37.3802 135.205 37.5246C135.277 37.669 135.337 37.8194 135.403 37.9638C136.871 41.243 138.382 44.4982 139.964 47.7233C140.036 47.8677 140.109 48.0121 140.163 48.1625C140.211 48.2949 140.247 48.4392 140.265 48.5776C140.301 48.8243 140.217 49.0408 140.03 49.2093C139.922 49.3055 139.802 49.3899 139.681 49.4681C139.483 49.5945 139.278 49.7149 139.08 49.8412C138.051 50.4971 136.998 51.1107 135.927 51.6883C134.386 52.5186 132.816 53.2828 131.234 54.0169C129.399 54.8653 127.563 55.7076 125.728 56.562C123.929 57.3983 122.154 58.2889 120.439 59.2816C118.725 60.2744 116.974 61.207 115.199 62.1035C113.087 63.1685 110.945 64.1793 108.803 65.1901C106.583 66.237 104.356 67.2902 102.166 68.4033C101.715 68.6319 101.258 68.8665 100.782 69.059C100.584 69.1433 100.385 69.2456 100.205 69.3599C99.7836 69.6367 99.5609 70.0337 99.5188 70.5271C99.5068 70.6595 99.567 70.7436 99.6873 70.7557C99.8678 70.7737 100.048 70.7918 100.235 70.8039C110.897 71.5379 121.559 72.2779 132.22 73.012C135.337 73.2286 138.454 73.4332 141.571 73.6137C142.118 73.6438 142.666 73.6858 143.213 73.7159C143.508 73.734 143.797 73.7821 144.074 73.8784C144.194 73.9205 144.314 73.9688 144.417 74.035C144.723 74.2335 144.916 74.4982 144.928 74.8773C144.928 74.9976 144.904 75.1299 145 75.2322L144.916 76.4118C144.808 76.5862 144.808 76.7906 144.796 76.9832C144.705 78.1023 144.603 79.2274 144.525 80.3465C144.429 81.6642 144.344 82.988 144.26 84.3056C144.248 84.5343 144.218 84.769 144.296 84.9917L144.188 86.4959C144.08 86.562 144.08 86.6764 144.068 86.7847C144.032 87.0073 143.911 87.1817 143.755 87.3382C143.586 87.5127 143.376 87.621 143.147 87.6872C142.936 87.7474 142.72 87.7954 142.497 87.7894C142.13 87.7834 141.763 87.7894 141.402 87.7653C139.687 87.645 137.979 87.5067 136.264 87.3863C134.26 87.2419 132.257 87.0976 130.247 86.9592C127.329 86.7546 124.417 86.556 121.498 86.3575C113.971 85.8461 106.444 85.3286 98.9111 84.8171C98.8209 84.8111 98.7306 84.8052 98.6404 84.7992C98.5862 84.7992 98.5321 84.793 98.4779 84.793C98.4418 84.793 98.4057 84.793 98.3696 84.793C98.3215 84.793 98.2794 84.8714 98.2974 84.9135C98.4659 85.2805 98.7487 85.5573 99.0616 85.816C99.3143 86.0266 99.5971 86.1949 99.8798 86.3513C100.211 86.5378 100.536 86.7424 100.843 86.965C104.892 89.8471 108.977 92.6691 113.075 95.485C116.944 98.1445 120.818 100.81 124.681 103.481C127.9 105.708 131.083 107.994 134.326 110.196C134.477 110.299 134.621 110.407 134.76 110.527C134.868 110.623 134.97 110.732 135.048 110.846C135.199 111.063 135.253 111.309 135.163 111.562C135.103 111.731 135.03 111.899 134.946 112.055C134.862 112.212 134.754 112.356 134.651 112.507C132.756 115.293 130.903 118.108 129.086 120.948C128.899 121.237 128.725 121.532 128.532 121.815C128.424 121.977 128.297 122.14 128.165 122.278C127.882 122.573 127.533 122.621 127.16 122.471C127.01 122.41 126.865 122.332 126.721 122.248C126.565 122.158 126.414 122.05 126.264 121.953C124.164 120.587 122.088 119.192 120.03 117.766C116.889 115.581 113.755 113.385 110.62 111.189C107.293 108.855 103.971 106.52 100.59 104.264C98.3395 102.765 96.0952 101.261 93.869 99.7329C92.8822 99.053 91.8774 98.4031 90.8546 97.7833C90.6861 97.6811 90.5116 97.5728 90.3371 97.4825C90.295 97.4584 90.2348 97.4707 90.1807 97.4707C90.1807 97.4527 90.1807 97.4405 90.1807 97.4284C90.1807 97.4224 90.1446 97.4165 90.1446 97.4226C90.1265 97.4587 90.1445 97.4706 90.1927 97.4646C90.1626 97.5368 90.1746 97.6029 90.2047 97.6691C90.3251 97.9338 90.4394 98.1926 90.5597 98.4573C91.5886 100.732 92.5874 103.012 93.6464 105.274C98.6645 115.966 103.707 126.646 108.791 137.308C108.917 137.567 109.037 137.826 109.158 138.09C109.248 138.289 109.308 138.494 109.344 138.704C109.392 138.993 109.296 139.234 109.098 139.438C109.025 139.517 108.935 139.583 108.845 139.643C108.676 139.745 108.496 139.841 108.315 139.925C107.84 140.154 107.359 140.371 106.883 140.599C103.767 142.098 100.656 143.602 97.5393 145.1C97.443 145.148 97.3467 145.196 97.2505 145.257C97.2084 145.287 97.1783 145.335 97.1482 145.377H97.0399V145.311Z"/>
</mask>
<path d="M97.0399 145.311C97.07 145.196 97.0038 145.1 96.9557 145.01C96.5525 144.167 96.1434 143.325 95.7402 142.483C93.0387 136.863 90.3311 131.249 87.6476 125.623C84.9641 119.998 82.2685 114.372 79.6391 108.728C78.1409 105.521 76.6969 102.29 75.2348 99.071C74.1818 96.7485 73.0747 94.4501 71.8654 92.1998C70.7823 90.1842 69.6151 88.2227 68.3094 86.3454C66.8353 84.2275 65.2047 82.2298 63.4478 80.3345C60.7462 77.4283 57.7739 74.811 54.603 72.4103C52.7799 71.0324 50.8846 69.751 48.9772 68.4935C44.9941 65.8641 41.029 63.2107 37.106 60.4971C34.5548 58.7341 32.0217 56.941 29.5247 55.1119C27.112 53.3429 24.639 51.6583 22.1541 49.9916C19.6571 48.3129 17.1541 46.6343 14.6631 44.9496C13.9411 44.4622 13.2371 43.9508 12.5211 43.4574C11.9736 43.0723 11.4441 42.657 10.9327 42.2238C10.355 41.7304 9.76538 41.2491 9.18777 40.7557C9.07946 40.6655 8.97116 40.5633 8.88692 40.449C8.76659 40.2805 8.72447 40.0877 8.82675 39.8952C8.91099 39.7388 9.00125 39.5823 9.09752 39.4319C10.337 37.5486 11.5825 35.6714 12.8159 33.7881C13.6041 32.5788 14.3803 31.3633 15.1565 30.1539C15.2708 29.9734 15.3851 29.7871 15.5175 29.6187C15.6378 29.4622 15.7762 29.3117 15.9206 29.1853C16.2516 28.8965 16.6366 28.8425 17.0458 29.0049C17.1962 29.0651 17.3406 29.1431 17.485 29.2273C17.6114 29.2995 17.7257 29.39 17.84 29.4803C20.1384 31.2492 22.5151 32.9097 24.9279 34.5282C27.2143 36.0625 29.5187 37.5847 31.8111 39.119C33.893 40.5149 35.9327 41.9531 37.9423 43.4513C40.307 45.2202 42.7618 46.8749 45.2588 48.4633C47.6174 49.9615 49.9881 51.4358 52.3587 52.9219C52.5452 53.0362 52.7257 53.1563 52.9123 53.2707C53.8509 53.8603 53.875 53.8724 53.887 53.7942C53.887 53.7761 53.905 53.758 53.899 53.746C53.7606 53.4331 53.6223 53.1263 53.4779 52.8194C48.6644 42.6569 43.8569 32.4946 39.0434 22.3262C37.7979 19.6968 36.5464 17.0675 35.3009 14.4381C35.2167 14.2576 35.1264 14.0831 35.0482 13.9026C34.9881 13.7702 34.9399 13.6379 34.8978 13.4995C34.7835 13.0903 34.8497 12.7233 35.1445 12.3983C35.319 12.2118 35.5175 12.0552 35.7221 11.9048C36.2516 11.5197 36.7991 11.1648 37.3647 10.8339C38.195 10.3465 39.0554 9.9013 39.9279 9.49216C40.9146 9.02886 41.9135 8.57772 42.9062 8.12044C43.9351 7.65113 44.952 7.16376 45.9387 6.61623C46.1433 6.50191 46.3539 6.39936 46.5946 6.35123C46.8774 6.29106 47.1 6.38758 47.2624 6.60418C47.3467 6.7185 47.4189 6.8508 47.461 6.98317C47.6415 7.51266 47.9002 8.00591 48.1409 8.50531C52.473 17.3862 56.6848 26.3274 60.8425 35.2865C62.0819 37.958 63.3274 40.6293 64.5669 43.3008C64.9219 44.065 65.2889 44.8291 65.6921 45.5692C66.0049 46.1408 66.3359 46.6945 66.7029 47.23C66.751 47.3022 66.8052 47.3743 66.8593 47.4465C66.8894 47.4886 66.9436 47.5307 66.9917 47.5006C67.0338 47.4765 67.0579 47.4224 67.0759 47.3743C67.094 47.3261 67.1 47.2721 67.106 47.218C67.1782 46.5561 67.2685 45.9002 67.3166 45.2384C67.5152 42.6812 67.6957 40.1299 67.8882 37.5728C68.0807 34.9976 68.2733 32.4283 68.4598 29.8531C68.6945 26.7063 68.9231 23.5597 69.1518 20.4189C69.2601 18.9688 69.3623 17.5246 69.4586 16.0746C69.7234 12.1937 69.9821 8.31291 70.2408 4.43806C70.2769 3.93866 70.313 3.43926 70.3491 2.93384C70.3732 2.60893 70.4333 2.29601 70.5236 1.98313C70.5597 1.86279 70.6018 1.74255 70.6499 1.62823C70.8906 1.06265 71.3479 0.773814 71.9556 0.701611C72.0639 0.689578 72.1782 0.701447 72.2865 0.683396C72.3587 0.677379 72.4249 0.64122 72.4911 0.623169C72.6716 0.635203 72.8581 0.647272 73.0386 0.659305C73.2191 0.767609 73.4237 0.773614 73.6223 0.797681C74.0735 0.845816 74.5308 0.888075 74.9821 0.942227C76.5405 1.12875 78.1108 1.22505 79.6813 1.27921C80.4875 1.30929 81.2878 1.3333 82.094 1.3694C82.3648 1.38143 82.6415 1.39943 82.9123 1.45959C83.7426 1.63408 84.0796 2.08528 84.2059 2.74111C84.2541 3.00586 84.2841 3.27064 84.2661 3.5414C84.248 3.75801 84.242 3.96879 84.224 4.18539C83.869 8.93871 83.502 13.6919 83.153 18.4452C82.5393 26.8447 81.9376 35.2503 81.3299 43.6499C81.2216 45.118 81.1193 46.5801 81.011 48.0482C80.9989 48.1926 80.9869 48.337 80.9809 48.4754C80.9809 48.5295 80.9809 48.5837 80.9809 48.6379C80.9809 48.704 81.0711 48.7581 81.1373 48.7281C81.5766 48.5596 81.9255 48.2769 82.2083 47.9219C82.3768 47.7113 82.5152 47.4767 82.6295 47.23C82.7498 46.9713 82.8762 46.7125 82.9845 46.4418C83.153 46.0446 83.3635 45.6714 83.6102 45.3104C84.6151 43.8302 85.6139 42.3562 86.6067 40.87C91.4081 33.6919 96.2096 26.5138 101.005 19.3356C102.792 16.6702 104.549 13.9868 106.173 11.2191C106.282 11.0325 106.408 10.8578 106.547 10.6894C106.649 10.563 106.769 10.4488 106.902 10.3585C107.166 10.178 107.467 10.112 107.786 10.2143C107.979 10.2745 108.165 10.3404 108.34 10.4487C108.496 10.545 108.646 10.6414 108.797 10.7437C110.193 11.7245 111.613 12.6691 113.039 13.6017C114.212 14.3659 115.379 15.1239 116.553 15.888C116.841 16.0745 117.124 16.2732 117.377 16.5079C117.563 16.6764 117.738 16.8627 117.876 17.0793C118.099 17.4223 118.195 17.7954 118.159 18.2046C118.129 18.5114 118.039 18.8003 117.912 19.0771C117.75 19.4381 117.527 19.7689 117.305 20.0998C115.782 22.3381 114.254 24.5703 112.738 26.8085C108.983 32.344 105.271 37.9096 101.625 43.5174C100.006 46.0083 98.3937 48.5114 96.739 50.9844C95.5176 52.8135 94.3203 54.6547 93.1109 56.4959C93.0146 56.6463 92.9123 56.7966 92.8221 56.953C92.798 56.9952 92.804 57.0555 92.798 57.1096C92.7499 57.1096 92.7439 57.1397 92.7739 57.1337C92.8461 57.1157 92.7679 57.1638 92.7859 57.0976C92.8221 57.0976 92.8642 57.1217 92.8943 57.1096C92.9966 57.0735 93.0989 57.0314 93.1951 56.9833C96.2697 55.5152 99.3444 54.0589 102.407 52.5788C105.981 50.8519 109.519 49.0589 112.997 47.1516C114.001 46.598 115.018 46.0626 116.053 45.5692C117.648 44.8051 119.242 44.0469 120.849 43.3129C123.911 41.9109 126.926 40.4008 129.832 38.71C130.584 38.2708 131.36 37.8616 132.13 37.4464C132.449 37.272 132.774 37.1096 133.105 36.9532C133.315 36.8509 133.538 36.7667 133.767 36.7005C134.278 36.5501 134.645 36.6823 134.958 37.1095C135.054 37.2418 135.133 37.3802 135.205 37.5246C135.277 37.669 135.337 37.8194 135.403 37.9638C136.871 41.243 138.382 44.4982 139.964 47.7233C140.036 47.8677 140.109 48.0121 140.163 48.1625C140.211 48.2949 140.247 48.4392 140.265 48.5776C140.301 48.8243 140.217 49.0408 140.03 49.2093C139.922 49.3055 139.802 49.3899 139.681 49.4681C139.483 49.5945 139.278 49.7149 139.08 49.8412C138.051 50.4971 136.998 51.1107 135.927 51.6883C134.386 52.5186 132.816 53.2828 131.234 54.0169C129.399 54.8653 127.563 55.7076 125.728 56.562C123.929 57.3983 122.154 58.2889 120.439 59.2816C118.725 60.2744 116.974 61.207 115.199 62.1035C113.087 63.1685 110.945 64.1793 108.803 65.1901C106.583 66.237 104.356 67.2902 102.166 68.4033C101.715 68.6319 101.258 68.8665 100.782 69.059C100.584 69.1433 100.385 69.2456 100.205 69.3599C99.7836 69.6367 99.5609 70.0337 99.5188 70.5271C99.5068 70.6595 99.567 70.7436 99.6873 70.7557C99.8678 70.7737 100.048 70.7918 100.235 70.8039C110.897 71.5379 121.559 72.2779 132.22 73.012C135.337 73.2286 138.454 73.4332 141.571 73.6137C142.118 73.6438 142.666 73.6858 143.213 73.7159C143.508 73.734 143.797 73.7821 144.074 73.8784C144.194 73.9205 144.314 73.9688 144.417 74.035C144.723 74.2335 144.916 74.4982 144.928 74.8773C144.928 74.9976 144.904 75.1299 145 75.2322L144.916 76.4118C144.808 76.5862 144.808 76.7906 144.796 76.9832C144.705 78.1023 144.603 79.2274 144.525 80.3465C144.429 81.6642 144.344 82.988 144.26 84.3056C144.248 84.5343 144.218 84.769 144.296 84.9917L144.188 86.4959C144.08 86.562 144.08 86.6764 144.068 86.7847C144.032 87.0073 143.911 87.1817 143.755 87.3382C143.586 87.5127 143.376 87.621 143.147 87.6872C142.936 87.7474 142.72 87.7954 142.497 87.7894C142.13 87.7834 141.763 87.7894 141.402 87.7653C139.687 87.645 137.979 87.5067 136.264 87.3863C134.26 87.2419 132.257 87.0976 130.247 86.9592C127.329 86.7546 124.417 86.556 121.498 86.3575C113.971 85.8461 106.444 85.3286 98.9111 84.8171C98.8209 84.8111 98.7306 84.8052 98.6404 84.7992C98.5862 84.7992 98.5321 84.793 98.4779 84.793C98.4418 84.793 98.4057 84.793 98.3696 84.793C98.3215 84.793 98.2794 84.8714 98.2974 84.9135C98.4659 85.2805 98.7487 85.5573 99.0616 85.816C99.3143 86.0266 99.5971 86.1949 99.8798 86.3513C100.211 86.5378 100.536 86.7424 100.843 86.965C104.892 89.8471 108.977 92.6691 113.075 95.485C116.944 98.1445 120.818 100.81 124.681 103.481C127.9 105.708 131.083 107.994 134.326 110.196C134.477 110.299 134.621 110.407 134.76 110.527C134.868 110.623 134.97 110.732 135.048 110.846C135.199 111.063 135.253 111.309 135.163 111.562C135.103 111.731 135.03 111.899 134.946 112.055C134.862 112.212 134.754 112.356 134.651 112.507C132.756 115.293 130.903 118.108 129.086 120.948C128.899 121.237 128.725 121.532 128.532 121.815C128.424 121.977 128.297 122.14 128.165 122.278C127.882 122.573 127.533 122.621 127.16 122.471C127.01 122.41 126.865 122.332 126.721 122.248C126.565 122.158 126.414 122.05 126.264 121.953C124.164 120.587 122.088 119.192 120.03 117.766C116.889 115.581 113.755 113.385 110.62 111.189C107.293 108.855 103.971 106.52 100.59 104.264C98.3395 102.765 96.0952 101.261 93.869 99.7329C92.8822 99.053 91.8774 98.4031 90.8546 97.7833C90.6861 97.6811 90.5116 97.5728 90.3371 97.4825C90.295 97.4584 90.2348 97.4707 90.1807 97.4707C90.1807 97.4527 90.1807 97.4405 90.1807 97.4284C90.1807 97.4224 90.1446 97.4165 90.1446 97.4226C90.1265 97.4587 90.1445 97.4706 90.1927 97.4646C90.1626 97.5368 90.1746 97.6029 90.2047 97.6691C90.3251 97.9338 90.4394 98.1926 90.5597 98.4573C91.5886 100.732 92.5874 103.012 93.6464 105.274C98.6645 115.966 103.707 126.646 108.791 137.308C108.917 137.567 109.037 137.826 109.158 138.09C109.248 138.289 109.308 138.494 109.344 138.704C109.392 138.993 109.296 139.234 109.098 139.438C109.025 139.517 108.935 139.583 108.845 139.643C108.676 139.745 108.496 139.841 108.315 139.925C107.84 140.154 107.359 140.371 106.883 140.599C103.767 142.098 100.656 143.602 97.5393 145.1C97.443 145.148 97.3467 145.196 97.2505 145.257C97.2084 145.287 97.1783 145.335 97.1482 145.377H97.0399V145.311Z" stroke="#FFFCF8" stroke-width="0.518145" mask="url(#path-1-inside-1_436_5563)"/>
<path d="M64.1936 117.928C64.1936 110.57 63.8266 103.193 64.3019 95.8643C64.7532 88.8847 57.2742 81.2074 49.0311 81.8812C45.0841 82.2062 41.0828 81.9353 37.1057 81.9353C25.8241 81.9353 14.5425 81.9834 3.2669 81.8992C0.872195 81.8811 -0.150667 82.6273 0.017805 84.8656C0.132125 86.3999 0.0298255 87.9463 0.0418592 89.4866C0.0659266 92.8019 0.198309 92.9402 3.83249 92.9402C15.2043 92.9522 26.5762 92.9402 37.9541 92.9642C39.0371 92.9642 40.4571 92.7054 40.9866 93.7343C41.5401 94.8113 40.3488 95.5694 39.5907 96.2914C32.8819 102.651 26.155 108.999 19.4583 115.371C18.6881 116.099 18.0985 116.989 17.3343 117.724C16.137 118.873 16.5281 119.733 17.593 120.768C20.1442 123.235 23.0503 125.389 25.2284 128.187C25.8422 128.975 26.516 128.981 27.2742 128.223C34.3921 121.051 41.6244 113.981 49.0913 107.122C49.4824 106.761 49.8374 106.364 50.1563 105.949C50.6858 105.269 51.149 104.204 52.1659 104.511C53.2309 104.829 52.8037 105.997 52.8037 106.791C52.8338 117.056 52.7676 127.321 52.8458 137.585C52.912 145.913 51.4619 144.589 60.6497 144.691C64.0071 144.727 64.1936 144.523 64.1996 141.292C64.2177 133.506 64.1996 125.72 64.1996 117.934L64.1936 117.928Z" fill="#FFFCF8"/>
</svg>
