<svg width="605" height="260" viewBox="0 0 605 260" fill="none" xmlns="http://www.w3.org/2000/svg">
<g clip-path="url(#clip0_290_6439)">
<rect width="605" height="260" fill="#191A1A"/>
<path d="M509.311 346.278C509.123 345.955 508.76 345.888 508.451 345.794C505.669 344.813 502.874 343.845 500.092 342.864C481.506 336.346 462.921 329.856 444.362 323.284C425.803 316.713 407.218 310.169 388.74 303.436C378.231 299.619 367.789 295.628 357.334 291.704C349.795 288.868 342.188 286.207 334.461 283.882C327.54 281.799 320.552 280.025 313.443 278.749C305.42 277.311 297.317 276.491 289.159 276.182C276.635 275.725 264.15 276.518 251.706 278.238C244.557 279.232 237.461 280.603 230.393 282.055C215.624 285.078 200.841 288.008 186.018 290.709C176.383 292.47 166.72 294.122 157.058 295.614C147.718 297.052 138.432 298.813 129.16 300.64C119.833 302.468 110.494 304.309 101.167 306.11C98.466 306.634 95.7515 307.064 93.0503 307.561C90.9673 307.924 88.857 308.179 86.7472 308.354C84.3551 308.542 81.9631 308.784 79.571 308.972C79.1276 309.013 78.6575 309.026 78.2141 308.959C77.569 308.852 77.0443 308.515 76.8428 307.857C76.6815 307.319 76.5337 306.768 76.4127 306.217C74.9748 299.242 73.5639 292.268 72.1125 285.307C71.1718 280.845 70.1908 276.397 69.2232 271.962C69.0753 271.304 68.9145 270.632 68.8339 269.96C68.7533 269.342 68.7261 268.697 68.7664 268.092C68.8605 266.708 69.5999 265.727 70.8765 265.176C71.3469 264.974 71.8436 264.826 72.3543 264.692C72.7978 264.571 73.2552 264.518 73.7122 264.464C82.7967 263.281 91.8135 261.682 100.817 259.908C109.351 258.228 117.898 256.481 126.445 254.787C134.212 253.255 141.98 251.912 149.815 250.77C159.047 249.439 168.226 247.652 177.351 245.623C185.965 243.701 194.552 241.699 203.166 239.723C203.838 239.562 204.51 239.427 205.182 239.266C208.595 238.486 208.676 238.46 208.528 238.258C208.488 238.218 208.487 238.137 208.447 238.124C207.439 237.734 206.445 237.358 205.437 236.995C171.988 225.048 138.553 213.088 105.091 201.127C96.4367 198.037 87.7689 194.959 79.1145 191.868C78.5232 191.653 77.9317 191.465 77.3538 191.237C76.9238 191.075 76.5208 190.887 76.1176 190.672C74.9484 190.014 74.2764 189.046 74.2092 187.662C74.1823 186.856 74.276 186.062 74.3969 185.269C74.7195 183.227 75.1497 181.211 75.6739 179.209C76.4399 176.266 77.3672 173.35 78.4019 170.487C79.5711 167.249 80.7943 164.01 81.9903 160.771C83.2401 157.425 84.4227 154.066 85.4037 150.639C85.6053 149.927 85.8467 149.227 86.2767 148.582C86.7739 147.816 87.4867 147.534 88.3333 147.655C88.7768 147.723 89.2336 147.857 89.6233 148.058C91.2091 148.838 92.8886 149.362 94.5415 149.94C124.053 160.099 153.43 170.662 182.726 181.386C191.461 184.585 200.209 187.769 208.945 190.968C211.444 191.882 213.971 192.769 216.524 193.521C218.499 194.099 220.475 194.597 222.491 194.973C222.76 195.027 223.042 195.067 223.324 195.107C223.485 195.134 223.7 195.107 223.74 194.932C223.781 194.784 223.714 194.61 223.646 194.462C223.579 194.314 223.472 194.18 223.365 194.045C222.048 192.406 220.784 190.74 219.414 189.154C214.146 182.999 208.85 176.897 203.569 170.756C198.247 164.574 192.939 158.406 187.604 152.237C181.1 144.685 174.582 137.146 168.078 129.621C165.081 126.14 162.084 122.686 159.06 119.232C150.984 109.973 142.894 100.728 134.817 91.4953C133.783 90.2993 132.748 89.1032 131.7 87.8938C131.028 87.1143 130.463 86.281 129.966 85.3806C129.778 85.0312 129.603 84.6686 129.455 84.3057C128.73 82.505 129.106 80.8385 130.302 79.32C130.517 79.0512 130.799 78.8224 131 78.5402C131.148 78.3655 131.215 78.1369 131.323 77.9487C131.753 77.5725 132.196 77.1828 132.627 76.8065C133.272 76.6453 133.742 76.2018 134.239 75.812C135.355 74.9117 136.47 73.9847 137.599 73.0977C141.496 70.0337 145.219 66.7414 148.847 63.3548C150.715 61.6212 152.556 59.8875 154.438 58.1674C155.069 57.5895 155.728 57.0115 156.467 56.5412C158.711 55.0764 160.471 55.3315 162.218 56.5141C162.917 56.9979 163.576 57.5222 164.14 58.1672C164.584 58.6913 165.041 59.1755 165.484 59.6997C175.308 71.109 185.104 82.5449 194.941 93.9408C212.331 114.072 229.761 134.19 247.164 154.307C250.201 157.828 253.238 161.322 256.276 164.843C256.571 165.193 256.867 165.542 257.162 165.865C257.283 165.985 257.404 166.106 257.525 166.227C257.673 166.375 257.996 166.294 258.076 166.079C258.681 164.722 258.829 163.311 258.668 161.887C258.574 161.04 258.359 160.207 258.063 159.401C257.754 158.554 257.458 157.694 257.095 156.847C256.585 155.584 256.221 154.28 255.966 152.923C254.904 147.373 253.843 141.849 252.741 136.313C247.433 109.556 242.124 82.8002 236.803 56.0573C234.841 46.1128 232.771 36.1954 230.218 26.3853C230.043 25.7268 229.935 25.0543 229.868 24.3689C229.815 23.8582 229.828 23.3344 229.922 22.8372C230.11 21.8427 230.635 21.0233 231.576 20.5395C232.14 20.2438 232.704 19.9746 233.336 19.8268C233.9 19.6924 234.451 19.5718 235.016 19.4643C240.324 18.537 245.605 17.4754 250.873 16.3734C255.2 15.4596 259.501 14.5455 263.828 13.6317C264.889 13.4032 265.965 13.2154 267.053 13.1751C267.846 13.1348 268.652 13.1613 269.445 13.336C270.708 13.6048 271.757 14.2231 272.59 15.2175C273.208 15.9701 273.652 16.817 273.988 17.7174C274.431 18.8866 274.673 20.1225 274.915 21.3589C276.514 29.758 278.086 38.157 279.699 46.5427C283.677 67.2919 287.816 88.0143 292.197 108.683C294.145 117.861 296.134 127.054 297.962 136.273C299.319 143.086 300.757 149.873 302.168 156.686C302.289 157.237 302.397 157.801 302.544 158.352C302.585 158.5 302.733 158.621 302.84 158.756C302.733 158.863 302.787 158.944 302.841 158.863C302.961 158.662 302.894 158.944 302.787 158.756C302.867 158.675 303.015 158.635 303.055 158.541C303.203 158.231 303.338 157.909 303.445 157.586C307.033 147.44 310.648 137.321 314.182 127.174C318.308 115.335 322.205 103.428 325.713 91.4009C326.72 87.9203 327.796 84.4532 329.005 81.0398C330.86 75.7719 332.728 70.5174 334.676 65.2898C338.385 55.3184 341.745 45.2127 344.46 34.9456C345.158 32.2847 345.978 29.6372 346.771 26.9898C347.094 25.8878 347.457 24.7995 347.846 23.711C348.088 23.0122 348.397 22.3269 348.76 21.6684C349.567 20.1901 350.682 19.6656 352.335 19.921C352.845 20.0016 353.329 20.1359 353.813 20.2972C354.296 20.4585 354.767 20.66 355.237 20.8347C365.84 24.8797 376.484 28.7772 387.221 32.4459C387.705 32.6072 388.189 32.7684 388.646 32.9834C389.049 33.1716 389.452 33.4134 389.801 33.6822C390.433 34.1525 390.728 34.8242 390.688 35.6171C390.661 36.074 390.581 36.5312 390.487 36.9747C390.326 37.7003 390.138 38.4262 389.976 39.1519C389.143 42.9147 388.162 46.6369 387.06 50.3191C385.474 55.6139 383.674 60.8282 381.779 66.0021C379.575 71.9957 377.357 77.9759 375.167 83.983C373.017 89.8691 371.041 95.8224 369.429 101.87C367.816 107.917 365.988 113.911 364.026 119.877C361.688 126.973 359.161 134.015 356.635 141.056C354.014 148.354 351.394 155.678 348.989 163.056C348.491 164.575 347.994 166.12 347.362 167.611C347.107 168.243 346.892 168.915 346.744 169.574C346.422 171.132 346.811 172.517 347.819 173.713C348.088 174.035 348.41 174.089 348.706 173.847C349.149 173.484 349.593 173.121 350.037 172.731C375.489 150.558 400.955 128.397 426.408 106.224C433.853 99.7462 441.271 93.2419 448.636 86.6839C449.926 85.5282 451.243 84.3992 452.533 83.2435C453.231 82.6253 453.984 82.0878 454.817 81.6846C455.18 81.5099 455.557 81.349 455.933 81.2683C457.062 81.0265 458.083 81.1876 458.957 82.0074C459.225 82.2761 459.467 82.6254 459.91 82.6388L462.357 85.4615C462.505 86.0931 462.961 86.5497 463.364 87.0066C465.662 89.7077 467.947 92.4489 470.272 95.1232C473 98.2813 475.768 101.426 478.523 104.557C479.007 105.095 479.464 105.686 480.136 106.009L483.254 109.61C483.16 110 483.415 110.255 483.63 110.524C484.047 111.102 484.167 111.76 484.167 112.459C484.181 113.225 483.952 113.938 483.59 114.596C483.254 115.201 482.877 115.792 482.367 116.276C481.533 117.082 480.727 117.915 479.867 118.668C475.768 122.229 471.643 125.737 467.544 129.298C462.746 133.45 457.949 137.603 453.151 141.782C446.176 147.843 439.229 153.904 432.268 159.978C414.314 175.648 396.346 191.304 378.379 206.986C378.164 207.175 377.949 207.363 377.734 207.551C377.613 207.672 377.478 207.779 377.357 207.9C377.277 207.981 377.196 208.062 377.115 208.142C377.008 208.25 377.089 208.519 377.223 208.572C378.419 209.016 379.669 209.002 380.946 208.882C381.98 208.787 382.988 208.532 383.969 208.249C385.125 207.927 386.307 207.658 387.49 207.47C402.971 204.863 418.399 202.041 433.84 199.179C448.421 196.478 463.028 193.776 477.623 191.116C489.785 188.898 502.001 186.896 514.163 184.571C514.727 184.464 515.291 184.383 515.869 184.342C516.326 184.316 516.797 184.329 517.227 184.41C518.047 184.558 518.718 184.988 519.081 185.754C519.323 186.264 519.538 186.802 519.699 187.339C519.86 187.877 519.941 188.441 520.049 189.006C522.037 199.461 524.187 209.889 526.472 220.291C526.7 221.352 526.97 222.401 527.171 223.463C527.292 224.067 527.373 224.712 527.386 225.317C527.413 226.607 526.741 227.494 525.572 227.991C525.102 228.193 524.604 228.34 524.093 228.475C523.542 228.623 522.965 228.717 522.414 228.838C514.673 230.478 506.919 231.996 499.138 233.407C487.245 235.544 475.338 237.64 463.432 239.737C450.786 241.954 438.153 244.157 425.561 246.671C417.189 248.35 408.817 250.004 400.431 251.562C396.709 252.248 393.013 253.04 389.344 253.941C388.74 254.089 388.108 254.236 387.517 254.425C387.369 254.465 387.262 254.627 387.141 254.748C387.101 254.707 387.073 254.68 387.046 254.653C387.033 254.64 386.939 254.707 386.953 254.721C386.993 254.842 387.06 254.828 387.154 254.707C387.248 254.936 387.423 255.056 387.638 255.137C388.498 255.459 389.331 255.782 390.191 256.105C397.569 258.886 404.893 261.749 412.311 264.437C447.399 277.109 482.515 289.702 517.684 302.159C518.544 302.455 519.39 302.764 520.25 303.086C520.895 303.328 521.487 303.651 522.038 304.04C522.79 304.578 523.113 305.331 523.126 306.231C523.14 306.567 523.086 306.916 523.019 307.252C522.871 307.857 522.682 308.475 522.467 309.066C521.916 310.638 521.325 312.197 520.774 313.77C517.159 324.077 513.571 334.385 509.956 344.692C509.849 345.014 509.741 345.337 509.661 345.687C509.634 345.848 509.674 346.022 509.701 346.184L509.459 346.426L509.311 346.278Z" fill="#F55000"/>
</g>
<defs>
<clipPath id="clip0_290_6439">
<rect width="605" height="260" fill="white"/>
</clipPath>
</defs>
</svg>
