<svg width="331" height="220" viewBox="5 159 331 220" fill="none" xmlns="http://www.w3.org/2000/svg">
<rect width="331" height="220" transform="translate(5 159)" fill="#191A1A"/>
<path d="M47.0764 91.3153L40.6206 94.8938L34.5289 90.2074L21.9873 97.1593L22.7746 104.786L16.3188 108.365L13.1519 72.492L18.333 69.62L47.0764 91.3153ZM29.8199 86.3671L19.754 78.2931L21.2259 91.1308L29.8199 86.3671ZM64.3529 81.7388L58.8017 84.8159L57.3202 82.1431C53.6194 84.1944 50.0311 84.7679 46.5554 83.8635C43.0644 82.9317 40.3617 80.7387 38.447 77.2846C36.5324 73.8306 36.1049 70.3764 37.1646 66.9221C38.2395 63.4952 40.6273 60.7561 44.3281 58.7047L42.8465 56.0319L48.3977 52.9549L49.8793 55.6277C53.6075 53.5611 57.1957 52.9876 60.6441 53.9072C64.135 54.8391 66.8378 57.032 68.7524 60.4861C70.667 63.9402 71.0945 67.3943 70.0348 70.8486C68.9874 74.2603 66.5995 76.9994 62.8713 79.066L64.3529 81.7388ZM52.6144 60.562L60.1362 74.1316C62.1099 73.0375 63.358 71.5394 63.8804 69.6372C64.415 67.6924 64.1201 65.7057 62.9956 63.6771C61.8711 61.6486 60.3502 60.3594 58.4328 59.8096C56.5277 59.2172 54.5882 59.468 52.6144 60.562ZM54.585 77.2087L47.0633 63.6391C45.1169 64.718 43.8764 66.2298 43.3418 68.1746C42.8224 70.1469 43.1098 72.1198 44.2038 74.0936C45.2979 76.0673 46.8188 77.3565 48.7666 77.9612C50.6992 78.5384 52.6386 78.2876 54.585 77.2087ZM85.9977 69.7409L80.4465 72.818L64.4913 44.034L70.0425 40.957L85.9977 69.7409ZM110.149 18.7257L126.104 47.5096L90.1241 67.4536L74.169 38.6696L79.7201 35.5926L93.1681 59.8533L102.831 54.4969L89.3833 30.2362L94.9345 27.1591L108.382 51.4198L118.046 46.0635L104.598 21.8027L110.149 18.7257ZM159.313 29.1016L152.857 32.6802L146.765 27.9937L134.224 34.9456L135.011 42.5724L128.555 46.1509L125.388 10.2783L130.569 7.40638L159.313 29.1016ZM142.056 24.1534L131.99 16.0794L133.462 28.9172L142.056 24.1534Z" fill="#FFFCF8" fill-opacity="0.35"/>
<path d="M47.0764 184.725L40.6206 188.303L34.5289 183.617L21.9873 190.569L22.7746 198.196L16.3188 201.774L13.1519 165.902L18.333 163.03L47.0764 184.725ZM29.8199 179.777L19.754 171.703L21.2259 184.54L29.8199 179.777ZM64.3529 175.148L58.8017 178.225L57.3202 175.553C53.6194 177.604 50.0311 178.178 46.5554 177.273C43.0644 176.341 40.3617 174.148 38.447 170.694C36.5324 167.24 36.1049 163.786 37.1646 160.332C38.2395 156.905 40.6273 154.166 44.3281 152.114L42.8465 149.442L48.3977 146.364L49.8793 149.037C53.6075 146.971 57.1957 146.397 60.6441 147.317C64.135 148.249 66.8378 150.442 68.7524 153.896C70.667 157.35 71.0945 160.804 70.0348 164.258C68.9874 167.67 66.5995 170.409 62.8713 172.476L64.3529 175.148ZM52.6144 153.972L60.1362 167.541C62.1099 166.447 63.358 164.949 63.8804 163.047C64.415 161.102 64.1201 159.115 62.9956 157.087C61.8711 155.058 60.3502 153.769 58.4328 153.219C56.5277 152.627 54.5882 152.878 52.6144 153.972ZM54.585 170.618L47.0633 157.049C45.1169 158.128 43.8764 159.639 43.3418 161.584C42.8224 163.556 43.1098 165.529 44.2038 167.503C45.2979 169.477 46.8188 170.766 48.7666 171.371C50.6992 171.948 52.6386 171.697 54.585 170.618ZM85.9977 163.15L80.4465 166.228L64.4913 137.444L70.0425 134.367L85.9977 163.15ZM110.149 112.135L126.104 140.919L90.1241 160.863L74.169 132.079L79.7201 129.002L93.1681 153.263L102.831 147.907L89.3833 123.646L94.9345 120.569L108.382 144.829L118.046 139.473L104.598 115.212L110.149 112.135ZM159.313 122.511L152.857 126.09L146.765 121.403L134.224 128.355L135.011 135.982L128.555 139.561L125.388 103.688L130.569 100.816L159.313 122.511ZM142.056 117.563L131.99 109.489L133.462 122.327L142.056 117.563Z" fill="#FFFCF8" fill-opacity="0.35"/>
<path d="M47.0764 278.134L40.6206 281.713L34.5289 277.027L21.9873 283.978L22.7746 291.605L16.3188 295.184L13.1519 259.311L18.333 256.439L47.0764 278.134ZM29.8199 273.186L19.754 265.112L21.2259 277.95L29.8199 273.186ZM64.3529 268.558L58.8017 271.635L57.3202 268.962C53.6194 271.014 50.0311 271.587 46.5554 270.683C43.0644 269.751 40.3617 267.558 38.447 264.104C36.5324 260.65 36.1049 257.196 37.1646 253.741C38.2395 250.314 40.6273 247.575 44.3281 245.524L42.8465 242.851L48.3977 239.774L49.8793 242.447C53.6075 240.38 57.1957 239.807 60.6441 240.726C64.135 241.658 66.8378 243.851 68.7524 247.305C70.667 250.759 71.0945 254.214 70.0348 257.668C68.9874 261.08 66.5995 263.819 62.8713 265.885L64.3529 268.558ZM52.6144 247.381L60.1362 260.951C62.1099 259.857 63.358 258.359 63.8804 256.456C64.415 254.512 64.1201 252.525 62.9956 250.496C61.8711 248.468 60.3502 247.179 58.4328 246.629C56.5277 246.036 54.5882 246.287 52.6144 247.381ZM54.585 264.028L47.0633 250.458C45.1169 251.537 43.8764 253.049 43.3418 254.994C42.8224 256.966 43.1098 258.939 44.2038 260.913C45.2979 262.887 46.8188 264.176 48.7666 264.78C50.6992 265.358 52.6386 265.107 54.585 264.028ZM85.9977 256.56L80.4465 259.637L64.4913 230.853L70.0425 227.776L85.9977 256.56ZM110.149 205.545L126.104 234.329L90.1241 254.273L74.169 225.489L79.7201 222.412L93.1681 246.673L102.831 241.316L89.3833 217.055L94.9345 213.978L108.382 238.239L118.046 232.883L104.598 208.622L110.149 205.545ZM159.313 215.921L152.857 219.499L146.765 214.813L134.224 221.765L135.011 229.392L128.555 232.97L125.388 197.098L130.569 194.226L159.313 215.921ZM142.056 210.973L131.99 202.899L133.462 215.736L142.056 210.973Z" fill="#F55000"/>
<path d="M47.0764 371.544L40.6206 375.123L34.5289 370.436L21.9873 377.388L22.7746 385.015L16.3188 388.593L13.1519 352.721L18.333 349.849L47.0764 371.544ZM29.8199 366.596L19.754 358.522L21.2259 371.36L29.8199 366.596ZM64.3529 361.968L58.8017 365.045L57.3202 362.372C53.6194 364.423 50.0311 364.997 46.5554 364.092C43.0644 363.16 40.3617 360.967 38.447 357.513C36.5324 354.059 36.1049 350.605 37.1646 347.151C38.2395 343.724 40.6273 340.985 44.3281 338.933L42.8465 336.261L48.3977 333.184L49.8793 335.856C53.6075 333.79 57.1957 333.216 60.6441 334.136C64.135 335.068 66.8378 337.261 68.7524 340.715C70.667 344.169 71.0945 347.623 70.0348 351.077C68.9874 354.489 66.5995 357.228 62.8713 359.295L64.3529 361.968ZM52.6144 340.791L60.1362 354.36C62.1099 353.266 63.358 351.768 63.8804 349.866C64.415 347.921 64.1201 345.934 62.9956 343.906C61.8711 341.877 60.3502 340.588 58.4328 340.038C56.5277 339.446 54.5882 339.697 52.6144 340.791ZM54.585 357.437L47.0633 343.868C45.1169 344.947 43.8764 346.459 43.3418 348.403C42.8224 350.376 43.1098 352.349 44.2038 354.322C45.2979 356.296 46.8188 357.585 48.7666 358.19C50.6992 358.767 52.6386 358.516 54.585 357.437ZM85.9977 349.97L80.4465 353.047L64.4913 324.263L70.0425 321.186L85.9977 349.97ZM110.149 298.954L126.104 327.738L90.1241 347.682L74.169 318.898L79.7201 315.821L93.1681 340.082L102.831 334.726L89.3833 310.465L94.9345 307.388L108.382 331.649L118.046 326.292L104.598 302.031L110.149 298.954ZM159.313 309.33L152.857 312.909L146.765 308.222L134.224 315.174L135.011 322.801L128.555 326.38L125.388 290.507L130.569 287.635L159.313 309.33ZM142.056 304.382L131.99 296.308L133.462 309.146L142.056 304.382Z" fill="#FFFCF8" fill-opacity="0.35"/>
<path d="M47.0764 464.954L40.6206 468.532L34.5289 463.846L21.9873 470.798L22.7746 478.424L16.3188 482.003L13.1519 446.13L18.333 443.258L47.0764 464.954ZM29.8199 460.005L19.754 451.932L21.2259 464.769L29.8199 460.005ZM64.3529 455.377L58.8017 458.454L57.3202 455.781C53.6194 457.833 50.0311 458.406 46.5554 457.502C43.0644 456.57 40.3617 454.377 38.447 450.923C36.5324 447.469 36.1049 444.015 37.1646 440.561C38.2395 437.134 40.6273 434.395 44.3281 432.343L42.8465 429.67L48.3977 426.593L49.8793 429.266C53.6075 427.2 57.1957 426.626 60.6441 427.546C64.135 428.478 66.8378 430.67 68.7524 434.125C70.667 437.579 71.0945 441.033 70.0348 444.487C68.9874 447.899 66.5995 450.638 62.8713 452.704L64.3529 455.377ZM52.6144 434.2L60.1362 447.77C62.1099 446.676 63.358 445.178 63.8804 443.276C64.415 441.331 64.1201 439.344 62.9956 437.316C61.8711 435.287 60.3502 433.998 58.4328 433.448C56.5277 432.856 54.5882 433.106 52.6144 434.2ZM54.585 450.847L47.0633 437.278C45.1169 438.356 43.8764 439.868 43.3418 441.813C42.8224 443.785 43.1098 445.758 44.2038 447.732C45.2979 449.706 46.8188 450.995 48.7666 451.6C50.6992 452.177 52.6386 451.926 54.585 450.847ZM85.9977 443.379L80.4465 446.456L64.4913 417.672L70.0425 414.595L85.9977 443.379ZM110.149 392.364L126.104 421.148L90.1241 441.092L74.169 412.308L79.7201 409.231L93.1681 433.492L102.831 428.135L89.3833 403.875L94.9345 400.798L108.382 425.058L118.046 419.702L104.598 395.441L110.149 392.364ZM159.313 402.74L152.857 406.319L146.765 401.632L134.224 408.584L135.011 416.211L128.555 419.789L125.388 383.917L130.569 381.045L159.313 402.74ZM142.056 397.792L131.99 389.718L133.462 402.556L142.056 397.792Z" fill="#FFFCF8" fill-opacity="0.35"/>
<path d="M218.076 137.315L211.621 140.894L205.529 136.207L192.987 143.159L193.775 150.786L187.319 154.365L184.152 118.492L189.333 115.62L218.076 137.315ZM200.82 132.367L190.754 124.293L192.226 137.131L200.82 132.367ZM235.353 127.739L229.802 130.816L228.32 128.143C224.619 130.195 221.031 130.768 217.555 129.864C214.064 128.932 211.362 126.739 209.447 123.285C207.532 119.831 207.105 116.376 208.165 112.922C209.239 109.495 211.627 106.756 215.328 104.705L213.847 102.032L219.398 98.9549L220.879 101.628C224.607 99.5611 228.196 98.9877 231.644 99.9073C235.135 100.839 237.838 103.032 239.752 106.486C241.667 109.94 242.094 113.394 241.035 116.849C239.987 120.26 237.6 122.999 233.871 125.066L235.353 127.739ZM223.614 106.562L231.136 120.132C233.11 119.038 234.358 117.539 234.88 115.637C235.415 113.692 235.12 111.706 233.996 109.677C232.871 107.649 231.35 106.359 229.433 105.81C227.528 105.217 225.588 105.468 223.614 106.562ZM225.585 123.209L218.063 109.639C216.117 110.718 214.876 112.23 214.342 114.175C213.822 116.147 214.11 118.12 215.204 120.094C216.298 122.067 217.819 123.357 219.767 123.961C221.699 124.538 223.639 124.288 225.585 123.209ZM256.998 115.741L251.447 118.818L235.491 90.0341L241.043 86.957L256.998 115.741ZM281.149 64.7257L297.104 93.5096L261.124 113.454L245.169 84.6697L250.72 81.5926L264.168 105.853L273.831 100.497L260.383 76.2362L265.934 73.1592L279.382 97.4199L289.046 92.0635L275.598 67.8028L281.149 64.7257ZM330.313 75.1017L323.857 78.6802L317.765 73.9938L305.224 80.9457L306.011 88.5724L299.555 92.151L296.388 56.2784L301.569 53.4064L330.313 75.1017ZM313.056 70.1535L302.99 62.0795L304.462 74.9172L313.056 70.1535Z" fill="#FFFCF8" fill-opacity="0.35"/>
<path d="M218.076 230.725L211.621 234.303L205.529 229.617L192.987 236.569L193.775 244.196L187.319 247.774L184.152 211.902L189.333 209.03L218.076 230.725ZM200.82 225.777L190.754 217.703L192.226 230.54L200.82 225.777ZM235.353 221.148L229.802 224.225L228.32 221.553C224.619 223.604 221.031 224.178 217.555 223.273C214.064 222.341 211.362 220.148 209.447 216.694C207.532 213.24 207.105 209.786 208.165 206.332C209.239 202.905 211.627 200.166 215.328 198.114L213.847 195.442L219.398 192.364L220.879 195.037C224.607 192.971 228.196 192.397 231.644 193.317C235.135 194.249 237.838 196.442 239.752 199.896C241.667 203.35 242.094 206.804 241.035 210.258C239.987 213.67 237.6 216.409 233.871 218.476L235.353 221.148ZM223.614 199.972L231.136 213.541C233.11 212.447 234.358 210.949 234.88 209.047C235.415 207.102 235.12 205.115 233.996 203.087C232.871 201.058 231.35 199.769 229.433 199.219C227.528 198.627 225.588 198.878 223.614 199.972ZM225.585 216.618L218.063 203.049C216.117 204.128 214.876 205.639 214.342 207.584C213.822 209.556 214.11 211.529 215.204 213.503C216.298 215.477 217.819 216.766 219.767 217.371C221.699 217.948 223.639 217.697 225.585 216.618ZM256.998 209.15L251.447 212.228L235.491 183.444L241.043 180.367L256.998 209.15ZM281.149 158.135L297.104 186.919L261.124 206.863L245.169 178.079L250.72 175.002L264.168 199.263L273.831 193.907L260.383 169.646L265.934 166.569L279.382 190.829L289.046 185.473L275.598 161.212L281.149 158.135ZM330.313 168.511L323.857 172.09L317.765 167.403L305.224 174.355L306.011 181.982L299.555 185.561L296.388 149.688L301.569 146.816L330.313 168.511ZM313.056 163.563L302.99 155.489L304.462 168.327L313.056 163.563Z" fill="#FFFCF8" fill-opacity="0.35"/>
<path d="M218.076 324.134L211.621 327.713L205.529 323.027L192.987 329.978L193.775 337.605L187.319 341.184L184.152 305.311L189.333 302.439L218.076 324.134ZM200.82 319.186L190.754 311.112L192.226 323.95L200.82 319.186ZM235.353 314.558L229.802 317.635L228.32 314.962C224.619 317.014 221.031 317.587 217.555 316.683C214.064 315.751 211.362 313.558 209.447 310.104C207.532 306.65 207.105 303.196 208.165 299.741C209.239 296.314 211.627 293.575 215.328 291.524L213.847 288.851L219.398 285.774L220.879 288.447C224.607 286.38 228.196 285.807 231.644 286.726C235.135 287.658 237.838 289.851 239.752 293.305C241.667 296.759 242.094 300.214 241.035 303.668C239.987 307.08 237.6 309.819 233.871 311.885L235.353 314.558ZM223.614 293.381L231.136 306.951C233.11 305.857 234.358 304.359 234.88 302.456C235.415 300.512 235.12 298.525 233.996 296.496C232.871 294.468 231.35 293.179 229.433 292.629C227.528 292.036 225.588 292.287 223.614 293.381ZM225.585 310.028L218.063 296.458C216.117 297.537 214.876 299.049 214.342 300.994C213.822 302.966 214.11 304.939 215.204 306.913C216.298 308.887 217.819 310.176 219.767 310.78C221.699 311.358 223.639 311.107 225.585 310.028ZM256.998 302.56L251.447 305.637L235.491 276.853L241.043 273.776L256.998 302.56ZM281.149 251.545L297.104 280.329L261.124 300.273L245.169 271.489L250.72 268.412L264.168 292.673L273.831 287.316L260.383 263.055L265.934 259.978L279.382 284.239L289.046 278.883L275.598 254.622L281.149 251.545ZM330.313 261.921L323.857 265.499L317.765 260.813L305.224 267.765L306.011 275.392L299.555 278.97L296.388 243.098L301.569 240.226L330.313 261.921ZM313.056 256.973L302.99 248.899L304.462 261.736L313.056 256.973Z" fill="#F55000"/>
<path d="M218.076 417.544L211.621 421.123L205.529 416.436L192.987 423.388L193.775 431.015L187.319 434.593L184.152 398.721L189.333 395.849L218.076 417.544ZM200.82 412.596L190.754 404.522L192.226 417.36L200.82 412.596ZM235.353 407.968L229.802 411.045L228.32 408.372C224.619 410.423 221.031 410.997 217.555 410.092C214.064 409.16 211.362 406.967 209.447 403.513C207.532 400.059 207.105 396.605 208.165 393.151C209.239 389.724 211.627 386.985 215.328 384.933L213.847 382.261L219.398 379.184L220.879 381.856C224.607 379.79 228.196 379.216 231.644 380.136C235.135 381.068 237.838 383.261 239.752 386.715C241.667 390.169 242.094 393.623 241.035 397.077C239.987 400.489 237.6 403.228 233.871 405.295L235.353 407.968ZM223.614 386.791L231.136 400.36C233.11 399.266 234.358 397.768 234.88 395.866C235.415 393.921 235.12 391.934 233.996 389.906C232.871 387.877 231.35 386.588 229.433 386.038C227.528 385.446 225.588 385.697 223.614 386.791ZM225.585 403.437L218.063 389.868C216.117 390.947 214.876 392.459 214.342 394.403C213.822 396.376 214.11 398.349 215.204 400.322C216.298 402.296 217.819 403.585 219.767 404.19C221.699 404.767 223.639 404.516 225.585 403.437ZM256.998 395.97L251.447 399.047L235.491 370.263L241.043 367.186L256.998 395.97ZM281.149 344.954L297.104 373.738L261.124 393.682L245.169 364.898L250.72 361.821L264.168 386.082L273.831 380.726L260.383 356.465L265.934 353.388L279.382 377.649L289.046 372.292L275.598 348.031L281.149 344.954ZM330.313 355.33L323.857 358.909L317.765 354.222L305.224 361.174L306.011 368.801L299.555 372.38L296.388 336.507L301.569 333.635L330.313 355.33ZM313.056 350.382L302.99 342.308L304.462 355.146L313.056 350.382Z" fill="#FFFCF8" fill-opacity="0.35"/>
<path d="M218.076 510.954L211.621 514.532L205.529 509.846L192.987 516.798L193.775 524.424L187.319 528.003L184.152 492.13L189.333 489.258L218.076 510.954ZM200.82 506.005L190.754 497.932L192.226 510.769L200.82 506.005ZM235.353 501.377L229.802 504.454L228.32 501.781C224.619 503.833 221.031 504.406 217.555 503.502C214.064 502.57 211.362 500.377 209.447 496.923C207.532 493.469 207.105 490.015 208.165 486.561C209.239 483.134 211.627 480.395 215.328 478.343L213.847 475.67L219.398 472.593L220.879 475.266C224.607 473.2 228.196 472.626 231.644 473.546C235.135 474.478 237.838 476.67 239.752 480.125C241.667 483.579 242.094 487.033 241.035 490.487C239.987 493.899 237.6 496.638 233.871 498.704L235.353 501.377ZM223.614 480.2L231.136 493.77C233.11 492.676 234.358 491.178 234.88 489.276C235.415 487.331 235.12 485.344 233.996 483.316C232.871 481.287 231.35 479.998 229.433 479.448C227.528 478.856 225.588 479.106 223.614 480.2ZM225.585 496.847L218.063 483.278C216.117 484.356 214.876 485.868 214.342 487.813C213.822 489.785 214.11 491.758 215.204 493.732C216.298 495.706 217.819 496.995 219.767 497.6C221.699 498.177 223.639 497.926 225.585 496.847ZM256.998 489.379L251.447 492.456L235.491 463.672L241.043 460.595L256.998 489.379ZM281.149 438.364L297.104 467.148L261.124 487.092L245.169 458.308L250.72 455.231L264.168 479.492L273.831 474.135L260.383 449.875L265.934 446.798L279.382 471.058L289.046 465.702L275.598 441.441L281.149 438.364ZM330.313 448.74L323.857 452.319L317.765 447.632L305.224 454.584L306.011 462.211L299.555 465.789L296.388 429.917L301.569 427.045L330.313 448.74ZM313.056 443.792L302.99 435.718L304.462 448.556L313.056 443.792Z" fill="#FFFCF8" fill-opacity="0.35"/>
</svg>
