<svg width="216" height="57" viewBox="0 0 216 57" fill="none" xmlns="http://www.w3.org/2000/svg">
<path d="M215.894 33.3198C215.894 26.8158 215.589 20.2967 215.984 13.8127C216.359 7.64355 210.125 0.85453 203.251 1.45444C199.961 1.7394 196.627 1.49943 193.312 1.49943C183.908 1.49943 174.505 1.53943 165.101 1.46944C163.106 1.45444 162.252 2.11435 162.392 4.09406C162.487 5.44887 162.402 6.81366 162.412 8.17846C162.432 11.108 162.542 11.228 165.571 11.233C175.055 11.243 184.533 11.233 194.017 11.253C194.922 11.253 196.107 11.0231 196.547 11.9329C197.007 12.8828 196.017 13.5527 195.382 14.1926C189.788 19.8168 184.183 25.426 178.599 31.0552C177.959 31.7001 177.464 32.49 176.829 33.1349C175.83 34.1497 176.155 34.9146 177.044 35.8245C179.174 38.0042 181.594 39.9089 183.409 42.3835C183.918 43.0784 184.483 43.0884 185.113 42.4135C191.047 36.0744 197.077 29.8253 203.301 23.7612C203.626 23.4413 203.921 23.0863 204.191 22.7214C204.63 22.1215 205.02 21.1766 205.865 21.4516C206.755 21.7365 206.395 22.7664 206.4 23.4663C206.425 32.54 206.37 41.6186 206.435 50.6923C206.49 58.0513 205.28 56.8864 212.939 56.9764C215.739 57.0114 215.894 56.8264 215.899 53.9718C215.914 47.0878 215.899 40.2088 215.899 33.3248L215.894 33.3198Z" fill="#FFFCF8"/>
<path d="M0.385193 0.404785H5.32448C8.20406 0.404785 10.1638 1.94956 10.1638 4.33921C10.1638 5.839 9.3639 6.98884 8.07909 7.59875C9.93382 8.14367 11.1386 9.53347 11.1386 11.4232C11.1386 13.9878 9.05396 15.6176 5.9944 15.6176H0.385193V0.404785ZM5.19449 1.87958H2.43989V7.02883H5.19449C6.96924 7.02883 8.15409 6.00897 8.15409 4.4642C8.15409 2.91942 6.96924 1.87958 5.19449 1.87958ZM5.91439 8.50861H2.43989V14.1578H5.91439C7.84411 14.1578 9.12892 13.028 9.12892 11.3082C9.12892 9.58846 7.84411 8.50362 5.91439 8.50362V8.50861Z" fill="#FFFCF8"/>
<path d="M5.99416 16.0227H0V0H5.32424C8.44879 0 10.5435 1.74474 10.5435 4.33937C10.5435 5.64918 9.98858 6.76902 8.98872 7.51391C10.5885 8.26381 11.5234 9.6736 11.5234 11.4234C11.5234 14.173 9.29868 16.0227 5.99416 16.0227ZM0.764904 15.2128H5.98916C8.88374 15.2128 10.7535 13.723 10.7535 11.4234C10.7535 9.78359 9.7136 8.49878 7.97385 7.98885L6.95401 7.68889L7.91887 7.23396C9.1187 6.66904 9.77862 5.63918 9.77862 4.33937C9.77862 2.19468 8.02885 0.809881 5.32424 0.809881H0.769908V15.2178L0.764904 15.2128ZM5.91415 14.5629H2.05473V8.10382H5.91415C8.06884 8.10382 9.51364 9.39365 9.51364 11.3134C9.51364 13.2331 8.06884 14.5629 5.91415 14.5629ZM2.8246 13.758H5.91415C7.63391 13.758 8.74874 12.7982 8.74874 11.3134C8.74874 9.82858 7.6389 8.9137 5.91415 8.9137H2.8246V13.758ZM5.19426 7.43392H2.05973V1.47479H5.19426C7.19397 1.47479 8.53877 2.67461 8.53877 4.46435C8.53877 6.25409 7.19397 7.43392 5.19426 7.43392ZM2.8246 6.62905H5.19426C6.75903 6.62905 7.7689 5.77917 7.7689 4.46936C7.7689 3.15954 6.75903 2.28467 5.19426 2.28467H2.8246V6.62905Z" fill="#FFFCF8"/>
<path d="M29.2259 0.404785V15.6176H27.2212V3.59933L16.2828 15.6176H14.943V0.404785H16.9227V12.4231L27.8611 0.404785H29.2259Z" fill="#FFFCF8"/>
<path d="M29.6108 16.0227H26.8362V4.60433L16.4477 16.0227H14.5629V0H17.3125V11.4183L27.701 0H29.6108V16.0227ZM27.6011 15.2128H28.8409V0.804876H28.026L16.5427 13.4281V0.804876H15.3278V15.2128H16.1177L27.6011 2.58962V15.2128Z" fill="#FFFCF8"/>
<path d="M33.6253 15.6176V0.404785H35.605V14.2078H43.4539V0.404785H45.4586V14.2078H53.3074V0.404785H55.2871V14.2078H57.0869V19.3171H55.2322V15.6226H33.6153L33.6253 15.6176Z" fill="#FFFCF8"/>
<path d="M57.4768 19.7171H54.8572V16.0227H33.2404V0H35.99V13.803H43.0689V0H45.8435V13.803H52.9225V0H55.6721V13.803H57.4718V19.7171H57.4768ZM55.6271 18.9073H56.7119V14.6079H54.9122V0.804876H53.6974V14.6079H45.0836V0.804876H43.8438V14.6079H35.2301V0.804876H34.0152V15.2128H55.6321V18.9073H55.6271Z" fill="#FFFCF8"/>
<path d="M71.9897 11.2682H63.6009L61.4912 15.6176H59.1766L66.8704 0.404785H68.7502L76.4191 15.6176H74.1294L71.9947 11.2682H71.9897ZM64.3208 9.74844H71.2698L67.8203 2.55447L64.3208 9.74844Z" fill="#FFFCF8"/>
<path d="M77.0541 16.0227H73.8945L71.7598 11.6733H63.841L61.7313 16.0227H58.5417L66.6456 0H68.9852L77.0591 16.0227H77.0541ZM74.3595 15.2128H75.7792L68.5203 0.804876H67.1055L59.8216 15.2128H61.2614L63.371 10.8634H72.2298L74.3644 15.2128H74.3595ZM71.8948 10.1535H63.696L67.8254 1.66475L71.8948 10.1535ZM64.9508 9.34365H70.65L67.8204 3.44451L64.9508 9.34365Z" fill="#FFFCF8"/>
<path d="M0.385009 36.1048V20.892H2.36473V34.695H10.2136V20.892H12.2183V34.695H20.0672V20.892H22.0469V36.1048H0.380005H0.385009Z" fill="#FFFCF8"/>
<path d="M26.3712 20.892H28.3759V36.1048H26.3712V20.892ZM28.6109 28.3009L36.0198 20.892H38.5145L31.1305 28.3009L39.1094 36.1048H36.5348L28.6109 28.3009Z" fill="#FFFCF8"/>
<path d="M49.7581 20.7367C55.1123 20.7367 58.7368 23.8862 58.7368 28.4956C58.7368 33.1049 55.1073 36.2744 49.7581 36.2744C44.4088 36.2744 40.7794 33.1249 40.7794 28.4956C40.7794 23.8662 44.4088 20.7367 49.7581 20.7367ZM49.7581 34.7547C53.8775 34.7547 56.6821 32.21 56.6821 28.4956C56.6821 24.7811 53.8775 22.2565 49.7581 22.2565C45.6387 22.2565 42.8341 24.8011 42.8341 28.4956C42.8341 32.19 45.6637 34.7547 49.7581 34.7547Z" fill="#FFFCF8"/>
<path d="M60.6466 35.0199C62.6013 35.0199 63.6811 33.7351 63.6811 31.5404V20.892H74.6696V36.1048H72.6099V22.3018H65.7408V31.4504C65.7408 34.275 64.1711 36.2097 61.9564 36.2097C61.5465 36.2097 60.9266 36.1648 60.6466 36.0998V35.0149V35.0199Z" fill="#FFFCF8"/>
<path d="M90.5919 31.7554H82.2031L80.0934 36.1048H77.7787L85.4726 20.892H87.3524L95.0213 36.1048H92.7316L90.5969 31.7554H90.5919ZM82.928 30.2356H89.877L86.4275 23.0417L82.928 30.2356Z" fill="#FFFCF8"/>
<path d="M15.3081 44.8533L9.28891 53.1121H8.41403L2.36492 44.8533V56.5916H0.385193V41.3788H1.90499L8.85397 50.7474L15.803 41.3788H17.3227V56.5916H15.318V44.8533H15.3081Z" fill="#FFFCF8"/>
<path d="M33.2405 52.2422H24.8517L22.742 56.5916H20.4274L28.1212 41.3788H30.001L37.6699 56.5916H35.3802L33.2455 52.2422H33.2405ZM25.5716 50.7224H32.5206L29.0711 43.5285L25.5716 50.7224Z" fill="#FFFCF8"/>
<path d="M40.8041 41.3788H45.6934C48.8329 41.3788 50.9426 43.0535 50.9426 45.6582C50.9426 48.2628 48.8329 49.9176 45.6934 49.9176H42.8638V56.5916H40.8041V41.3788ZM45.6934 42.8536H42.8638V48.4378H45.6934C47.5981 48.4378 48.8829 47.3279 48.8829 45.6582C48.8829 43.9884 47.5981 42.8536 45.6934 42.8536Z" fill="#FFFCF8"/>
<path d="M54.6222 41.3789H56.6269V56.5917H54.6222V41.3789ZM56.8619 48.7878L64.2708 41.3739H66.7655L59.3815 48.7878L67.3604 56.5917H64.7857L56.8619 48.7878Z" fill="#FFFCF8"/>
<path d="M72.5796 48.223H79.2686V49.6378H72.5796V55.182H80.2485V56.5968H70.5999V41.384H80.1185V42.7988H72.5796V48.233V48.223Z" fill="#FFFCF8"/>
<path d="M90.1571 56.5917H88.1774V42.7887H83.0331V41.3739H95.3064V42.7887H90.1621V56.5917H90.1571Z" fill="#FFFCF8"/>
<path d="M113.084 41.3788V56.5916H111.079V44.5733L100.141 56.5916H98.8009V41.3788H100.781V53.3971L111.719 41.3788H113.084Z" fill="#FFFCF8"/>
<path d="M119.463 48.2229H129.371V41.3739H131.376V56.5867H129.371V49.6327H119.463V56.5867H117.483V41.3739H119.463V48.2229Z" fill="#FFFCF8"/>
<path d="M135.776 41.3788H144.779V42.7936H137.755V56.5966H135.776V41.3838V41.3788Z" fill="#FFFCF8"/>
<path d="M152.348 56.5916H150.188L153.278 51.8123L147.024 41.3788H149.159L154.228 49.8576L159.247 41.3788H161.407L152.348 56.5916Z" fill="#FFFCF8"/>
</svg>
