<svg width="521.44" height="305" viewBox="0 0 522 305" fill="none" xmlns="http://www.w3.org/2000/svg">
<rect x="284.284" y="128.433" width="221.633" height="83.6402" rx="41.8201" stroke="#FFFCF8"/>
<path d="M333.704 156.63H323V166.117H332.522V167.82H323V177.551H333.878V179.253H321.02V154.927H333.704V156.63ZM352.014 179.253H349.755L344.472 172.546L339.225 179.253H336.966L343.221 171.295L337.174 163.615H339.433L344.472 170.044L349.511 163.615H351.77L345.723 171.295L352.014 179.253ZM361.633 177.724C363.486 177.724 364.969 177.134 366.081 175.952L367.297 177.168C365.815 178.721 363.892 179.497 361.529 179.497C359.165 179.497 357.254 178.755 355.794 177.273C354.335 175.767 353.605 173.82 353.605 171.434C353.605 169.048 354.335 167.102 355.794 165.596C357.254 164.113 359.165 163.372 361.529 163.372C363.915 163.372 365.838 164.159 367.297 165.735L366.081 166.916C364.969 165.735 363.486 165.144 361.633 165.144C359.826 165.144 358.355 165.723 357.219 166.882C356.107 168.04 355.551 169.558 355.551 171.434C355.551 173.311 356.107 174.828 357.219 175.987C358.355 177.145 359.826 177.724 361.633 177.724ZM383.978 171.886H371.571C371.641 173.647 372.22 175.06 373.309 176.126C374.421 177.191 375.869 177.724 377.653 177.724C379.53 177.724 381.024 177.134 382.136 175.952L383.352 177.168C381.87 178.721 379.923 179.497 377.514 179.497C375.151 179.497 373.228 178.755 371.745 177.273C370.286 175.767 369.556 173.797 369.556 171.365C369.556 169.002 370.228 167.079 371.571 165.596C372.915 164.113 374.688 163.372 376.888 163.372C379.089 163.372 380.815 164.136 382.067 165.665C383.341 167.171 383.978 169.245 383.978 171.886ZM376.958 165.109C375.475 165.109 374.236 165.596 373.24 166.569C372.266 167.519 371.71 168.805 371.571 170.426H382.032C381.87 168.758 381.337 167.461 380.433 166.534C379.553 165.584 378.394 165.109 376.958 165.109ZM392.448 177.968V179.253C392.286 179.346 391.939 179.392 391.406 179.392C390.502 179.392 389.773 179.091 389.217 178.489C388.684 177.887 388.417 177.064 388.417 176.021V153.189H390.329V175.987C390.329 177.307 391.035 177.968 392.448 177.968ZM400.899 177.968V179.253C400.737 179.346 400.389 179.392 399.856 179.392C398.953 179.392 398.223 179.091 397.667 178.489C397.134 177.887 396.868 177.064 396.868 176.021V153.189H398.779V175.987C398.779 177.307 399.486 177.968 400.899 177.968ZM418.119 171.886H405.713C405.782 173.647 406.361 175.06 407.45 176.126C408.562 177.191 410.01 177.724 411.794 177.724C413.671 177.724 415.165 177.134 416.277 175.952L417.494 177.168C416.011 178.721 414.065 179.497 411.655 179.497C409.292 179.497 407.369 178.755 405.886 177.273C404.427 175.767 403.697 173.797 403.697 171.365C403.697 169.002 404.369 167.079 405.713 165.596C407.056 164.113 408.829 163.372 411.03 163.372C413.231 163.372 414.957 164.136 416.208 165.665C417.482 167.171 418.119 169.245 418.119 171.886ZM411.099 165.109C409.616 165.109 408.377 165.596 407.381 166.569C406.408 167.519 405.852 168.805 405.713 170.426H416.173C416.011 168.758 415.478 167.461 414.574 166.534C413.694 165.584 412.536 165.109 411.099 165.109ZM422.558 179.253V163.615H424.47V165.005C425.767 163.916 427.354 163.372 429.231 163.372C430.992 163.372 432.405 163.962 433.471 165.144C434.56 166.302 435.104 167.82 435.104 169.697V179.253H433.193V169.697C433.193 168.353 432.787 167.264 431.976 166.43C431.189 165.573 430.146 165.144 428.849 165.144C427.088 165.144 425.628 165.7 424.47 166.812V179.253H422.558ZM447.665 177.724C449.518 177.724 451.001 177.134 452.113 175.952L453.329 177.168C451.847 178.721 449.924 179.497 447.56 179.497C445.197 179.497 443.286 178.755 441.826 177.273C440.367 175.767 439.637 173.82 439.637 171.434C439.637 169.048 440.367 167.102 441.826 165.596C443.286 164.113 445.197 163.372 447.56 163.372C449.947 163.372 451.87 164.159 453.329 165.735L452.113 166.916C451.001 165.735 449.518 165.144 447.665 165.144C445.858 165.144 444.386 165.723 443.251 166.882C442.139 168.04 441.583 169.558 441.583 171.434C441.583 173.311 442.139 174.828 443.251 175.987C444.386 177.145 445.858 177.724 447.665 177.724ZM470.01 171.886H457.603C457.673 173.647 458.252 175.06 459.341 176.126C460.453 177.191 461.901 177.724 463.685 177.724C465.562 177.724 467.056 177.134 468.168 175.952L469.384 177.168C467.902 178.721 465.955 179.497 463.546 179.497C461.183 179.497 459.26 178.755 457.777 177.273C456.317 175.767 455.588 173.797 455.588 171.365C455.588 169.002 456.26 167.079 457.603 165.596C458.947 164.113 460.719 163.372 462.92 163.372C465.121 163.372 466.847 164.136 468.098 165.665C469.373 167.171 470.01 169.245 470.01 171.886ZM462.99 165.109C461.507 165.109 460.268 165.596 459.271 166.569C458.298 167.519 457.742 168.805 457.603 170.426H468.064C467.902 168.758 467.369 167.461 466.465 166.534C465.585 165.584 464.426 165.109 462.99 165.109Z" fill="#FFFCF8"/>
<rect x="121.628" y="212.599" width="249.862" height="83.6402" rx="41.8201" stroke="#FFFCF8"/>
<path d="M181.061 263.419H178.802L175.466 255.843H163.129L159.827 263.419H157.569L168.342 239.092H170.253L181.061 263.419ZM174.701 254.036L169.315 241.56L163.893 254.036H174.701ZM195.435 247.78H197.346V257.129C197.346 259.075 196.744 260.65 195.539 261.855C194.358 263.06 192.794 263.662 190.848 263.662C188.925 263.662 187.361 263.06 186.156 261.855C184.974 260.627 184.384 259.052 184.384 257.129V247.78H186.33V257.129C186.33 258.542 186.747 259.689 187.581 260.569C188.438 261.449 189.539 261.89 190.882 261.89C192.226 261.89 193.315 261.449 194.149 260.569C195.006 259.689 195.435 258.542 195.435 257.129V247.78ZM203.294 249.379H201.209V247.78H203.294V244.305H205.275V247.78H209.828V249.379H205.275V258.866C205.275 259.793 205.553 260.546 206.109 261.125C206.665 261.681 207.395 261.959 208.299 261.959C208.855 261.959 209.364 261.832 209.828 261.577V263.314C209.202 263.546 208.588 263.662 207.986 263.662C206.573 263.662 205.437 263.222 204.58 262.341C203.723 261.461 203.294 260.303 203.294 258.866V249.379ZM213.875 263.419V237.355H215.787V249.17C217.084 248.081 218.671 247.537 220.548 247.537C222.309 247.537 223.722 248.128 224.788 249.309C225.877 250.468 226.421 251.985 226.421 253.862V263.419H224.51V253.862C224.51 252.518 224.104 251.429 223.293 250.595C222.506 249.738 221.463 249.309 220.166 249.309C218.405 249.309 216.945 249.865 215.787 250.977V263.419H213.875ZM245.478 256.051H233.071C233.141 257.812 233.72 259.225 234.809 260.291C235.921 261.357 237.369 261.89 239.153 261.89C241.03 261.89 242.524 261.299 243.636 260.117L244.852 261.334C243.37 262.886 241.424 263.662 239.014 263.662C236.651 263.662 234.728 262.921 233.245 261.438C231.786 259.932 231.056 257.963 231.056 255.53C231.056 253.167 231.728 251.244 233.071 249.761C234.415 248.278 236.188 247.537 238.389 247.537C240.589 247.537 242.315 248.302 243.567 249.831C244.841 251.337 245.478 253.41 245.478 256.051ZM238.458 249.275C236.975 249.275 235.736 249.761 234.74 250.734C233.766 251.684 233.21 252.97 233.071 254.592H243.532C243.37 252.924 242.837 251.626 241.933 250.699C241.053 249.75 239.894 249.275 238.458 249.275ZM249.917 263.419V247.78H251.829V249.17C253.126 248.081 254.713 247.537 256.59 247.537C258.35 247.537 259.764 248.128 260.829 249.309C261.918 250.468 262.463 251.985 262.463 253.862V263.419H260.551V253.862C260.551 252.518 260.146 251.429 259.335 250.595C258.547 249.738 257.505 249.309 256.207 249.309C254.447 249.309 252.987 249.865 251.829 250.977V263.419H249.917ZM267.912 249.379H265.826V247.78H267.912V244.305H269.892V247.78H274.445V249.379H269.892V258.866C269.892 259.793 270.17 260.546 270.726 261.125C271.282 261.681 272.012 261.959 272.916 261.959C273.472 261.959 273.982 261.832 274.445 261.577V263.314C273.819 263.546 273.205 263.662 272.603 263.662C271.19 263.662 270.055 263.222 269.197 262.341C268.34 261.461 267.912 260.303 267.912 258.866V249.379ZM280.404 263.419H278.493V247.78H280.404V263.419ZM279.431 244.514C279.037 244.514 278.701 244.375 278.423 244.097C278.145 243.818 278.006 243.483 278.006 243.089C278.006 242.695 278.145 242.359 278.423 242.081C278.701 241.803 279.037 241.664 279.431 241.664C279.825 241.664 280.161 241.803 280.439 242.081C280.717 242.359 280.856 242.695 280.856 243.089C280.856 243.483 280.717 243.818 280.439 244.097C280.161 244.375 279.825 244.514 279.431 244.514ZM292.909 261.89C294.762 261.89 296.245 261.299 297.357 260.117L298.573 261.334C297.09 262.886 295.168 263.662 292.804 263.662C290.441 263.662 288.53 262.921 287.07 261.438C285.611 259.932 284.881 257.986 284.881 255.599C284.881 253.213 285.611 251.267 287.07 249.761C288.53 248.278 290.441 247.537 292.804 247.537C295.191 247.537 297.114 248.325 298.573 249.9L297.357 251.082C296.245 249.9 294.762 249.309 292.909 249.309C291.102 249.309 289.63 249.889 288.495 251.047C287.383 252.205 286.827 253.723 286.827 255.599C286.827 257.476 287.383 258.994 288.495 260.152C289.63 261.31 291.102 261.89 292.909 261.89ZM304.67 263.419H302.758V247.78H304.67V263.419ZM303.696 244.514C303.303 244.514 302.967 244.375 302.689 244.097C302.411 243.818 302.272 243.483 302.272 243.089C302.272 242.695 302.411 242.359 302.689 242.081C302.967 241.803 303.303 241.664 303.696 241.664C304.09 241.664 304.426 241.803 304.704 242.081C304.982 242.359 305.121 242.695 305.121 243.089C305.121 243.483 304.982 243.818 304.704 244.097C304.426 244.375 304.09 244.514 303.696 244.514ZM310.571 249.379H308.486V247.78H310.571V244.305H312.552V247.78H317.105V249.379H312.552V258.866C312.552 259.793 312.83 260.546 313.386 261.125C313.942 261.681 314.672 261.959 315.575 261.959C316.131 261.959 316.641 261.832 317.105 261.577V263.314C316.479 263.546 315.865 263.662 315.263 263.662C313.849 263.662 312.714 263.222 311.857 262.341C311 261.461 310.571 260.303 310.571 258.866V249.379ZM333.489 247.78H335.609L324.384 272.107H322.264L326.608 263.419L319.45 247.78H321.604L327.547 261.125L333.489 247.78Z" fill="#FFFCF8"/>
<g clip-path="url(#clip0_290_3998)">
<rect x="0.0627441" y="180.22" width="202.414" height="83.6402" rx="41.8201" transform="rotate(-15 0.0627441 180.22)" fill="#0030F4"/>
<path d="M50.058 219.437L48.111 219.959L41.8149 196.461L47.8907 194.833C49.8376 194.311 51.5854 194.479 53.1341 195.335C54.6603 196.197 55.6813 197.591 56.197 199.515C56.7126 201.44 56.5252 203.157 55.6345 204.667C54.7603 206.148 53.3273 207.156 51.3356 207.69L47.2067 208.796L50.058 219.437ZM54.2165 200.046C53.8327 198.614 53.0987 197.575 52.0144 196.93C50.9526 196.279 49.7279 196.14 48.3404 196.511L44.2116 197.618L46.748 207.084L50.8769 205.978C52.2643 205.606 53.2582 204.884 53.8583 203.812C54.4748 202.711 54.5942 201.456 54.2165 200.046ZM67.2947 198.412C67.3619 198.394 67.6923 198.33 68.2862 198.219L68.7359 199.897C68.3375 199.932 67.9592 199.997 67.6012 200.093C65.878 200.555 64.6854 201.654 64.0234 203.39L67.0995 214.871L65.2533 215.365L61.2057 200.26L63.052 199.765L63.5557 201.645C64.3923 199.934 65.6387 198.856 67.2947 198.412ZM78.2457 195.442C80.5507 194.825 82.6 195.043 84.3936 196.097C86.2096 197.146 87.4294 198.834 88.053 201.161C88.6767 203.489 88.4642 205.56 87.4158 207.376C86.3897 209.186 84.7241 210.4 82.4191 211.018C80.1365 211.629 78.0872 211.411 76.2712 210.362C74.4716 209.286 73.263 207.595 72.6453 205.29C72.0277 202.985 72.2319 200.927 73.258 199.117C74.3229 197.273 75.9854 196.048 78.2457 195.442ZM78.7044 197.154C76.9812 197.616 75.7325 198.55 74.9581 199.957C74.1838 201.364 74.0394 202.973 74.5251 204.786C75.0108 206.599 75.9407 207.921 77.3147 208.752C78.6887 209.583 80.2372 209.767 81.9604 209.306C83.6836 208.844 84.9323 207.91 85.7067 206.503C86.487 205.119 86.6314 203.509 86.1397 201.674C85.654 199.861 84.7241 198.539 83.3501 197.708C81.9761 196.877 80.4275 196.692 78.7044 197.154ZM106.142 204.409L103.961 204.994L97.1223 199.882L93.7895 207.719L91.6076 208.304L95.59 198.998L87.7614 193.144L89.9433 192.56L96.4747 197.465L99.6781 189.951L101.86 189.367L98.0069 198.35L106.142 204.409ZM111.944 202.855L110.098 203.349L106.05 188.244L107.897 187.749L111.944 202.855ZM106.111 184.845C105.731 184.947 105.37 184.9 105.03 184.703C104.689 184.507 104.468 184.218 104.366 183.838C104.264 183.458 104.312 183.097 104.508 182.757C104.705 182.416 104.993 182.195 105.374 182.093C105.754 181.991 106.115 182.038 106.455 182.235C106.796 182.431 107.017 182.72 107.119 183.1C107.221 183.481 107.173 183.841 106.977 184.182C106.78 184.522 106.492 184.744 106.111 184.845ZM137.483 196.011L135.637 196.506L132.858 186.134C132.6 185.171 132.099 184.466 131.356 184.018C130.634 183.563 129.826 183.456 128.931 183.696C127.118 184.182 125.794 185.148 124.959 186.595C125.267 187.208 125.472 187.705 125.574 188.085L128.353 198.458L126.473 198.962L123.694 188.589C123.436 187.627 122.935 186.922 122.191 186.473C121.47 186.019 120.662 185.912 119.767 186.152C118.066 186.607 116.8 187.522 115.969 188.896L119.189 200.913L117.343 201.408L113.295 186.303L115.141 185.808L115.501 187.151C116.473 185.763 117.865 184.826 119.677 184.341C121.4 183.879 122.865 184.242 124.071 185.43C125.103 183.642 126.693 182.461 128.841 181.885C130.206 181.519 131.426 181.684 132.5 182.38C133.574 183.076 134.308 184.162 134.704 185.639L137.483 196.011ZM144.758 194.062L142.912 194.557L138.864 179.451L140.711 178.957L144.758 194.062ZM138.925 176.053C138.545 176.155 138.184 176.108 137.844 175.911C137.503 175.714 137.282 175.426 137.18 175.045C137.078 174.665 137.126 174.305 137.322 173.964C137.519 173.624 137.807 173.402 138.188 173.3C138.568 173.198 138.929 173.246 139.269 173.442C139.61 173.639 139.831 173.927 139.933 174.308C140.035 174.688 139.987 175.049 139.791 175.389C139.594 175.73 139.306 175.951 138.925 176.053ZM146.825 178.973L144.811 179.513L144.397 177.969L146.411 177.429L145.512 174.072L147.425 173.56L148.325 176.916L152.722 175.738L153.136 177.282L148.738 178.461L151.194 187.625C151.434 188.52 151.897 189.175 152.584 189.591C153.265 189.984 154.042 190.063 154.915 189.83C155.452 189.686 155.911 189.431 156.293 189.065L156.743 190.743C156.198 191.129 155.635 191.399 155.053 191.555C153.688 191.921 152.478 191.79 151.422 191.161C150.366 190.533 149.652 189.525 149.281 188.137L146.825 178.973ZM168.549 171.497L170.596 170.949L166.05 197.352L164.002 197.9L165.95 188.384L154.987 175.131L157.068 174.574L166.262 185.926L168.549 171.497Z" fill="#FFFCF8"/>
</g>
<rect x="0.0627441" y="180.22" width="202.414" height="83.6402" rx="41.8201" transform="rotate(-15 0.0627441 180.22)" stroke="#FFFCF8"/>
<g clip-path="url(#clip1_290_3998)">
<rect x="97.6643" y="0.875" width="238.45" height="83.6402" rx="41.8201" transform="rotate(27.5933 97.6643 0.875)" fill="#0030F4"/>
<path d="M130.798 50.007L124.423 46.6749L113.943 66.7253L112.188 65.8078L122.667 45.7574L116.291 42.4253L117.08 40.9162L131.587 48.4978L130.798 50.007ZM124.096 72.0315L136.169 48.932L137.863 49.8173L132.39 60.2891C134.044 59.925 135.703 60.1776 137.366 61.0468C138.926 61.8624 139.905 63.0406 140.302 64.5814C140.731 66.1124 140.511 67.7095 139.641 69.3727L135.215 77.8425L133.521 76.9572L137.947 68.4873C138.57 67.2964 138.715 66.1436 138.383 65.0288C138.081 63.9042 137.356 63.0415 136.206 62.4405C134.646 61.6249 133.095 61.4416 131.553 61.8907L125.79 72.9168L124.096 72.0315ZM155.517 80.1401L144.521 74.3934C143.767 75.9861 143.626 77.5069 144.097 78.9558C144.589 80.4154 145.626 81.5584 147.207 82.3847C148.87 83.2539 150.468 83.4225 152.001 82.8904L152.515 84.5318C150.482 85.2207 148.398 85.0071 146.263 83.8911C144.168 82.7965 142.808 81.2487 142.18 79.2478C141.584 77.2371 141.85 75.1538 142.976 72.9978C144.071 70.9035 145.557 69.5105 147.435 68.8188C149.312 68.1271 151.227 68.291 153.177 69.3104C155.128 70.3299 156.303 71.807 156.704 73.7416C157.136 75.6665 156.74 77.7993 155.517 80.1401ZM152.434 70.8826C151.12 70.1958 149.796 70.0529 148.462 70.4538C147.16 70.8449 146.072 71.727 145.197 73.0999L154.468 77.9451C155.097 76.3916 155.226 74.9949 154.854 73.7551C154.514 72.5054 153.707 71.5479 152.434 70.8826ZM176.113 81.3368C176.175 81.369 176.462 81.5452 176.974 81.8652L176.169 83.4052C175.852 83.1612 175.53 82.9533 175.201 82.7816C173.62 81.9553 171.998 81.9573 170.336 82.7876L164.831 93.3209L163.137 92.4356L170.38 78.5759L172.074 79.4612L171.173 81.186C172.947 80.4924 174.594 80.5427 176.113 81.3368ZM187.97 97.1016L176.975 91.355C176.221 92.9476 176.08 94.4684 176.551 95.9173C177.043 97.3769 178.079 98.5199 179.66 99.3462C181.324 100.215 182.922 100.384 184.455 99.8519L184.969 101.493C182.936 102.182 180.852 101.969 178.716 100.853C176.622 99.758 175.261 98.2102 174.634 96.2093C174.038 94.1986 174.303 92.1153 175.43 89.9593C176.525 87.865 178.011 86.472 179.888 85.7803C181.766 85.0886 183.68 85.2525 185.631 86.2719C187.582 87.2914 188.757 88.7685 189.158 90.7031C189.589 92.628 189.194 94.7608 187.97 97.1016ZM184.888 87.8441C183.574 87.1573 182.25 87.0144 180.916 87.4153C179.614 87.8064 178.525 88.6885 177.651 90.0614L186.922 94.9066C187.55 93.3531 187.679 91.9564 187.308 90.7166C186.967 89.4669 186.161 88.5094 184.888 87.8441ZM201.948 96.8391L200.323 97.3229C200.022 96.1983 199.256 95.3141 198.024 94.6702C197.284 94.2839 196.565 94.2088 195.867 94.445C195.2 94.6713 194.715 95.0979 194.414 95.7246C194.123 96.3308 194.092 96.9416 194.319 97.5571C194.537 98.0895 195.094 98.8508 195.988 99.841C196.902 100.842 197.569 101.818 197.987 102.768C198.405 103.719 198.357 104.687 197.842 105.672C197.284 106.74 196.394 107.491 195.174 107.925C193.975 108.318 192.668 108.144 191.251 107.404C189.465 106.47 188.323 105.128 187.826 103.378L189.467 102.864C189.775 104.175 190.597 105.179 191.931 105.877C192.835 106.349 193.662 106.468 194.412 106.232C195.193 105.987 195.767 105.516 196.132 104.818C196.432 104.243 196.443 103.647 196.164 103.031C195.916 102.404 195.517 101.791 194.969 101.191C194.44 100.601 193.907 99.9953 193.369 99.3743C192.862 98.7434 192.518 98.0274 192.335 97.2262C192.173 96.4357 192.301 95.6401 192.72 94.8393C193.289 93.751 194.11 93.03 195.184 92.6762C196.289 92.3126 197.467 92.4581 198.72 93.1128C200.424 94.0035 201.5 95.2456 201.948 96.8391ZM195.957 119.392L207.225 97.8325L208.919 98.7178L208.275 99.9498C209.93 99.5857 211.599 99.8436 213.282 100.724C215.294 101.775 216.568 103.29 217.102 105.269C217.668 107.238 217.398 109.279 216.293 111.394C215.187 113.509 213.639 114.896 211.648 115.554C209.668 116.192 207.641 115.97 205.567 114.886C203.986 114.059 202.855 112.972 202.175 111.623L197.651 120.277L195.957 119.392ZM212.092 102.101C210.531 101.286 208.98 101.102 207.438 101.551L203.14 109.775C203.663 111.276 204.704 112.435 206.265 113.251C207.846 114.077 209.397 114.234 210.919 113.723C212.451 113.242 213.657 112.16 214.537 110.477C215.417 108.793 215.617 107.185 215.137 105.653C214.688 104.112 213.673 102.927 212.092 102.101ZM231.853 120.037L220.858 114.29C220.104 115.883 219.963 117.403 220.434 118.852C220.926 120.312 221.962 121.455 223.544 122.281C225.207 123.15 226.805 123.319 228.338 122.787L228.852 124.428C226.819 125.117 224.735 124.904 222.599 123.788C220.505 122.693 219.144 121.145 218.517 119.144C217.921 117.134 218.186 115.05 219.313 112.894C220.408 110.8 221.894 109.407 223.771 108.715C225.649 108.024 227.563 108.187 229.514 109.207C231.465 110.226 232.64 111.703 233.041 113.638C233.472 115.563 233.077 117.696 231.853 120.037ZM228.771 110.779C227.457 110.092 226.133 109.949 224.799 110.35C223.497 110.741 222.408 111.623 221.534 112.996L230.805 117.842C231.434 116.288 231.562 114.891 231.191 113.652C230.85 112.402 230.044 111.444 228.771 110.779ZM239.212 130.47C240.855 131.329 242.443 131.492 243.976 130.96L244.49 132.601C242.457 133.29 240.393 133.087 238.299 131.993C236.205 130.898 234.854 129.356 234.247 127.366C233.651 125.355 233.906 123.292 235.011 121.177C236.117 119.062 237.665 117.676 239.656 117.017C241.636 116.379 243.674 116.607 245.768 117.702C247.883 118.807 249.222 120.396 249.786 122.468L248.161 122.952C247.723 121.39 246.682 120.179 245.04 119.321C243.438 118.484 241.866 118.316 240.323 118.817C238.801 119.328 237.605 120.416 236.736 122.079C235.867 123.742 235.657 125.344 236.106 126.886C236.575 128.439 237.611 129.633 239.212 130.47ZM254.014 124.09L252.166 123.124L252.906 121.707L254.754 122.673L256.364 119.593L258.119 120.511L256.51 123.59L260.544 125.699L259.804 127.116L255.769 125.007L251.375 133.415C250.946 134.237 250.843 135.033 251.068 135.804C251.303 136.554 251.821 137.138 252.622 137.557C253.115 137.815 253.625 137.938 254.154 137.926L253.349 139.466C252.687 139.382 252.09 139.2 251.556 138.921C250.303 138.267 249.501 137.351 249.149 136.173C248.797 134.996 248.954 133.771 249.619 132.498L254.014 124.09Z" fill="#FFFCF8"/>
</g>
<rect x="97.6643" y="0.875" width="238.45" height="83.6402" rx="41.8201" transform="rotate(27.5933 97.6643 0.875)" stroke="#FFFCF8"/>
<path d="M294.556 65.9174C294.556 65.98 294.603 66.0202 294.64 66.0598C294.962 66.4357 295.287 66.8108 295.609 67.1867C297.762 69.6928 299.918 72.195 302.064 74.7067C304.209 77.2183 306.36 79.7282 308.48 82.2565C309.687 83.6926 310.869 85.1486 312.059 86.5958C312.917 87.6402 313.799 88.6649 314.726 89.6509C315.557 90.5341 316.424 91.378 317.35 92.1599C318.395 93.0418 319.503 93.8408 320.663 94.57C322.444 95.687 324.325 96.6191 326.277 97.4131C327.399 97.8683 328.545 98.2643 329.694 98.6464C332.093 99.446 334.487 100.26 336.867 101.111C338.415 101.664 339.958 102.234 341.487 102.828C342.964 103.403 344.461 103.926 345.962 104.438C347.47 104.955 348.982 105.471 350.488 105.992C350.924 106.142 351.355 106.307 351.789 106.462C352.122 106.584 352.45 106.724 352.771 106.875C353.135 107.049 353.503 107.214 353.866 107.387C353.934 107.419 354.003 107.456 354.062 107.503C354.147 107.573 354.195 107.666 354.169 107.778C354.147 107.87 354.122 107.962 354.094 108.053C353.717 109.187 353.337 110.318 352.964 111.452C352.727 112.179 352.496 112.907 352.265 113.633C352.231 113.741 352.198 113.852 352.153 113.956C352.113 114.053 352.063 114.149 352.006 114.234C351.877 114.427 351.687 114.507 351.455 114.48C351.37 114.47 351.285 114.45 351.2 114.427C351.125 114.407 351.054 114.376 350.983 114.346C349.564 113.756 348.12 113.232 346.663 112.734C345.282 112.262 343.894 111.799 342.51 111.328C341.253 110.899 340.011 110.443 338.777 109.952C337.324 109.37 335.841 108.86 334.345 108.389C332.932 107.946 331.516 107.517 330.099 107.081C329.988 107.048 329.879 107.011 329.768 106.978C329.206 106.805 329.192 106.802 329.197 106.844C329.199 106.853 329.193 106.865 329.197 106.87C329.311 107.012 329.424 107.15 329.54 107.287C333.398 111.829 337.252 116.371 341.111 120.916C342.109 122.091 343.111 123.265 344.109 124.44C344.177 124.521 344.247 124.598 344.312 124.68C344.36 124.739 344.403 124.801 344.444 124.866C344.558 125.059 344.575 125.256 344.469 125.463C344.405 125.583 344.325 125.69 344.241 125.795C344.022 126.065 343.791 126.322 343.547 126.568C343.188 126.932 342.809 127.278 342.419 127.607C341.977 127.979 341.528 128.347 341.082 128.718C340.62 129.099 340.166 129.488 339.736 129.903C339.647 129.99 339.554 130.071 339.437 130.129C339.3 130.199 339.173 130.18 339.06 130.091C339.002 130.044 338.946 129.986 338.907 129.924C338.742 129.678 338.542 129.461 338.35 129.238C334.914 125.287 331.532 121.288 328.175 117.272C327.174 116.074 326.17 114.878 325.169 113.68C324.883 113.338 324.59 112.997 324.282 112.673C324.044 112.424 323.798 112.186 323.537 111.962C323.502 111.932 323.465 111.902 323.427 111.873C323.406 111.855 323.373 111.841 323.352 111.863C323.334 111.881 323.329 111.912 323.326 111.939C323.324 111.966 323.328 111.995 323.332 112.023C323.386 112.372 323.43 112.72 323.496 113.066C323.745 114.402 324.003 115.733 324.255 117.068C324.509 118.413 324.763 119.754 325.021 121.098C325.333 122.741 325.647 124.383 325.961 126.022C326.104 126.779 326.25 127.532 326.4 128.288C326.796 130.311 327.196 132.333 327.595 134.352C327.645 134.612 327.695 134.873 327.746 135.136C327.778 135.306 327.791 135.475 327.787 135.647C327.785 135.714 327.78 135.781 327.771 135.846C327.726 136.169 327.531 136.379 327.23 136.499C327.176 136.52 327.116 136.53 327.063 136.554C327.027 136.567 326.998 136.595 326.967 136.613C326.873 136.632 326.775 136.651 326.681 136.67C326.574 136.639 326.469 136.664 326.364 136.679C326.126 136.716 325.886 136.757 325.648 136.791C324.824 136.91 324.007 137.076 323.196 137.263C322.779 137.359 322.366 137.456 321.949 137.548C321.808 137.579 321.664 137.608 321.517 137.614C321.069 137.639 320.834 137.454 320.68 137.136C320.619 137.007 320.567 136.875 320.539 136.734C320.518 136.621 320.493 136.512 320.472 136.399C320.002 133.917 319.538 131.434 319.065 128.953C318.227 124.569 317.382 120.184 316.541 115.801C316.395 115.034 316.247 114.272 316.101 113.506C316.087 113.43 316.073 113.355 316.058 113.283C316.05 113.255 316.043 113.227 316.035 113.2C316.026 113.166 315.973 113.15 315.943 113.175C315.741 113.321 315.601 113.514 315.505 113.735C315.448 113.865 315.409 114.005 315.384 114.146C315.358 114.295 315.329 114.445 315.311 114.599C315.279 114.825 315.222 115.045 315.146 115.264C314.834 116.159 314.525 117.051 314.221 117.948C312.748 122.28 311.274 126.613 309.804 130.945C309.255 132.555 308.724 134.169 308.272 135.809C308.242 135.919 308.201 136.026 308.154 136.131C308.119 136.21 308.073 136.285 308.017 136.349C307.907 136.478 307.762 136.553 307.584 136.545C307.478 136.54 307.373 136.532 307.269 136.5C307.176 136.473 307.085 136.444 306.994 136.412C306.145 136.102 305.289 135.813 304.431 135.531C303.726 135.301 303.024 135.073 302.319 134.843C302.145 134.787 301.973 134.724 301.812 134.638C301.693 134.578 301.578 134.506 301.478 134.414C301.317 134.269 301.216 134.092 301.179 133.877C301.152 133.716 301.159 133.556 301.185 133.397C301.219 133.19 301.287 132.99 301.356 132.79C301.828 131.435 302.304 130.083 302.774 128.729C303.936 125.381 305.073 122.023 306.17 118.652C306.657 117.155 307.139 115.653 307.647 114.16C308.021 113.056 308.382 111.949 308.748 110.841C308.777 110.751 308.809 110.66 308.833 110.567C308.84 110.543 308.829 110.512 308.824 110.484C308.849 110.477 308.848 110.461 308.833 110.468C308.799 110.487 308.832 110.452 308.832 110.488C308.814 110.493 308.789 110.487 308.775 110.497C308.728 110.53 308.681 110.565 308.638 110.603C307.266 111.776 305.892 112.943 304.527 114.121C302.935 115.495 301.369 116.898 299.851 118.352C299.412 118.773 298.965 119.186 298.503 119.581C297.792 120.191 297.08 120.798 296.358 121.394C294.983 122.531 293.647 123.718 292.391 124.982C292.066 125.31 291.725 125.626 291.388 125.944C291.249 126.077 291.105 126.205 290.957 126.33C290.863 126.411 290.76 126.485 290.652 126.55C290.411 126.697 290.205 126.68 289.987 126.504C289.919 126.45 289.86 126.39 289.803 126.326C289.747 126.262 289.695 126.193 289.641 126.128C288.44 124.651 287.221 123.192 285.968 121.758C285.912 121.694 285.855 121.63 285.806 121.56C285.764 121.499 285.725 121.43 285.697 121.362C285.645 121.24 285.658 121.118 285.731 121.006C285.773 120.942 285.823 120.882 285.874 120.826C285.958 120.734 286.046 120.644 286.131 120.552C286.567 120.076 287.022 119.617 287.491 119.175C288.166 118.538 288.865 117.932 289.574 117.339C290.397 116.653 291.221 115.97 292.043 115.281C292.849 114.606 293.636 113.907 294.377 113.163C295.119 112.42 295.887 111.702 296.673 111C297.608 110.165 298.566 109.354 299.523 108.543C300.516 107.702 301.511 106.858 302.48 105.988C302.68 105.809 302.881 105.626 303.098 105.462C303.188 105.392 303.276 105.312 303.353 105.229C303.53 105.03 303.59 104.796 303.544 104.538C303.532 104.468 303.489 104.433 303.426 104.444C303.331 104.459 303.236 104.475 303.139 104.494C297.581 105.581 292.022 106.664 286.464 107.751C284.838 108.068 283.215 108.39 281.595 108.725C281.311 108.785 281.024 108.839 280.74 108.898C280.587 108.93 280.432 108.945 280.277 108.933C280.21 108.928 280.142 108.92 280.08 108.9C279.896 108.841 279.761 108.731 279.703 108.539C279.686 108.477 279.681 108.406 279.617 108.367L279.499 107.752C279.53 107.648 279.502 107.543 279.482 107.443C279.375 106.858 279.273 106.268 279.159 105.684C279.028 104.997 278.889 104.307 278.752 103.621C278.726 103.503 278.71 103.378 278.639 103.275L278.488 102.49C278.535 102.442 278.519 102.383 278.51 102.326C278.498 102.207 278.536 102.101 278.594 102C278.657 101.887 278.75 101.803 278.858 101.738C278.957 101.678 279.061 101.624 279.176 101.596C279.365 101.549 279.552 101.496 279.74 101.458C280.634 101.285 281.528 101.121 282.422 100.948C283.468 100.747 284.513 100.546 285.561 100.341C287.083 100.045 288.601 99.7476 290.122 99.449C294.045 98.6784 297.969 97.9109 301.895 97.1395C301.942 97.1302 301.989 97.1208 302.036 97.1115C302.064 97.1041 302.092 97.0998 302.12 97.0924C302.138 97.0874 302.157 97.0825 302.175 97.0775C302.2 97.0709 302.211 97.0251 302.196 97.006C302.059 96.8412 301.876 96.7383 301.681 96.6488C301.523 96.5757 301.355 96.5283 301.189 96.487C300.994 96.4369 300.799 96.3768 300.612 96.3049C298.144 95.385 295.665 94.5009 293.182 93.6215C290.836 92.7908 288.487 91.9578 286.144 91.1202C284.191 90.4221 282.248 89.6883 280.286 89.0058C280.194 88.9741 280.106 88.9385 280.018 88.8959C279.95 88.8615 279.882 88.82 279.827 88.7722C279.72 88.682 279.659 88.5631 279.67 88.4214C279.678 88.3269 279.692 88.2308 279.713 88.1392C279.735 88.0476 279.771 87.9588 279.802 87.8678C280.39 86.1818 280.953 84.4863 281.493 82.7833C281.549 82.6099 281.598 82.4349 281.658 82.2638C281.691 82.1658 281.733 82.0653 281.782 81.9763C281.887 81.7866 282.059 81.7141 282.27 81.74C282.355 81.7501 282.44 81.7704 282.526 81.7937C282.618 81.8184 282.71 81.8532 282.8 81.8818C284.062 82.2929 285.316 82.7228 286.565 83.1705C288.472 83.8577 290.378 84.5519 292.284 85.2462C294.308 85.9848 296.328 86.7243 298.368 87.4155C299.726 87.8738 301.081 88.3358 302.43 88.8128C303.028 89.0255 303.632 89.2204 304.24 89.3973C304.341 89.4266 304.445 89.4581 304.547 89.4803C304.571 89.4869 304.601 89.4723 304.628 89.4649C304.631 89.4741 304.632 89.4804 304.634 89.4865C304.635 89.4896 304.654 89.4877 304.653 89.4846C304.658 89.4636 304.647 89.46 304.623 89.4697C304.628 89.4286 304.613 89.3964 304.589 89.3667C304.491 89.2477 304.397 89.1309 304.299 89.0119C303.46 87.9888 302.636 86.9585 301.784 85.9457C297.749 81.1609 293.703 76.3856 289.638 71.6253C289.538 71.5102 289.441 71.3943 289.343 71.2753C289.269 71.1861 289.211 71.0896 289.163 70.9868C289.099 70.8455 289.115 70.7091 289.189 70.5771C289.215 70.5272 289.252 70.481 289.29 70.4378C289.362 70.3623 289.442 70.2884 289.522 70.2205C289.734 70.0383 289.951 69.8613 290.163 69.6791C291.553 68.4847 292.939 67.2881 294.329 66.0937C294.371 66.0558 294.414 66.0179 294.455 65.9739C294.473 65.9527 294.481 65.9241 294.491 65.8984L294.546 65.8835L294.556 65.9174Z" fill="#F55000"/>
<path d="M493.125 191.771L510.883 244.377C513.843 253.144 514.114 260.551 511.696 266.597C509.278 272.642 505.114 276.662 499.207 278.656C494.251 280.329 489.438 280.089 484.76 277.936C481.643 276.499 478.673 273.863 475.848 270.026C476.605 277.047 475.74 282.697 473.254 286.967C470.768 291.238 466.856 294.274 461.52 296.076C457.175 297.543 452.897 297.767 448.688 296.745C444.48 295.723 440.723 293.651 437.419 290.529C435.366 288.596 433.251 285.347 431.072 280.787C428.174 274.716 426.375 270.648 425.676 268.579L409.3 220.067L493.122 191.771L493.125 191.771Z" fill="#F8B016"/>
<ellipse cx="49.8214" cy="274.218" rx="21.3252" ry="22.5099" fill="#191A1A" stroke="#FFFCF8"/>
<circle cx="145.765" cy="131.424" r="9.60975" fill="#FFFCF8"/>
<defs>
<clipPath id="clip0_290_3998">
<rect x="0.0627441" y="180.22" width="202.414" height="83.6402" rx="41.8201" transform="rotate(-15 0.0627441 180.22)" fill="white"/>
</clipPath>
<clipPath id="clip1_290_3998">
<rect x="97.6643" y="0.875" width="238.45" height="83.6402" rx="41.8201" transform="rotate(27.5933 97.6643 0.875)" fill="white"/>
</clipPath>
</defs>
</svg>
