<svg width="600" height="412" viewBox="0 0 600 412" fill="none" xmlns="http://www.w3.org/2000/svg">
<g clip-path="url(#clip0_290_7230)">
<rect width="600" height="412" rx="50" fill="#191A1A"/>
<path d="M112.46 76.4398L102.755 81.8194L93.5972 74.7743L74.7434 85.2251L75.927 96.6904L66.2219 102.07L61.4611 48.1427L69.2499 43.8253L112.46 76.4398ZM86.5182 69.0012L71.3861 56.8636L73.5988 76.1625L86.5182 69.0012ZM138.432 62.0435L130.087 66.6692L127.859 62.6512C122.296 65.7351 116.902 66.5972 111.677 65.2375C106.429 63.8367 102.366 60.54 99.4874 55.3475C96.6091 50.155 95.9665 44.9624 97.5595 39.7695C99.1753 34.6179 102.765 30.5002 108.328 27.4164L106.101 23.3984L114.446 18.7726L116.673 22.7906C122.278 19.6839 127.672 18.8218 132.856 20.2043C138.104 21.6051 142.167 24.9018 145.045 30.0943C147.924 35.2868 148.566 40.4795 146.973 45.6723C145.399 50.8011 141.809 54.9188 136.204 58.0255L138.432 62.0435ZM120.785 30.2085L132.093 50.6076C135.06 48.9629 136.936 46.7107 137.721 43.8512C138.525 40.9275 138.082 37.941 136.391 34.8914C134.701 31.8418 132.414 29.9038 129.532 29.0773C126.668 28.1867 123.752 28.5638 120.785 30.2085ZM123.748 55.2334L112.44 34.8342C109.514 36.4561 107.649 38.7289 106.846 41.6525C106.065 44.6173 106.497 47.5833 108.142 50.5504C109.786 53.5176 112.073 55.4556 115.001 56.3646C117.906 57.2323 120.822 56.8552 123.748 55.2334ZM170.97 44.007L162.625 48.6328L138.64 5.3619L146.985 0.736138L170.97 44.007ZM207.277 -32.6842L231.262 10.5867L177.174 40.5685L153.188 -2.7024L161.533 -7.32816L181.75 29.143L196.276 21.0908L176.06 -15.3804L184.405 -20.0062L204.621 16.465L219.148 8.41274L198.932 -28.0584L207.277 -32.6842ZM281.185 -17.086L271.48 -11.7064L262.322 -18.7515L243.468 -8.3007L244.652 3.16458L234.947 8.54417L230.186 -45.3831L237.975 -49.7005L281.185 -17.086ZM255.243 -24.5246L240.111 -36.6622L242.324 -17.3633L255.243 -24.5246Z" fill="#FFFCF8" fill-opacity="0.35"/>
<path d="M391.46 12.8624L381.755 18.242L372.597 11.1969L353.743 21.6477L354.927 33.113L345.222 38.4926L340.461 -15.4347L348.25 -19.7521L391.46 12.8624ZM365.518 5.42376L350.386 -6.71384L352.599 12.5851L365.518 5.42376ZM417.432 -1.53392L409.087 3.09184L406.859 -0.926167C401.296 2.15767 395.902 3.01978 390.677 1.66016C385.429 0.25932 381.366 -3.03735 378.487 -8.22986C375.609 -13.4224 374.966 -18.615 376.559 -23.8078C378.175 -28.9595 381.765 -33.0772 387.328 -36.161L385.101 -40.179L393.446 -44.8048L395.673 -40.7868C401.278 -43.8935 406.672 -44.7556 411.856 -43.3731C417.104 -41.9723 421.167 -38.6756 424.045 -33.4831C426.924 -28.2906 427.566 -23.0979 425.973 -17.9051C424.399 -12.7763 420.809 -8.65861 415.204 -5.55193L417.432 -1.53392ZM399.785 -33.3689L411.093 -12.9698C414.06 -14.6145 415.936 -16.8667 416.721 -19.7262C417.525 -22.6498 417.082 -25.6364 415.391 -28.686C413.701 -31.7356 411.414 -33.6736 408.532 -34.5001C405.668 -35.3907 402.752 -35.0136 399.785 -33.3689ZM402.748 -8.34403L391.44 -28.7432C388.514 -27.1213 386.649 -24.8485 385.846 -21.9249C385.065 -18.9601 385.497 -15.9941 387.142 -13.0269C388.786 -10.0598 391.073 -8.12176 394.001 -7.21282C396.906 -6.34509 399.822 -6.72216 402.748 -8.34403ZM449.97 -19.5704L441.625 -14.9446L417.64 -58.2155L425.985 -62.8413L449.97 -19.5704ZM486.277 -96.2616L510.262 -52.9907L456.174 -23.0089L432.188 -66.2798L440.533 -70.9056L460.75 -34.4344L475.276 -42.4866L455.06 -78.9578L463.405 -83.5836L483.621 -47.1124L498.148 -55.1647L477.932 -91.6358L486.277 -96.2616ZM560.185 -80.6634L550.48 -75.2838L541.322 -82.3289L522.468 -71.8781L523.652 -60.4128L513.947 -55.0332L509.186 -108.96L516.975 -113.278L560.185 -80.6634ZM534.243 -88.102L519.111 -100.24L521.324 -80.9407L534.243 -88.102Z" fill="#FFFCF8" fill-opacity="0.35"/>
<path d="M112.46 216.863L102.755 222.242L93.5972 215.197L74.7434 225.648L75.927 237.113L66.2219 242.493L61.4611 188.566L69.2499 184.248L112.46 216.863ZM86.5182 209.424L71.3861 197.286L73.5988 216.585L86.5182 209.424ZM138.432 202.466L130.087 207.092L127.859 203.074C122.296 206.158 116.902 207.02 111.677 205.66C106.429 204.26 102.366 200.963 99.4874 195.77C96.6091 190.578 95.9665 185.385 97.5595 180.192C99.1753 175.041 102.765 170.923 108.328 167.839L106.101 163.821L114.446 159.195L116.673 163.213C122.278 160.107 127.672 159.245 132.856 160.627C138.104 162.028 142.167 165.325 145.045 170.517C147.924 175.71 148.566 180.902 146.973 186.095C145.399 191.224 141.809 195.342 136.204 198.448L138.432 202.466ZM120.785 170.631L132.093 191.03C135.06 189.386 136.936 187.134 137.721 184.274C138.525 181.35 138.082 178.364 136.391 175.314C134.701 172.265 132.414 170.327 129.532 169.5C126.668 168.61 123.752 168.987 120.785 170.631ZM123.748 195.656L112.44 175.257C109.514 176.879 107.649 179.152 106.846 182.075C106.065 185.04 106.497 188.006 108.142 190.973C109.786 193.94 112.073 195.878 115.001 196.787C117.906 197.655 120.822 197.278 123.748 195.656ZM170.97 184.43L162.625 189.056L138.64 145.785L146.985 141.159L170.97 184.43ZM207.277 107.739L231.262 151.01L177.174 180.991L153.188 137.72L161.533 133.095L181.75 169.566L196.276 161.514L176.06 125.042L184.405 120.417L204.621 156.888L219.148 148.836L198.932 112.364L207.277 107.739ZM281.185 123.337L271.48 128.716L262.322 121.671L243.468 132.122L244.652 143.587L234.947 148.967L230.186 95.0398L237.975 90.7224L281.185 123.337ZM255.243 115.898L240.111 103.761L242.324 123.06L255.243 115.898Z" fill="#FFFCF8" fill-opacity="0.35"/>
<path d="M391.46 153.286L381.755 158.665L372.597 151.62L353.743 162.071L354.927 173.536L345.222 178.916L340.461 124.988L348.25 120.671L391.46 153.286ZM365.518 145.847L350.386 133.709L352.599 153.008L365.518 145.847ZM417.432 138.889L409.087 143.515L406.859 139.497C401.296 142.581 395.902 143.443 390.677 142.083C385.429 140.682 381.366 137.386 378.487 132.193C375.609 127.001 374.966 121.808 376.559 116.615C378.175 111.464 381.765 107.346 387.328 104.262L385.101 100.244L393.446 95.6183L395.673 99.6363C401.278 96.5296 406.672 95.6675 411.856 97.05C417.104 98.4508 421.167 101.747 424.045 106.94C426.924 112.133 427.566 117.325 425.973 122.518C424.399 127.647 420.809 131.764 415.204 134.871L417.432 138.889ZM399.785 107.054L411.093 127.453C414.06 125.809 415.936 123.556 416.721 120.697C417.525 117.773 417.082 114.787 415.391 111.737C413.701 108.688 411.414 106.749 408.532 105.923C405.668 105.032 402.752 105.409 399.785 107.054ZM402.748 132.079L391.44 111.68C388.514 113.302 386.649 115.575 385.846 118.498C385.065 121.463 385.497 124.429 387.142 127.396C388.786 130.363 391.073 132.301 394.001 133.21C396.906 134.078 399.822 133.701 402.748 132.079ZM449.97 120.853L441.625 125.478L417.64 82.2076L425.985 77.5818L449.97 120.853ZM486.277 44.1615L510.262 87.4324L456.174 117.414L432.188 74.1433L440.533 69.5175L460.75 105.989L475.276 97.9365L455.06 61.4653L463.405 56.8395L483.621 93.3107L498.148 85.2584L477.932 48.7873L486.277 44.1615ZM560.185 59.7597L550.48 65.1393L541.322 58.0942L522.468 68.545L523.652 80.0103L513.947 85.3899L509.186 31.4626L516.975 27.1452L560.185 59.7597ZM534.243 52.3211L519.111 40.1835L521.324 59.4824L534.243 52.3211Z" fill="#F55000"/>
<path d="M112.46 357.286L102.755 362.665L93.5972 355.62L74.7434 366.071L75.927 377.536L66.2219 382.916L61.4611 328.989L69.2499 324.671L112.46 357.286ZM86.5182 349.847L71.3861 337.709L73.5988 357.008L86.5182 349.847ZM138.432 342.889L130.087 347.515L127.859 343.497C122.296 346.581 116.902 347.443 111.677 346.083C106.429 344.683 102.366 341.386 99.4874 336.193C96.6091 331.001 95.9665 325.808 97.5595 320.615C99.1753 315.464 102.765 311.346 108.328 308.262L106.101 304.244L114.446 299.618L116.673 303.636C122.278 300.53 127.672 299.668 132.856 301.05C138.104 302.451 142.167 305.748 145.045 310.94C147.924 316.133 148.566 321.325 146.973 326.518C145.399 331.647 141.809 335.765 136.204 338.871L138.432 342.889ZM120.785 311.054L132.093 331.453C135.06 329.809 136.936 327.557 137.721 324.697C138.525 321.773 138.082 318.787 136.391 315.737C134.701 312.688 132.414 310.75 129.532 309.923C126.668 309.033 123.752 309.41 120.785 311.054ZM123.748 336.079L112.44 315.68C109.514 317.302 107.649 319.575 106.846 322.498C106.065 325.463 106.497 328.429 108.142 331.396C109.786 334.363 112.073 336.301 115.001 337.21C117.906 338.078 120.822 337.701 123.748 336.079ZM170.97 324.853L162.625 329.479L138.64 286.208L146.985 281.582L170.97 324.853ZM207.277 248.162L231.262 291.433L177.174 321.414L153.188 278.143L161.533 273.518L181.75 309.989L196.276 301.937L176.06 265.465L184.405 260.84L204.621 297.311L219.148 289.259L198.932 252.787L207.277 248.162ZM281.185 263.76L271.48 269.139L262.322 262.094L243.468 272.545L244.652 284.01L234.947 289.39L230.186 235.463L237.975 231.145L281.185 263.76ZM255.243 256.321L240.111 244.184L242.324 263.483L255.243 256.321Z" fill="#F55000"/>
<path d="M391.46 293.708L381.755 299.087L372.597 292.042L353.743 302.493L354.927 313.958L345.222 319.338L340.461 265.411L348.25 261.093L391.46 293.708ZM365.518 286.269L350.386 274.132L352.599 293.431L365.518 286.269ZM417.432 279.312L409.087 283.937L406.859 279.919C401.296 283.003 395.902 283.865 390.677 282.506C385.429 281.105 381.366 277.808 378.487 272.616C375.609 267.423 374.966 262.23 376.559 257.038C378.175 251.886 381.765 247.768 387.328 244.684L385.101 240.666L393.446 236.041L395.673 240.059C401.278 236.952 406.672 236.09 411.856 237.472C417.104 238.873 421.167 242.17 424.045 247.362C426.924 252.555 427.566 257.748 425.973 262.94C424.399 268.069 420.809 272.187 415.204 275.294L417.432 279.312ZM399.785 247.477L411.093 267.876C414.06 266.231 415.936 263.979 416.721 261.119C417.525 258.196 417.082 255.209 415.391 252.159C413.701 249.11 411.414 247.172 408.532 246.345C405.668 245.455 402.752 245.832 399.785 247.477ZM402.748 272.501L391.44 252.102C388.514 253.724 386.649 255.997 385.846 258.921C385.065 261.885 385.497 264.851 387.142 267.819C388.786 270.786 391.073 272.724 394.001 273.633C396.906 274.5 399.822 274.123 402.748 272.501ZM449.97 261.275L441.625 265.901L417.64 222.63L425.985 218.004L449.97 261.275ZM486.277 184.584L510.262 227.855L456.174 257.837L432.188 214.566L440.533 209.94L460.75 246.411L475.276 238.359L455.06 201.888L463.405 197.262L483.621 233.733L498.148 225.681L477.932 189.21L486.277 184.584ZM560.185 200.182L550.48 205.562L541.322 198.517L522.468 208.967L523.652 220.433L513.947 225.812L509.186 171.885L516.975 167.568L560.185 200.182ZM534.243 192.743L519.111 180.606L521.324 199.905L534.243 192.743Z" fill="#FFFCF8" fill-opacity="0.35"/>
<path d="M112.46 497.708L102.755 503.088L93.5972 496.043L74.7434 506.493L75.927 517.959L66.2219 523.338L61.4611 469.411L69.2499 465.094L112.46 497.708ZM86.5182 490.269L71.3861 478.132L73.5988 497.431L86.5182 490.269ZM138.432 483.312L130.087 487.938L127.859 483.92C122.296 487.003 116.902 487.865 111.677 486.506C106.429 485.105 102.366 481.808 99.4874 476.616C96.6091 471.423 95.9665 466.231 97.5595 461.038C99.1753 455.886 102.765 451.769 108.328 448.685L106.101 444.667L114.446 440.041L116.673 444.059C122.278 440.952 127.672 440.09 132.856 441.473C138.104 442.873 142.167 446.17 145.045 451.363C147.924 456.555 148.566 461.748 146.973 466.941C145.399 472.069 141.809 476.187 136.204 479.294L138.432 483.312ZM120.785 451.477L132.093 471.876C135.06 470.231 136.936 467.979 137.721 465.119C138.525 462.196 138.082 459.209 136.391 456.16C134.701 453.11 132.414 451.172 129.532 450.346C126.668 449.455 123.752 449.832 120.785 451.477ZM123.748 476.502L112.44 456.103C109.514 457.724 107.649 459.997 106.846 462.921C106.065 465.886 106.497 468.852 108.142 471.819C109.786 474.786 112.073 476.724 115.001 477.633C117.906 478.501 120.822 478.124 123.748 476.502ZM170.97 465.275L162.625 469.901L138.64 426.63L146.985 422.004L170.97 465.275ZM207.277 388.584L231.262 431.855L177.174 461.837L153.188 418.566L161.533 413.94L181.75 450.411L196.276 442.359L176.06 405.888L184.405 401.262L204.621 437.733L219.148 429.681L198.932 393.21L207.277 388.584ZM281.185 404.182L271.48 409.562L262.322 402.517L243.468 412.968L244.652 424.433L234.947 429.812L230.186 375.885L237.975 371.568L281.185 404.182ZM255.243 396.744L240.111 384.606L242.324 403.905L255.243 396.744Z" fill="#FFFCF8" fill-opacity="0.35"/>
<path d="M391.46 434.131L381.755 439.51L372.597 432.465L353.743 442.916L354.927 454.381L345.222 459.761L340.461 405.834L348.25 401.516L391.46 434.131ZM365.518 426.692L350.386 414.555L352.599 433.854L365.518 426.692ZM417.432 419.735L409.087 424.36L406.859 420.342C401.296 423.426 395.902 424.288 390.677 422.929C385.429 421.528 381.366 418.231 378.487 413.039C375.609 407.846 374.966 402.653 376.559 397.461C378.175 392.309 381.765 388.191 387.328 385.107L385.101 381.089L393.446 376.464L395.673 380.482C401.278 377.375 406.672 376.513 411.856 377.895C417.104 379.296 421.167 382.593 424.045 387.785C426.924 392.978 427.566 398.171 425.973 403.363C424.399 408.492 420.809 412.61 415.204 415.717L417.432 419.735ZM399.785 387.9L411.093 408.299C414.06 406.654 415.936 404.402 416.721 401.542C417.525 398.619 417.082 395.632 415.391 392.582C413.701 389.533 411.414 387.595 408.532 386.768C405.668 385.878 402.752 386.255 399.785 387.9ZM402.748 412.924L391.44 392.525C388.514 394.147 386.649 396.42 385.846 399.344C385.065 402.308 385.497 405.274 387.142 408.241C388.786 411.209 391.073 413.147 394.001 414.056C396.906 414.923 399.822 414.546 402.748 412.924ZM449.97 401.698L441.625 406.324L417.64 363.053L425.985 358.427L449.97 401.698ZM486.277 325.007L510.262 368.278L456.174 398.26L432.188 354.989L440.533 350.363L460.75 386.834L475.276 378.782L455.06 342.311L463.405 337.685L483.621 374.156L498.148 366.104L477.932 329.633L486.277 325.007ZM560.185 340.605L550.48 345.985L541.322 338.94L522.468 349.39L523.652 360.856L513.947 366.235L509.186 312.308L516.975 307.991L560.185 340.605ZM534.243 333.166L519.111 321.029L521.324 340.328L534.243 333.166Z" fill="#FFFCF8" fill-opacity="0.35"/>
</g>
<rect x="0.5" y="0.5" width="599" height="411" rx="49.5" stroke="#FFFCF8"/>
<defs>
<clipPath id="clip0_290_7230">
<rect width="600" height="412" rx="50" fill="white"/>
</clipPath>
</defs>
</svg>
