<svg width="447" height="445" viewBox="0 0 447 445" fill="none" xmlns="http://www.w3.org/2000/svg">
<mask id="path-1-inside-1_288_3030" fill="white">
<path d="M299.083 444.728C299.176 444.377 298.973 444.081 298.825 443.804C297.586 441.215 296.328 438.625 295.089 436.036C286.785 418.762 278.463 401.507 270.214 384.215C261.966 366.923 253.68 349.632 245.599 332.285C240.993 322.427 236.555 312.495 232.061 302.601C228.824 295.462 225.421 288.398 221.704 281.481C218.375 275.285 214.787 269.256 210.774 263.486C206.243 256.976 201.231 250.836 195.831 245.01C187.527 236.077 178.391 228.033 168.645 220.653C163.041 216.418 157.215 212.479 151.353 208.614C139.109 200.532 126.922 192.376 114.864 184.035C107.022 178.617 99.2361 173.105 91.561 167.483C84.1449 162.046 76.5438 156.868 68.9057 151.745C61.2307 146.585 53.5372 141.425 45.8806 136.247C43.6613 134.749 41.4975 133.177 39.2967 131.66C37.6137 130.477 35.9862 129.2 34.4142 127.869C32.6388 126.352 30.8264 124.873 29.051 123.356C28.7181 123.079 28.3852 122.765 28.1262 122.413C27.7564 121.896 27.6269 121.303 27.9413 120.711C28.2002 120.23 28.4776 119.749 28.7736 119.287C32.5833 113.498 36.4116 107.728 40.2029 101.94C42.6256 98.2225 45.0114 94.4866 47.3971 90.7693C47.7485 90.2144 48.0999 89.6418 48.5067 89.1239C48.8766 88.6431 49.302 88.1803 49.7459 87.792C50.7631 86.9042 51.9467 86.7382 53.2043 87.2375C53.6666 87.4224 54.1105 87.6622 54.5544 87.9211C54.9427 88.143 55.2941 88.4212 55.6455 88.6986C62.7103 94.1359 70.0154 99.2396 77.4316 104.215C84.4593 108.931 91.5426 113.609 98.5888 118.325C104.988 122.616 111.257 127.036 117.434 131.641C124.703 137.079 132.248 142.165 139.923 147.047C147.173 151.652 154.46 156.184 161.746 160.752C162.32 161.103 162.874 161.472 163.448 161.824C166.333 163.636 166.407 163.673 166.444 163.433C166.444 163.377 166.499 163.322 166.481 163.285C166.055 162.323 165.63 161.38 165.186 160.436C150.391 129.2 135.614 97.9639 120.819 66.7088C116.99 58.6269 113.144 50.5452 109.315 42.4633C109.056 41.9085 108.779 41.3719 108.539 40.8171C108.354 40.4102 108.206 40.0035 108.076 39.5781C107.725 38.3205 107.928 37.1922 108.835 36.1936C109.371 35.6202 109.981 35.1388 110.61 34.6765C112.237 33.4928 113.92 32.4021 115.659 31.3849C118.211 29.8869 120.856 28.5184 123.537 27.2608C126.57 25.8367 129.64 24.4501 132.692 23.0445C135.854 21.602 138.98 20.1039 142.013 18.421C142.642 18.0696 143.289 17.7544 144.029 17.6064C144.898 17.4215 145.582 17.7182 146.082 18.3839C146.341 18.7353 146.563 19.142 146.692 19.5489C147.247 21.1763 148.042 22.6925 148.782 24.2275C162.098 51.5248 175.044 79.0075 187.823 106.545C191.633 114.757 195.461 122.968 199.271 131.179C200.362 133.528 201.49 135.877 202.729 138.151C203.691 139.908 204.708 141.61 205.836 143.256C205.984 143.478 206.151 143.7 206.317 143.922C206.41 144.051 206.576 144.18 206.724 144.088C206.853 144.014 206.927 143.848 206.983 143.7C207.038 143.552 207.057 143.386 207.075 143.219C207.297 141.185 207.575 139.169 207.723 137.135C208.333 129.275 208.888 121.433 209.48 113.573C210.071 105.657 210.663 97.76 211.236 89.8446C211.958 80.1721 212.661 70.5003 213.363 60.8464C213.696 56.3893 214.011 51.9503 214.307 47.4932C215.12 35.5645 215.915 23.6361 216.711 11.7259C216.822 10.1909 216.933 8.65586 217.044 7.10235C217.118 6.10367 217.303 5.14183 217.58 4.18014C217.691 3.81026 217.82 3.44066 217.968 3.08928C218.708 1.35083 220.114 0.463039 221.982 0.24111C222.314 0.204122 222.666 0.240604 222.999 0.185122C223.221 0.166628 223.424 0.0554823 223.628 0C224.182 0.0369882 224.756 0.0740848 225.31 0.111073C225.865 0.443967 226.494 0.462425 227.104 0.536402C228.491 0.684354 229.897 0.814247 231.284 0.980694C236.074 1.55401 240.901 1.85003 245.728 2.01647C248.206 2.10894 250.666 2.18274 253.144 2.2937C253.976 2.33069 254.827 2.38599 255.659 2.57093C258.212 3.10726 259.247 4.49411 259.636 6.50996C259.784 7.32371 259.876 8.13759 259.821 8.96983C259.765 9.63561 259.747 10.2835 259.691 10.9493C258.6 25.5596 257.472 40.1694 256.399 54.7798C254.513 80.5976 252.663 106.434 250.795 132.252C250.462 136.764 250.148 141.259 249.815 145.771C249.778 146.215 249.741 146.659 249.723 147.084C249.723 147.251 249.723 147.417 249.723 147.584C249.723 147.787 250 147.953 250.204 147.861C251.554 147.343 252.626 146.474 253.496 145.383C254.013 144.736 254.439 144.014 254.79 143.256C255.16 142.461 255.548 141.666 255.881 140.833C256.399 139.613 257.046 138.465 257.805 137.356C260.893 132.806 263.963 128.275 267.015 123.707C281.773 101.644 296.531 79.5804 311.271 57.5169C316.764 49.324 322.164 41.0761 327.158 32.5688C327.49 31.9955 327.879 31.4585 328.304 30.9406C328.619 30.5522 328.988 30.2012 329.395 29.9238C330.209 29.369 331.134 29.166 332.114 29.4804C332.706 29.6654 333.279 29.8681 333.815 30.201C334.296 30.4969 334.759 30.7933 335.221 31.1077C339.512 34.1222 343.876 37.0258 348.259 39.8924C351.866 42.2411 355.454 44.571 359.06 46.9198C359.948 47.4931 360.817 48.1039 361.594 48.8252C362.167 49.343 362.703 49.9158 363.129 50.5816C363.813 51.6357 364.109 52.7826 363.998 54.0402C363.905 54.9834 363.628 55.8715 363.24 56.7222C362.74 57.8319 362.056 58.8485 361.372 59.8657C356.693 66.7455 351.995 73.6066 347.335 80.4864C335.794 97.501 324.383 114.608 313.176 131.845C308.201 139.501 303.245 147.195 298.159 154.796C294.404 160.418 290.724 166.078 287.007 171.737C286.711 172.199 286.397 172.661 286.119 173.142C286.045 173.272 286.064 173.457 286.045 173.623C285.897 173.623 285.879 173.716 285.971 173.697C286.193 173.642 285.953 173.79 286.008 173.586C286.119 173.586 286.249 173.66 286.341 173.623C286.656 173.512 286.97 173.383 287.266 173.235C296.716 168.723 306.167 164.246 315.58 159.697C326.566 154.389 337.44 148.878 348.13 143.015C351.218 141.314 354.344 139.668 357.525 138.151C362.426 135.803 367.327 133.472 372.265 131.216C381.678 126.907 390.944 122.265 399.876 117.068C402.188 115.718 404.574 114.46 406.941 113.184C407.921 112.648 408.92 112.149 409.937 111.668C410.585 111.354 411.269 111.095 411.972 110.892C413.544 110.429 414.672 110.835 415.633 112.149C415.929 112.555 416.17 112.981 416.392 113.425C416.614 113.868 416.799 114.331 417.002 114.775C421.515 124.854 426.157 134.86 431.021 144.772C431.242 145.216 431.464 145.66 431.631 146.122C431.779 146.529 431.89 146.973 431.945 147.398C432.056 148.157 431.797 148.822 431.224 149.34C430.891 149.636 430.521 149.895 430.151 150.136C429.541 150.524 428.912 150.894 428.302 151.282C425.139 153.298 421.903 155.184 418.611 156.96C413.876 159.512 409.05 161.861 404.186 164.117C398.545 166.725 392.904 169.314 387.263 171.94C381.734 174.511 376.278 177.248 371.007 180.3C365.736 183.351 360.354 186.218 354.899 188.973C348.407 192.247 341.823 195.353 335.24 198.46C328.415 201.678 321.572 204.916 314.841 208.337C313.453 209.04 312.048 209.761 310.587 210.352C309.977 210.611 309.366 210.926 308.811 211.277C307.517 212.128 306.833 213.348 306.703 214.865C306.666 215.272 306.851 215.531 307.221 215.568C307.776 215.623 308.331 215.679 308.904 215.716C341.675 217.972 374.447 220.247 407.219 222.503C416.799 223.169 426.379 223.797 435.958 224.352C437.641 224.445 439.324 224.574 441.007 224.666C441.914 224.722 442.801 224.87 443.652 225.166C444.022 225.295 444.392 225.444 444.706 225.647C445.649 226.257 446.241 227.071 446.278 228.236C446.278 228.606 446.204 229.013 446.5 229.327L446.241 232.953C445.908 233.489 445.908 234.117 445.871 234.709C445.594 238.149 445.28 241.607 445.039 245.047C444.743 249.097 444.484 253.166 444.225 257.216C444.188 257.919 444.096 258.641 444.336 259.325L444.003 263.948C443.671 264.152 443.671 264.503 443.634 264.836C443.523 265.52 443.153 266.057 442.672 266.537C442.154 267.074 441.507 267.407 440.804 267.61C440.157 267.795 439.491 267.943 438.807 267.924C437.678 267.906 436.55 267.924 435.441 267.85C430.17 267.481 424.917 267.055 419.647 266.685C413.488 266.242 407.33 265.798 401.153 265.372C392.183 264.744 383.232 264.133 374.262 263.523C351.126 261.951 327.99 260.36 304.835 258.788C304.558 258.77 304.28 258.752 304.003 258.733C303.837 258.733 303.67 258.714 303.504 258.714C303.393 258.714 303.282 258.714 303.171 258.714C303.023 258.714 302.893 258.955 302.949 259.085C303.467 260.213 304.336 261.064 305.298 261.859C306.074 262.506 306.944 263.023 307.813 263.504C308.83 264.077 309.829 264.706 310.772 265.391C323.218 274.249 335.776 282.923 348.37 291.578C360.262 299.753 372.172 307.946 384.045 316.157C393.94 323 403.723 330.028 413.692 336.797C414.154 337.111 414.598 337.444 415.023 337.814C415.356 338.11 415.67 338.443 415.911 338.794C416.373 339.46 416.54 340.218 416.262 340.995C416.077 341.513 415.855 342.031 415.596 342.511C415.337 342.992 415.005 343.436 414.69 343.898C408.865 352.461 403.168 361.116 397.583 369.845C397.01 370.733 396.474 371.64 395.882 372.509C395.549 373.009 395.16 373.508 394.754 373.933C393.884 374.84 392.812 374.987 391.665 374.525C391.203 374.34 390.759 374.099 390.315 373.84C389.834 373.563 389.372 373.23 388.909 372.935C382.455 368.736 376.075 364.446 369.75 360.063C360.096 353.349 350.46 346.599 340.825 339.848C330.597 332.673 320.389 325.496 309.995 318.561C303.078 313.956 296.18 309.333 289.337 304.635C286.304 302.546 283.216 300.548 280.072 298.643C279.554 298.329 279.017 297.996 278.481 297.718C278.352 297.644 278.167 297.682 278 297.682C278 297.627 278 297.589 278 297.552C278 297.534 277.889 297.516 277.889 297.534C277.834 297.645 277.889 297.682 278.037 297.663C277.945 297.885 277.982 298.088 278.074 298.292C278.444 299.105 278.796 299.901 279.165 300.714C282.328 307.705 285.398 314.715 288.653 321.668C304.077 354.533 319.575 387.36 335.203 420.132C335.591 420.927 335.961 421.722 336.331 422.535C336.608 423.146 336.793 423.775 336.904 424.422C337.052 425.31 336.756 426.05 336.146 426.679C335.924 426.919 335.646 427.122 335.369 427.307C334.851 427.621 334.296 427.917 333.742 428.176C332.281 428.879 330.801 429.545 329.34 430.247C319.76 434.852 310.198 439.476 300.619 444.081C300.323 444.229 300.027 444.377 299.731 444.562C299.601 444.655 299.509 444.802 299.416 444.932H299.083V444.728Z"/>
</mask>
<path d="M299.083 444.728C299.176 444.377 298.973 444.081 298.825 443.804C297.586 441.215 296.328 438.625 295.089 436.036C286.785 418.762 278.463 401.507 270.214 384.215C261.966 366.923 253.68 349.632 245.599 332.285C240.993 322.427 236.555 312.495 232.061 302.601C228.824 295.462 225.421 288.398 221.704 281.481C218.375 275.285 214.787 269.256 210.774 263.486C206.243 256.976 201.231 250.836 195.831 245.01C187.527 236.077 178.391 228.033 168.645 220.653C163.041 216.418 157.215 212.479 151.353 208.614C139.109 200.532 126.922 192.376 114.864 184.035C107.022 178.617 99.2361 173.105 91.561 167.483C84.1449 162.046 76.5438 156.868 68.9057 151.745C61.2307 146.585 53.5372 141.425 45.8806 136.247C43.6613 134.749 41.4975 133.177 39.2967 131.66C37.6137 130.477 35.9862 129.2 34.4142 127.869C32.6388 126.352 30.8264 124.873 29.051 123.356C28.7181 123.079 28.3852 122.765 28.1262 122.413C27.7564 121.896 27.6269 121.303 27.9413 120.711C28.2002 120.23 28.4776 119.749 28.7736 119.287C32.5833 113.498 36.4116 107.728 40.2029 101.94C42.6256 98.2225 45.0114 94.4866 47.3971 90.7693C47.7485 90.2144 48.0999 89.6418 48.5067 89.1239C48.8766 88.6431 49.302 88.1803 49.7459 87.792C50.7631 86.9042 51.9467 86.7382 53.2043 87.2375C53.6666 87.4224 54.1105 87.6622 54.5544 87.9211C54.9427 88.143 55.2941 88.4212 55.6455 88.6986C62.7103 94.1359 70.0154 99.2396 77.4316 104.215C84.4593 108.931 91.5426 113.609 98.5888 118.325C104.988 122.616 111.257 127.036 117.434 131.641C124.703 137.079 132.248 142.165 139.923 147.047C147.173 151.652 154.46 156.184 161.746 160.752C162.32 161.103 162.874 161.472 163.448 161.824C166.333 163.636 166.407 163.673 166.444 163.433C166.444 163.377 166.499 163.322 166.481 163.285C166.055 162.323 165.63 161.38 165.186 160.436C150.391 129.2 135.614 97.9639 120.819 66.7088C116.99 58.6269 113.144 50.5452 109.315 42.4633C109.056 41.9085 108.779 41.3719 108.539 40.8171C108.354 40.4102 108.206 40.0035 108.076 39.5781C107.725 38.3205 107.928 37.1922 108.835 36.1936C109.371 35.6202 109.981 35.1388 110.61 34.6765C112.237 33.4928 113.92 32.4021 115.659 31.3849C118.211 29.8869 120.856 28.5184 123.537 27.2608C126.57 25.8367 129.64 24.4501 132.692 23.0445C135.854 21.602 138.98 20.1039 142.013 18.421C142.642 18.0696 143.289 17.7544 144.029 17.6064C144.898 17.4215 145.582 17.7182 146.082 18.3839C146.341 18.7353 146.563 19.142 146.692 19.5489C147.247 21.1763 148.042 22.6925 148.782 24.2275C162.098 51.5248 175.044 79.0075 187.823 106.545C191.633 114.757 195.461 122.968 199.271 131.179C200.362 133.528 201.49 135.877 202.729 138.151C203.691 139.908 204.708 141.61 205.836 143.256C205.984 143.478 206.151 143.7 206.317 143.922C206.41 144.051 206.576 144.18 206.724 144.088C206.853 144.014 206.927 143.848 206.983 143.7C207.038 143.552 207.057 143.386 207.075 143.219C207.297 141.185 207.575 139.169 207.723 137.135C208.333 129.275 208.888 121.433 209.48 113.573C210.071 105.657 210.663 97.76 211.236 89.8446C211.958 80.1721 212.661 70.5003 213.363 60.8464C213.696 56.3893 214.011 51.9503 214.307 47.4932C215.12 35.5645 215.915 23.6361 216.711 11.7259C216.822 10.1909 216.933 8.65586 217.044 7.10235C217.118 6.10367 217.303 5.14183 217.58 4.18014C217.691 3.81026 217.82 3.44066 217.968 3.08928C218.708 1.35083 220.114 0.463039 221.982 0.24111C222.314 0.204122 222.666 0.240604 222.999 0.185122C223.221 0.166628 223.424 0.0554823 223.628 0C224.182 0.0369882 224.756 0.0740848 225.31 0.111073C225.865 0.443967 226.494 0.462425 227.104 0.536402C228.491 0.684354 229.897 0.814247 231.284 0.980694C236.074 1.55401 240.901 1.85003 245.728 2.01647C248.206 2.10894 250.666 2.18274 253.144 2.2937C253.976 2.33069 254.827 2.38599 255.659 2.57093C258.212 3.10726 259.247 4.49411 259.636 6.50996C259.784 7.32371 259.876 8.13759 259.821 8.96983C259.765 9.63561 259.747 10.2835 259.691 10.9493C258.6 25.5596 257.472 40.1694 256.399 54.7798C254.513 80.5976 252.663 106.434 250.795 132.252C250.462 136.764 250.148 141.259 249.815 145.771C249.778 146.215 249.741 146.659 249.723 147.084C249.723 147.251 249.723 147.417 249.723 147.584C249.723 147.787 250 147.953 250.204 147.861C251.554 147.343 252.626 146.474 253.496 145.383C254.013 144.736 254.439 144.014 254.79 143.256C255.16 142.461 255.548 141.666 255.881 140.833C256.399 139.613 257.046 138.465 257.805 137.356C260.893 132.806 263.963 128.275 267.015 123.707C281.773 101.644 296.531 79.5804 311.271 57.5169C316.764 49.324 322.164 41.0761 327.158 32.5688C327.49 31.9955 327.879 31.4585 328.304 30.9406C328.619 30.5522 328.988 30.2012 329.395 29.9238C330.209 29.369 331.134 29.166 332.114 29.4804C332.706 29.6654 333.279 29.8681 333.815 30.201C334.296 30.4969 334.759 30.7933 335.221 31.1077C339.512 34.1222 343.876 37.0258 348.259 39.8924C351.866 42.2411 355.454 44.571 359.06 46.9198C359.948 47.4931 360.817 48.1039 361.594 48.8252C362.167 49.343 362.703 49.9158 363.129 50.5816C363.813 51.6357 364.109 52.7826 363.998 54.0402C363.905 54.9834 363.628 55.8715 363.24 56.7222C362.74 57.8319 362.056 58.8485 361.372 59.8657C356.693 66.7455 351.995 73.6066 347.335 80.4864C335.794 97.501 324.383 114.608 313.176 131.845C308.201 139.501 303.245 147.195 298.159 154.796C294.404 160.418 290.724 166.078 287.007 171.737C286.711 172.199 286.397 172.661 286.119 173.142C286.045 173.272 286.064 173.457 286.045 173.623C285.897 173.623 285.879 173.716 285.971 173.697C286.193 173.642 285.953 173.79 286.008 173.586C286.119 173.586 286.249 173.66 286.341 173.623C286.656 173.512 286.97 173.383 287.266 173.235C296.716 168.723 306.167 164.246 315.58 159.697C326.566 154.389 337.44 148.878 348.13 143.015C351.218 141.314 354.344 139.668 357.525 138.151C362.426 135.803 367.327 133.472 372.265 131.216C381.678 126.907 390.944 122.265 399.876 117.068C402.188 115.718 404.574 114.46 406.941 113.184C407.921 112.648 408.92 112.149 409.937 111.668C410.585 111.354 411.269 111.095 411.972 110.892C413.544 110.429 414.672 110.835 415.633 112.149C415.929 112.555 416.17 112.981 416.392 113.425C416.614 113.868 416.799 114.331 417.002 114.775C421.515 124.854 426.157 134.86 431.021 144.772C431.242 145.216 431.464 145.66 431.631 146.122C431.779 146.529 431.89 146.973 431.945 147.398C432.056 148.157 431.797 148.822 431.224 149.34C430.891 149.636 430.521 149.895 430.151 150.136C429.541 150.524 428.912 150.894 428.302 151.282C425.139 153.298 421.903 155.184 418.611 156.96C413.876 159.512 409.05 161.861 404.186 164.117C398.545 166.725 392.904 169.314 387.263 171.94C381.734 174.511 376.278 177.248 371.007 180.3C365.736 183.351 360.354 186.218 354.899 188.973C348.407 192.247 341.823 195.353 335.24 198.46C328.415 201.678 321.572 204.916 314.841 208.337C313.453 209.04 312.048 209.761 310.587 210.352C309.977 210.611 309.366 210.926 308.811 211.277C307.517 212.128 306.833 213.348 306.703 214.865C306.666 215.272 306.851 215.531 307.221 215.568C307.776 215.623 308.331 215.679 308.904 215.716C341.675 217.972 374.447 220.247 407.219 222.503C416.799 223.169 426.379 223.797 435.958 224.352C437.641 224.445 439.324 224.574 441.007 224.666C441.914 224.722 442.801 224.87 443.652 225.166C444.022 225.295 444.392 225.444 444.706 225.647C445.649 226.257 446.241 227.071 446.278 228.236C446.278 228.606 446.204 229.013 446.5 229.327L446.241 232.953C445.908 233.489 445.908 234.117 445.871 234.709C445.594 238.149 445.28 241.607 445.039 245.047C444.743 249.097 444.484 253.166 444.225 257.216C444.188 257.919 444.096 258.641 444.336 259.325L444.003 263.948C443.671 264.152 443.671 264.503 443.634 264.836C443.523 265.52 443.153 266.057 442.672 266.537C442.154 267.074 441.507 267.407 440.804 267.61C440.157 267.795 439.491 267.943 438.807 267.924C437.678 267.906 436.55 267.924 435.441 267.85C430.17 267.481 424.917 267.055 419.647 266.685C413.488 266.242 407.33 265.798 401.153 265.372C392.183 264.744 383.232 264.133 374.262 263.523C351.126 261.951 327.99 260.36 304.835 258.788C304.558 258.77 304.28 258.752 304.003 258.733C303.837 258.733 303.67 258.714 303.504 258.714C303.393 258.714 303.282 258.714 303.171 258.714C303.023 258.714 302.893 258.955 302.949 259.085C303.467 260.213 304.336 261.064 305.298 261.859C306.074 262.506 306.944 263.023 307.813 263.504C308.83 264.077 309.829 264.706 310.772 265.391C323.218 274.249 335.776 282.923 348.37 291.578C360.262 299.753 372.172 307.946 384.045 316.157C393.94 323 403.723 330.028 413.692 336.797C414.154 337.111 414.598 337.444 415.023 337.814C415.356 338.11 415.67 338.443 415.911 338.794C416.373 339.46 416.54 340.218 416.262 340.995C416.077 341.513 415.855 342.031 415.596 342.511C415.337 342.992 415.005 343.436 414.69 343.898C408.865 352.461 403.168 361.116 397.583 369.845C397.01 370.733 396.474 371.64 395.882 372.509C395.549 373.009 395.16 373.508 394.754 373.933C393.884 374.84 392.812 374.987 391.665 374.525C391.203 374.34 390.759 374.099 390.315 373.84C389.834 373.563 389.372 373.23 388.909 372.935C382.455 368.736 376.075 364.446 369.75 360.063C360.096 353.349 350.46 346.599 340.825 339.848C330.597 332.673 320.389 325.496 309.995 318.561C303.078 313.956 296.18 309.333 289.337 304.635C286.304 302.546 283.216 300.548 280.072 298.643C279.554 298.329 279.017 297.996 278.481 297.718C278.352 297.644 278.167 297.682 278 297.682C278 297.627 278 297.589 278 297.552C278 297.534 277.889 297.516 277.889 297.534C277.834 297.645 277.889 297.682 278.037 297.663C277.945 297.885 277.982 298.088 278.074 298.292C278.444 299.105 278.796 299.901 279.165 300.714C282.328 307.705 285.398 314.715 288.653 321.668C304.077 354.533 319.575 387.36 335.203 420.132C335.591 420.927 335.961 421.722 336.331 422.535C336.608 423.146 336.793 423.775 336.904 424.422C337.052 425.31 336.756 426.05 336.146 426.679C335.924 426.919 335.646 427.122 335.369 427.307C334.851 427.621 334.296 427.917 333.742 428.176C332.281 428.879 330.801 429.545 329.34 430.247C319.76 434.852 310.198 439.476 300.619 444.081C300.323 444.229 300.027 444.377 299.731 444.562C299.601 444.655 299.509 444.802 299.416 444.932H299.083V444.728Z" stroke="#FFFCF8" stroke-width="1.59263" mask="url(#path-1-inside-1_288_3030)"/>
<path d="M198.124 360.562C198.124 337.944 196.996 315.269 198.457 292.743C199.844 271.29 176.856 247.692 151.519 249.763C139.387 250.762 127.088 249.93 114.863 249.93C80.187 249.93 45.5105 250.077 10.8526 249.819C3.49192 249.763 0.347927 252.057 0.865763 258.936C1.21715 263.652 0.90271 268.406 0.939698 273.14C1.01367 283.331 1.42058 283.755 12.591 283.755C47.5449 283.792 82.4988 283.756 117.471 283.829C120.8 283.829 125.165 283.034 126.792 286.196C128.494 289.507 124.832 291.837 122.502 294.056C101.881 313.605 81.2042 333.117 60.6202 352.702C58.253 354.94 56.4406 357.676 54.0918 359.933C50.4115 363.465 51.6136 366.11 54.8871 369.291C62.7286 376.873 71.6612 383.494 78.3561 392.094C80.2425 394.517 82.3138 394.535 84.6441 392.205C106.523 370.16 128.753 348.429 151.704 327.346C152.906 326.236 153.997 325.016 154.977 323.74C156.605 321.65 158.029 318.376 161.154 319.32C164.428 320.3 163.115 323.888 163.115 326.329C163.207 357.88 163.004 389.431 163.244 420.982C163.448 446.578 158.99 442.509 187.231 442.824C197.551 442.935 198.124 442.305 198.142 432.374C198.198 408.443 198.142 384.511 198.142 360.58L198.124 360.562Z" fill="#FFFCF8"/>
</svg>
