<svg width="128" height="35" viewBox="0 0 128 35" fill="none" xmlns="http://www.w3.org/2000/svg">
<path d="M127.438 20.5226C127.438 16.6985 127.258 12.8655 127.491 9.05311C127.711 5.42591 124.046 1.43421 120.004 1.78694C118.07 1.95449 116.109 1.81339 114.16 1.81339C108.631 1.81339 103.102 1.83691 97.5735 1.79576C96.4007 1.78694 95.898 2.17494 95.9803 3.33894C96.0362 4.13551 95.9862 4.93796 95.9921 5.74042C96.0039 7.4629 96.0685 7.53345 97.8498 7.53639C103.426 7.54227 108.999 7.53639 114.575 7.54815C115.107 7.54815 115.804 7.41293 116.062 7.9479C116.333 8.50638 115.751 8.90027 115.377 9.27651C112.088 12.5833 108.793 15.8813 105.51 19.1911C105.134 19.5702 104.843 20.0347 104.469 20.4139C103.881 21.0105 104.072 21.4603 104.596 21.9952C105.848 23.2768 107.271 24.3967 108.338 25.8517C108.637 26.2603 108.97 26.2662 109.34 25.8694C112.829 22.1422 116.374 18.468 120.033 14.9025C120.224 14.7144 120.398 14.5057 120.557 14.2911C120.815 13.9384 121.045 13.3828 121.541 13.5445C122.064 13.712 121.853 14.3176 121.856 14.7291C121.87 20.0641 121.838 25.402 121.876 30.737C121.909 35.0638 121.197 34.3789 125.701 34.4318C127.347 34.4524 127.438 34.3436 127.441 32.6652C127.449 28.6177 127.441 24.5731 127.441 20.5256L127.438 20.5226Z" fill="#191A1A"/>
<path d="M0.726318 1.16968H3.63044C5.32353 1.16968 6.47576 2.07795 6.47576 3.48298C6.47576 4.36479 6.00547 5.04086 5.25004 5.39946C6.34056 5.71986 7.04895 6.53701 7.04895 7.6481C7.04895 9.156 5.82323 10.1142 4.02432 10.1142H0.726318V1.16968ZM3.55401 2.0368H1.9344V5.06437H3.55401C4.59749 5.06437 5.29414 4.46473 5.29414 3.55646C5.29414 2.64819 4.59749 2.0368 3.55401 2.0368ZM3.97728 5.93443H1.9344V9.25594H3.97728C5.11189 9.25594 5.86731 8.59164 5.86731 7.58049C5.86731 6.56934 5.11189 5.93149 3.97728 5.93149V5.93443Z" fill="#191A1A"/>
<path d="M4.02434 10.3523H0.5V0.931519H3.63046C5.46758 0.931519 6.69918 1.95736 6.69918 3.48291C6.69918 4.25303 6.37291 4.91145 5.78504 5.34942C6.72564 5.79033 7.27531 6.61924 7.27531 7.64803C7.27531 9.26469 5.96728 10.3523 4.02434 10.3523ZM0.949735 9.87608H4.0214C5.72331 9.87608 6.82263 9.00015 6.82263 7.64803C6.82263 6.68391 6.21124 5.92848 5.18833 5.62867L4.5887 5.4523L5.156 5.18482C5.86146 4.85267 6.24946 4.24715 6.24946 3.48291C6.24946 2.22191 5.22067 1.4077 3.63046 1.4077H0.952678V9.87902L0.949735 9.87608ZM3.9773 9.49396H1.7081V5.69627H3.9773C5.24418 5.69627 6.09367 6.45463 6.09367 7.58336C6.09367 8.71209 5.24418 9.49396 3.9773 9.49396ZM2.16076 9.02072H3.9773C4.98845 9.02072 5.64393 8.45636 5.64393 7.58336C5.64393 6.71036 4.99139 6.17245 3.9773 6.17245H2.16076V9.02072ZM3.55403 5.30239H1.71105V1.79864H3.55403C4.72979 1.79864 5.52048 2.50409 5.52048 3.55639C5.52048 4.60869 4.72979 5.30239 3.55403 5.30239ZM2.16076 4.82915H3.55403C4.47406 4.82915 5.06782 4.32945 5.06782 3.55933C5.06782 2.78921 4.47406 2.27482 3.55403 2.27482H2.16076V4.82915Z" fill="#191A1A"/>
<path d="M17.6837 1.16968V10.1142H16.505V3.04795L10.0736 10.1142H9.28589V1.16968H10.4499V8.23597L16.8813 1.16968H17.6837Z" fill="#191A1A"/>
<path d="M17.9101 10.3523H16.2787V3.63869L10.1707 10.3523H9.0625V0.931519H10.6792V7.64508L16.7872 0.931519H17.9101V10.3523ZM16.7284 9.87608H17.4574V1.40476H16.9783L10.2265 8.82672V1.40476H9.51224V9.87608H9.97666L16.7284 2.45412V9.87608Z" fill="#191A1A"/>
<path d="M20.2705 10.1142V1.16968H21.4345V9.28534H26.0494V1.16968H27.2281V9.28534H31.8429V1.16968H33.0069V9.28534H34.0651V12.2894H32.9746V10.1172H20.2646L20.2705 10.1142Z" fill="#191A1A"/>
<path d="M34.2943 12.5245H32.7541V10.3523H20.0442V0.931519H21.6609V9.04717H25.823V0.931519H27.4544V9.04717H31.6166V0.931519H33.2332V9.04717H34.2914V12.5245H34.2943ZM33.2068 12.0483H33.8446V9.52042H32.7864V1.40476H32.0722V9.52042H27.0076V1.40476H26.2786V9.52042H21.2141V1.40476H20.4998V9.87608H33.2097V12.0483H33.2068Z" fill="#191A1A"/>
<path d="M42.8271 7.55698H37.8948L36.6544 10.1142H35.2935L39.8172 1.16968H40.9224L45.4314 10.1142H44.0852L42.83 7.55698H42.8271ZM38.3181 6.6634H42.4038L40.3757 2.43361L38.3181 6.6634Z" fill="#191A1A"/>
<path d="M45.805 10.3523H43.9473L42.6922 7.795H38.0362L36.7957 10.3523H34.9204L39.6852 0.931519H41.0608L45.8079 10.3523H45.805ZM44.2206 9.87608H45.0554L40.7874 1.40476H39.9556L35.6729 9.87608H36.5194L37.7599 7.31882H42.9685L44.2236 9.87608H44.2206ZM42.7715 6.90142H37.9509L40.3789 1.91033L42.7715 6.90142ZM38.6887 6.42524H42.0396L40.3759 2.95676L38.6887 6.42524Z" fill="#191A1A"/>
<path d="M0.726331 22.1598V13.2152H1.89034V21.3309H6.50518V13.2152H7.68386V21.3309H12.2987V13.2152H13.4627V22.1598H0.723389H0.726331Z" fill="#191A1A"/>
<path d="M16.0054 13.2152H17.1841V22.1598H16.0054V13.2152ZM17.3222 17.5714L21.6784 13.2152H23.1452L18.8037 17.5714L23.4949 22.1598H21.9812L17.3222 17.5714Z" fill="#191A1A"/>
<path d="M29.7557 13.1241C32.9038 13.1241 35.0349 14.976 35.0349 17.6861C35.0349 20.3962 32.9009 22.2598 29.7557 22.2598C26.6106 22.2598 24.4766 20.408 24.4766 17.6861C24.4766 14.9642 26.6106 13.1241 29.7557 13.1241ZM29.7557 21.3662C32.1778 21.3662 33.8268 19.87 33.8268 17.6861C33.8268 15.5021 32.1778 14.0177 29.7557 14.0177C27.3337 14.0177 25.6847 15.5139 25.6847 17.6861C25.6847 19.8583 27.3484 21.3662 29.7557 21.3662Z" fill="#191A1A"/>
<path d="M36.158 21.5219C37.3073 21.5219 37.9422 20.7665 37.9422 19.4761V13.2152H44.4029V22.1598H43.1919V14.0441H39.1532V19.4232C39.1532 21.084 38.2302 22.2215 36.9281 22.2215C36.687 22.2215 36.3226 22.195 36.158 22.1568V21.519V21.5219Z" fill="#191A1A"/>
<path d="M53.7646 19.6025H48.8323L47.5919 22.1598H46.231L50.7547 13.2152H51.8599L56.3689 22.1598H55.0227L53.7676 19.6025H53.7646ZM49.2585 18.7089H53.3443L51.3161 14.4791L49.2585 18.7089Z" fill="#191A1A"/>
<path d="M9.50041 27.3037L5.96137 32.1596H5.44698L1.89032 27.3037V34.2054H0.726318V25.2609H1.6199L5.70565 30.7693L9.7914 25.2609H10.685V34.2054H9.50627V27.3037H9.50041Z" fill="#191A1A"/>
<path d="M20.0442 31.6482H15.1119L13.8714 34.2054H12.5105L17.0342 25.2609H18.1394L22.6485 34.2054H21.3022L20.0471 31.6482H20.0442ZM15.5351 30.7546H19.6209L17.5927 26.5248L15.5351 30.7546Z" fill="#191A1A"/>
<path d="M24.4912 25.2609H27.3659C29.2119 25.2609 30.4523 26.2456 30.4523 27.777C30.4523 29.3084 29.2119 30.2813 27.3659 30.2813H25.7022V34.2054H24.4912V25.2609ZM27.3659 26.128H25.7022V29.4113H27.3659C28.4858 29.4113 29.2413 28.7587 29.2413 27.777C29.2413 26.7952 28.4858 26.128 27.3659 26.128Z" fill="#191A1A"/>
<path d="M32.616 25.2609H33.7947V34.2054H32.616V25.2609ZM33.9328 29.617L38.289 25.2579H39.7558L35.4143 29.617L40.1055 34.2054H38.5918L33.9328 29.617Z" fill="#191A1A"/>
<path d="M43.174 29.285H47.1069V30.1169H43.174V33.3766H47.683V34.2085H42.01V25.2639H47.6066V26.0958H43.174V29.2909V29.285Z" fill="#191A1A"/>
<path d="M53.5089 34.2054H52.3449V26.0898H49.3203V25.2579H56.5365V26.0898H53.5119V34.2054H53.5089Z" fill="#191A1A"/>
<path d="M66.9889 25.2609V34.2054H65.8102V27.1391L59.3788 34.2054H58.5911V25.2609H59.7551V32.3272L66.1865 25.2609H66.9889Z" fill="#191A1A"/>
<path d="M70.7397 29.2849H76.5656V25.2579H77.7443V34.2025H76.5656V30.1138H70.7397V34.2025H69.5757V25.2579H70.7397V29.2849Z" fill="#191A1A"/>
<path d="M80.3311 25.2609H85.6249V26.0927H81.4951V34.2084H80.3311V25.2638V25.2609Z" fill="#191A1A"/>
<path d="M90.075 34.2054H88.8052L90.6218 31.3954L86.9446 25.2609H88.1997L91.1802 30.2461L94.1314 25.2609H95.4012L90.075 34.2054Z" fill="#191A1A"/>
</svg>
