<svg width="30" height="30" viewBox="0 0 30 30" fill="none" xmlns="http://www.w3.org/2000/svg">
<g clip-path="url(#clip0_80_1720)">
<path d="M23.812 10.3319C23.5877 9.4702 22.9267 8.79166 22.0875 8.56136C20.5666 8.14282 14.4672 8.14282 14.4672 8.14282C14.4672 8.14282 8.36789 8.14282 6.84685 8.56136C6.00759 8.79166 5.34664 9.4702 5.12234 10.3319C4.71484 11.8937 4.71484 15.1523 4.71484 15.1523C4.71484 15.1523 4.71484 18.4109 5.12234 19.9728C5.34664 20.8345 6.00759 21.513 6.84685 21.7434C8.36789 22.1619 14.4672 22.1619 14.4672 22.1619C14.4672 22.1619 20.5666 22.1619 22.0875 21.7434C22.9267 21.513 23.5877 20.8345 23.812 19.9728C24.2196 18.4109 24.2196 15.1523 24.2196 15.1523C24.2196 15.1523 24.2196 11.8937 23.812 10.3319Z" fill="#FFFCF8"/>
<path d="M12.6387 18.5049V12.4097L17.5149 15.4574L12.6387 18.5049Z" fill="#191A1A"/>
</g>
<defs>
<clipPath id="clip0_80_1720">
<rect width="30" height="30" fill="white"/>
</clipPath>
</defs>
</svg>
